<svg width="128" height="128" viewBox="0 0 128 128" fill="none" xmlns="http://www.w3.org/2000/svg">
  <path
    d="M103.625 24.0075H75.4249L59.6544 11.3825C59.0828 10.9216 58.3713 10.6692 57.637 10.6666H11.7574C8.63915 10.6666 5.64862 11.9053 3.4437 14.1103C1.23877 16.3152 5.29794e-05 19.3057 5.29794e-05 22.424V113.728C-0.00454452 114.534 0.290229 115.313 0.827261 115.914C1.36429 116.515 2.10535 116.896 2.90685 116.982H3.25393C3.99996 116.979 4.72268 116.721 5.30253 116.252C5.88238 115.783 6.28463 115.129 6.44272 114.4L19.7402 51.4919C20.0061 50.3203 20.6707 49.2775 21.6203 48.5415C22.5699 47.8056 23.7456 47.4223 24.9464 47.4571H112.107C112.97 47.4571 113.798 47.1143 114.408 46.5041C115.018 45.8938 115.361 45.0662 115.361 44.2032V35.7648C115.361 32.6504 114.125 29.6631 111.925 27.4588C109.725 25.2545 106.74 24.0133 103.625 24.0075Z"
    fill="#919EAB" />
  <path
    d="M125.448 45.3963C124.347 44.0069 122.945 42.885 121.348 42.1148C119.752 41.3446 118.001 40.9461 116.228 40.9494H24.9464C22.2835 40.9431 19.698 41.8443 17.6159 43.5044C15.5339 45.1645 14.0796 47.4845 13.4928 50.0819L0.173571 112.99C0.0602608 113.462 0.0537713 113.953 0.154577 114.427C0.255382 114.901 0.460934 115.347 0.756198 115.732C1.05146 116.116 1.42898 116.43 1.86113 116.65C2.29328 116.87 2.76914 116.991 3.25391 117.003H105.382C108.047 117.004 110.633 116.099 112.715 114.435C114.796 112.771 116.25 110.449 116.836 107.849L127.682 55.3966C128.093 53.6695 128.106 51.8714 127.719 50.1387C127.332 48.406 126.555 46.7842 125.448 45.3963Z"
    fill="#DDE0E3" />
</svg>