<svg width="40" height="40" viewBox="0 0 40 40" fill="none" xmlns="http://www.w3.org/2000/svg">
  <path d="M32.3828 7.5024H23.5703L18.642 3.55708C18.4634 3.41307 18.241 3.33417 18.0116 3.33337H3.67418C2.69973 3.33337 1.76519 3.72047 1.07615 4.40951C0.387115 5.09855 1.65561e-05 6.03309 1.65561e-05 7.00754V35.54C-0.00142016 35.7919 0.0906967 36.0353 0.258519 36.2232C0.426342 36.411 0.657922 36.5299 0.90839 36.5568H1.01685C1.24999 36.5559 1.47584 36.4755 1.65704 36.3288C1.83825 36.1821 1.96395 35.9779 2.01335 35.7501L6.16882 16.0913C6.25192 15.7252 6.45958 15.3993 6.75633 15.1693C7.05308 14.9393 7.42048 14.8195 7.79576 14.8304H35.0334C35.3031 14.8304 35.5617 14.7233 35.7524 14.5326C35.9431 14.3419 36.0502 14.0832 36.0502 13.8136V11.1766C36.0502 10.2033 35.6641 9.26978 34.9765 8.58093C34.2889 7.89209 33.3561 7.5042 32.3828 7.5024Z" fill="#173664"/>
  <path d="M39.2025 14.1864C38.8584 13.7522 38.4204 13.4016 37.9214 13.1609C37.4224 12.9203 36.8754 12.7958 36.3214 12.7968H7.79578C6.96363 12.7948 6.15565 13.0764 5.505 13.5952C4.85436 14.114 4.3999 14.839 4.21652 15.6507L0.0542713 35.3095C0.018862 35.4569 0.016834 35.6103 0.0483358 35.7585C0.0798375 35.9067 0.144072 36.046 0.236343 36.1662C0.328613 36.2864 0.446585 36.3845 0.581632 36.4533C0.716679 36.522 0.865385 36.5597 1.01688 36.5636H32.932C33.7647 36.564 34.5728 36.2809 35.2233 35.761C35.8739 35.2411 36.328 34.5153 36.5112 33.7029L39.9007 17.3115C40.0292 16.7718 40.0331 16.2099 39.9121 15.6684C39.7912 15.1269 39.5485 14.6201 39.2025 14.1864Z" fill="#508EE9"/>
  </svg>
  