<svg width="181" height="53" viewBox="0 0 181 53" fill="none" xmlns="http://www.w3.org/2000/svg">
<path d="M52.3278 17.0779C52.3278 21.6746 52.3278 26.2826 52.3278 30.8793C52.3278 32.3588 52.5537 33.827 52.4972 35.3179C52.452 36.3456 52.3391 37.3621 51.7518 38.2317C51.3226 38.8755 50.8031 39.4628 50.2948 40.0501C48.7588 41.8233 47.0308 43.4044 45.1673 44.8275C43.157 46.3522 41.0111 47.6849 38.741 48.7917C36.9339 49.684 35.0591 50.4181 33.1504 51.0731C32.3598 51.3442 31.6144 51.3103 30.8916 50.9941C27.9551 49.7291 24.9961 48.5094 22.2855 46.7927C19.2135 44.8388 16.4238 42.5461 14.0634 39.7565C13.5777 39.1917 13.0695 38.6383 12.6629 38.0059C12.2111 37.3169 12.0191 36.5489 11.9401 35.7357C11.7932 34.3353 11.9627 32.9461 11.9514 31.5569C11.9401 21.8892 11.9401 12.2214 11.9401 2.55369C11.9401 2.16969 11.9965 1.97769 12.4483 1.9438C13.9052 1.84216 15.3622 1.69533 16.8191 1.5598C18.3438 1.41298 19.8685 1.24357 21.3932 1.08545C22.8953 0.927335 24.3862 0.791806 25.8883 0.633689C27.5372 0.464277 29.1975 0.317454 30.8351 0.0802777C31.9871 -0.0891338 33.1052 0.0463954 34.2459 0.148042C35.5673 0.272277 36.8774 0.407807 38.1989 0.543336C40.0737 0.735336 41.9485 0.927335 43.8233 1.11933C45.6868 1.30004 47.5504 1.48075 49.4139 1.66145C50.2723 1.74051 51.1193 1.83086 51.9777 1.92122C52.2148 1.9438 52.3278 2.05675 52.3278 2.30522C52.3165 2.7118 52.3278 3.11839 52.3278 3.53627C52.3278 8.04262 52.3278 12.5603 52.3278 17.0779Z" fill="#183660"/>
<path d="M15.7118 50.5875C16.3329 50.5423 17.0106 50.644 17.6995 50.6778C18.0383 50.6891 18.0835 50.7908 17.8802 51.0957C17.3607 51.8863 16.5927 52.3042 15.7005 52.4962C14.3226 52.8011 12.956 52.6995 11.612 52.2929C11.2167 52.18 11.2054 52.0783 11.4878 51.7508C12.0976 51.0731 12.9108 50.8247 13.7692 50.6665C14.3903 50.5762 15.0115 50.5762 15.7118 50.5875Z" fill="#183660"/>
<path d="M48.792 50.5082C49.7633 50.5195 50.7346 50.576 51.6381 51.0052C52.0334 51.1859 52.3497 51.4569 52.5642 51.8296C52.6885 52.0555 52.6433 52.2024 52.3835 52.2701C50.9605 52.6089 49.5374 52.8122 48.1031 52.3153C47.4141 52.0781 46.872 51.6602 46.5106 51.0165C46.3864 50.7906 46.409 50.7002 46.6913 50.6664C47.3915 50.5647 48.0918 50.5082 48.792 50.5082Z" fill="#183660"/>
<path d="M11.7026 48.6448C12.7981 48.6335 13.7468 48.7803 14.7068 48.9723C14.9779 49.0288 14.9666 49.1079 14.831 49.2886C14.3567 49.9323 13.679 50.2824 12.9336 50.4632C11.4767 50.802 10.0536 50.5648 8.67575 50.0453C8.44987 49.9549 8.44987 49.8307 8.59669 49.6613C8.98069 49.2095 9.46634 48.961 10.031 48.8142C10.607 48.6787 11.2056 48.6109 11.7026 48.6448Z" fill="#183660"/>
<path d="M17.4287 47.8768C17.4287 46.6797 17.9256 45.9681 18.784 45.4712C18.9195 45.3921 19.0776 45.2792 19.2132 45.4938C19.8456 46.4877 20.3878 47.922 19.6198 49.1869C19.3939 49.5597 19.0776 49.8307 18.7614 50.1131C18.6259 50.226 18.4791 50.2712 18.3661 50.0905C17.9031 49.3564 17.3722 48.6448 17.4287 47.8768Z" fill="#183660"/>
<path d="M52.3386 50.5762C51.2996 50.531 50.317 50.2713 49.5716 49.4129C49.2666 49.0628 49.2779 48.9498 49.7297 48.8708C51.0737 48.6336 52.4177 48.3851 53.7843 48.7127C54.3151 48.8369 54.7894 49.0515 55.1621 49.4807C55.4219 49.7743 55.3993 49.8873 55.0379 50.0341C54.1909 50.3729 53.2986 50.531 52.3386 50.5762Z" fill="#183660"/>
<path d="M9.42198 48.3855C8.2361 48.3403 7.23092 48.058 6.25963 47.6175C5.94339 47.4707 5.99987 47.3013 6.22575 47.1205C7.05022 46.4316 8.0441 46.3413 9.06057 46.3977C9.96409 46.4542 10.8337 46.6575 11.7147 46.8834C11.8728 46.9285 12.0874 46.9285 12.1439 47.1093C12.189 47.2674 11.997 47.369 11.8841 47.4707C11.15 48.1257 10.2577 48.3177 9.42198 48.3855Z" fill="#183660"/>
<path d="M47.0864 47.6283C47.0299 48.4754 46.6572 49.266 46.1264 49.9888C45.9683 50.2034 45.8554 50.1582 45.686 50.0114C44.7372 49.2321 44.4097 48.1479 44.7711 46.9394C44.9067 46.4763 45.11 46.0472 45.3471 45.6293C45.5165 45.3356 45.6972 45.3017 45.957 45.4825C46.6572 46.002 47.0525 46.6796 47.0864 47.6283Z" fill="#183660"/>
<path d="M14.797 46.5331C14.7858 45.2569 15.294 44.4437 16.3217 44.0033C16.5137 43.9129 16.6719 43.879 16.7735 44.1162C17.4286 45.5505 17.5415 47.3802 15.8248 48.4305C15.565 48.5887 15.4182 48.5548 15.294 48.295C15.0116 47.6964 14.7293 47.1091 14.797 46.5331Z" fill="#183660"/>
<path d="M55.0492 46.3525C56.2238 46.3525 57.0143 46.4767 57.6242 47.1205C57.7372 47.2447 57.8614 47.3577 57.6242 47.4706C56.2576 48.1595 54.8572 48.6 53.3212 48.0579C52.892 47.9111 52.5193 47.6513 52.1918 47.3464C52.0111 47.1657 51.8868 47.0301 52.2821 46.9059C53.2986 46.5784 54.3263 46.3638 55.0492 46.3525Z" fill="#183660"/>
<path d="M6.19075 43.9018C7.28628 43.9244 8.42699 44.2971 9.56769 44.7376C9.79357 44.8279 9.79357 44.907 9.62416 45.0538C8.90134 45.675 8.06558 45.9347 7.12816 45.9008C6.06652 45.8557 5.10652 45.5056 4.1917 44.9521C3.89805 44.7827 3.90935 44.6472 4.14652 44.4665C4.72252 44.0486 5.36628 43.9018 6.19075 43.9018Z" fill="#183660"/>
<path d="M49.5833 46.533C49.5381 47.0299 49.3349 47.6737 49.0186 48.2949C48.8944 48.5321 48.7363 48.4869 48.5669 48.3852C47.8327 47.9222 47.4149 47.2558 47.3245 46.3862C47.2454 45.6408 47.4149 44.9405 47.6972 44.2516C47.8553 43.8789 48.0473 43.8789 48.341 44.0483C49.2219 44.5565 49.5946 45.3358 49.5833 46.533Z" fill="#183660"/>
<path d="M12.3468 45.0424C12.3355 43.6984 12.9115 42.761 13.9619 42.3319C14.4023 42.1511 14.4588 42.1963 14.5717 42.6707C14.7411 43.3257 14.7976 43.9695 14.6395 44.6359C14.4362 45.4942 13.8602 46.0476 13.1487 46.4881C12.8437 46.6801 12.6517 46.5897 12.5614 46.2509C12.4597 45.833 12.3016 45.4264 12.3468 45.0424Z" fill="#183660"/>
<path d="M23.2453 52.4623C22.5903 52.3607 21.9804 52.1235 21.3592 51.8976C19.0665 51.0506 16.8754 49.9889 14.8199 48.6675C12.2561 47.0073 9.99733 45.0195 8.1338 42.58C6.47357 40.4115 5.23122 38.0285 4.47451 35.3969C4.04534 33.9061 3.77428 32.3927 3.69522 30.8341C3.63875 29.8515 3.59357 28.8689 3.70651 27.8864C3.71781 27.796 3.67263 27.6831 3.84204 27.6153C3.94369 27.9202 3.89851 28.2252 3.86463 28.5188C3.71781 30.2807 3.9211 32.0087 4.25992 33.7254C4.94886 37.1814 6.48486 40.2534 8.69851 42.964C10.0425 44.6129 11.6124 46.0586 13.3291 47.3348C14.5601 48.2496 15.859 49.0854 17.2143 49.7969C18.8293 50.6553 20.5121 51.3894 22.2401 51.988C22.579 52.1009 22.9178 52.2364 23.2566 52.3607C23.2679 52.3946 23.2566 52.4284 23.2453 52.4623Z" fill="#183660"/>
<path d="M56.6532 45.8439C55.8965 45.8213 55.1511 45.6519 54.5525 45.0871C54.4057 44.9403 54.2815 44.8048 54.5638 44.6919C55.761 44.1949 56.9807 43.777 58.3134 43.9126C58.7991 43.9577 59.2396 44.1046 59.6123 44.4547C59.793 44.6354 59.7704 44.7709 59.5671 44.8839C58.6862 45.4147 57.7487 45.81 56.6532 45.8439Z" fill="#183660"/>
<path d="M41.406 52.4168C41.406 52.2925 41.5077 52.2586 41.598 52.2248C43.6987 51.5245 45.7091 50.5984 47.6291 49.4916C49.0182 48.6897 50.3396 47.7749 51.582 46.7584C53.4794 45.1998 55.1283 43.4154 56.5062 41.3824C57.5114 39.9142 58.3133 38.333 58.9457 36.6728C59.5669 35.0464 59.9622 33.3636 60.1768 31.6356C60.3236 30.461 60.3914 29.2752 60.3688 28.0893C60.3688 27.9424 60.3123 27.7843 60.4253 27.6488C60.5608 27.694 60.5382 27.8069 60.5382 27.8973C60.5608 29.1283 60.5495 30.3481 60.3801 31.5679C60.2107 32.7763 59.9848 33.9848 59.646 35.1594C58.8667 37.8248 57.6469 40.2643 55.9754 42.4893C54.1796 44.8949 52.0112 46.9052 49.5152 48.5768C47.1208 50.1918 44.5458 51.4342 41.8126 52.3603C41.6771 52.4055 41.5528 52.4958 41.406 52.4168Z" fill="#183660"/>
<path d="M5.63783 43.2354C4.38418 43.2015 3.37901 42.7723 2.46418 42.0834C2.18183 41.8688 2.35124 41.722 2.54324 41.5977C2.98371 41.3267 3.48065 41.2025 4.00018 41.2137C5.25383 41.2476 6.39453 41.6768 7.47876 42.2641C7.72723 42.3996 7.65947 42.49 7.47876 42.6142C6.89147 43.0208 6.23641 43.2128 5.63783 43.2354Z" fill="#183660"/>
<path d="M51.9097 44.7717C51.921 45.3025 51.7855 45.7995 51.616 46.2964C51.5144 46.5788 51.3789 46.6239 51.1078 46.4658C50.0349 45.7882 49.5153 44.6701 49.7073 43.3938C49.7525 43.1002 49.809 42.8178 49.8768 42.5242C49.9332 42.2418 50.08 42.1628 50.3624 42.2757C51.3337 42.6597 51.9097 43.5858 51.9097 44.7717Z" fill="#183660"/>
<path d="M12.6062 41.3937C12.5949 42.7377 11.9964 43.6864 10.8669 44.3076C10.4039 44.556 10.3022 44.5109 10.2232 44.0026C10.0538 42.9862 10.1667 42.0375 10.8556 41.2243C11.2058 40.8064 11.6575 40.5579 12.1545 40.3885C12.3803 40.3095 12.5272 40.3659 12.5498 40.6483C12.5611 40.908 12.6401 41.1678 12.6062 41.3937Z" fill="#183660"/>
<path d="M58.4155 43.1564C57.7153 43.179 57.0828 42.9983 56.5181 42.5578C56.3713 42.4449 56.3035 42.3545 56.5407 42.2303C57.6475 41.6543 58.7543 41.1009 60.0531 41.1799C60.4936 41.2025 60.8889 41.3268 61.2503 41.5639C61.4084 41.6656 61.5327 41.7898 61.3181 41.9592C60.663 42.4788 59.5223 43.2355 58.4155 43.1564Z" fill="#183660"/>
<path d="M2.6334 38.3217C3.57081 38.3895 4.46304 38.7735 5.32139 39.2817C5.47951 39.3721 5.62633 39.485 5.78445 39.5641C6.0781 39.7109 5.99904 39.8577 5.77316 39.9707C4.63245 40.5693 3.50304 40.5128 2.38493 39.9029C1.96704 39.677 1.59434 39.3721 1.23293 39.0559C0.995752 38.8413 1.07481 38.7509 1.2894 38.6267C1.68469 38.4121 2.11387 38.333 2.6334 38.3217Z" fill="#183660"/>
<path d="M51.8189 41.4959C51.8189 41.2587 51.8076 41.0215 51.8189 40.7843C51.8528 40.3439 51.9883 40.2648 52.3836 40.4342C53.4791 40.886 53.9309 41.7669 54.0213 42.8738C54.0551 43.2803 53.9761 43.6869 53.9083 44.0822C53.8518 44.421 53.6824 44.4662 53.4114 44.3194C52.474 43.7886 51.8415 43.0545 51.8076 41.9251C51.8076 41.7782 51.8076 41.6427 51.8189 41.4959C51.8076 41.4959 51.8076 41.4959 51.8189 41.4959Z" fill="#183660"/>
<path d="M8.21301 41.4507C8.22431 39.9373 9.0036 38.7853 10.3024 38.3674C10.7994 38.2093 10.8332 38.2206 10.822 38.7401C10.7994 40.1519 10.2798 41.2926 8.93584 41.9137C8.28078 42.2187 8.21301 42.1735 8.21301 41.4507Z" fill="#183660"/>
<path d="M61.2719 38.3108C61.701 38.2995 62.1189 38.3672 62.4803 38.6157C62.6159 38.7061 62.6836 38.7851 62.5707 38.9545C61.8366 40.0501 59.8036 40.6712 58.5839 40.1404C58.3806 40.0501 58.0869 39.9823 58.0643 39.7564C58.0418 39.5531 58.3354 39.4515 58.5048 39.3498C59.3632 38.8416 60.2215 38.3334 61.2719 38.3108Z" fill="#183660"/>
<path d="M53.502 38.8187C53.4681 38.0394 53.6036 38.1524 54.27 38.446C55.3994 38.943 55.7721 39.9256 55.8737 41.0663C55.885 41.1679 55.885 41.2696 55.8737 41.3599C55.8511 41.5745 55.9867 41.8681 55.7608 41.9811C55.5123 42.1053 55.2413 41.9246 55.0154 41.7778C53.9763 41.134 53.502 40.1514 53.502 38.8187Z" fill="#183660"/>
<path d="M1.5949 35.3408C2.80336 35.4425 3.76336 36.0524 4.61042 36.8542C4.8363 37.0688 4.55395 37.114 4.4523 37.1592C3.78595 37.4641 3.09701 37.5432 2.39678 37.3399C1.62878 37.1253 1.03019 36.6397 0.510662 36.0524C0.239603 35.7474 0.28478 35.6345 0.680073 35.4877C0.97372 35.386 1.26737 35.3183 1.5949 35.3408Z" fill="#183660"/>
<path d="M9.47812 36.3231C9.27483 37.7801 8.58589 39.0111 7.01601 39.4742C6.8466 39.5194 6.57554 39.6549 6.59813 39.2596C6.68848 37.8366 7.44519 36.4022 9.04895 36.0747C9.27483 36.0295 9.48942 35.973 9.47812 36.3231Z" fill="#183660"/>
<path d="M60.6515 37.3851C60.2788 37.4077 59.8948 37.3061 59.5221 37.1254C59.3075 37.0237 59.2398 36.9108 59.4544 36.7414C60.2224 36.0976 61.0243 35.499 62.052 35.3183C62.4925 35.2392 62.8878 35.3522 63.2831 35.5103C63.5089 35.6006 63.4864 35.7136 63.3734 35.9056C62.8426 36.7301 61.668 37.3851 60.6515 37.3851Z" fill="#183660"/>
<path d="M57.4661 39.2371C57.4886 39.5307 57.3079 39.5307 57.1159 39.463C56.0769 39.1015 55.3541 38.4126 55.0491 37.351C54.9588 37.0234 54.8684 36.6959 54.8684 36.3571C54.8684 36.0973 54.9362 36.007 55.2185 36.0634C56.3366 36.2667 57.2402 37.3171 57.3983 38.6159C57.4209 38.8192 57.4435 39.0225 57.4661 39.2371Z" fill="#183660"/>
<path d="M8.13325 33.658C8.32525 33.6467 8.47208 33.6692 8.39302 33.929C8.0542 35.2504 7.35396 36.2556 6.00996 36.7074C5.86314 36.7525 5.70502 36.7751 5.5582 36.7864C5.38879 36.7977 5.32102 36.7074 5.35491 36.5492C5.63726 35.273 6.37138 34.0081 7.88478 33.6805C7.95255 33.658 8.0429 33.6692 8.13325 33.658Z" fill="#183660"/>
<path d="M2.65606 34.3695C1.48147 34.4147 0.58924 33.6806 0.0584174 32.7658C-0.133582 32.4383 0.193947 32.3818 0.374652 32.3253C1.00712 32.122 1.60571 32.2688 2.17041 32.5738C2.74641 32.8787 3.23206 33.3079 3.69512 33.771C3.94359 34.0194 3.86453 34.1437 3.57088 34.234C3.27724 34.3131 2.9723 34.3583 2.65606 34.3695Z" fill="#183660"/>
<path d="M56.3362 33.6577C57.1268 33.7593 57.7254 34.2224 58.1546 34.9339C58.4256 35.3857 58.595 35.8713 58.6854 36.3908C58.7532 36.7861 58.6967 36.8426 58.3014 36.7297C57.2398 36.436 56.5621 35.7471 56.1668 34.7419C56.0765 34.516 56.02 34.2901 55.9635 34.0529C55.8619 33.6915 55.8958 33.6464 56.3362 33.6577Z" fill="#183660"/>
<path d="M61.1249 34.3463C60.899 34.3463 60.4021 34.3915 60.2779 34.0414C60.1762 33.7478 60.6054 33.4767 60.8651 33.2508C61.3847 32.799 61.9155 32.3586 62.6496 32.2682C62.7738 32.2569 62.8981 32.2343 63.0223 32.2343C63.3386 32.2343 63.7 32.2795 63.8581 32.5393C63.9823 32.7652 63.6774 32.9798 63.5306 33.1718C62.9546 33.9059 62.243 34.3802 61.1249 34.3463Z" fill="#183660"/>
<path d="M4.82346 33.9179C4.62017 33.9066 4.42817 33.9292 4.54111 33.6468C5.02676 32.4271 5.7044 31.4219 7.10487 31.1508C7.21781 31.1283 7.33075 31.1283 7.4437 31.117C7.75993 31.0831 7.78252 31.2638 7.68087 31.4784C7.28558 32.3141 6.82252 33.0934 5.97546 33.5678C5.60276 33.7824 5.20746 33.8501 4.82346 33.9179Z" fill="#183660"/>
<path d="M2.63319 31.2297C1.35696 31.3426 0.498604 30.4504 0.114605 29.5581C-0.0322185 29.2193 0.250134 29.1403 0.498604 29.1064C1.13107 29.0047 1.68449 29.2306 2.20401 29.5694C2.63319 29.8518 2.93813 30.2584 3.26566 30.6424C3.53672 30.9699 3.46895 31.1167 3.05107 31.1958C2.91554 31.2184 2.76872 31.2184 2.63319 31.2297Z" fill="#183660"/>
<path d="M57.0261 31.1168C57.8845 31.2297 58.5169 31.6928 58.9913 32.4043C59.2285 32.7545 59.4205 33.1272 59.5447 33.5337C59.6689 33.929 59.4657 33.9516 59.1946 33.8952C58.404 33.737 57.7489 33.3417 57.2972 32.6641C57.06 32.314 56.8793 31.9413 56.7212 31.5347C56.5857 31.2072 56.6195 31.0603 57.0261 31.1168Z" fill="#183660"/>
<path d="M61.6108 31.2177C61.2381 31.2177 60.8315 31.2742 60.6847 31.0257C60.5491 30.7885 60.8993 30.5401 61.0687 30.3481C61.6334 29.6704 62.2659 29.0605 63.2484 29.0944C63.9148 29.117 64.0277 29.3203 63.6663 29.885C63.1807 30.653 62.5821 31.2855 61.6108 31.2177Z" fill="#183660"/>
<path d="M4.62055 30.9584C4.05584 30.9697 3.99937 30.8907 4.21396 30.518C4.78996 29.5354 5.49019 28.6883 6.72125 28.5302C6.78902 28.5189 6.85678 28.5076 6.93584 28.5076C7.37631 28.485 7.44407 28.5754 7.22949 28.9481C6.70996 29.8516 6.03231 30.5857 4.99325 30.8907C4.83514 30.9245 4.66572 30.9471 4.62055 30.9584Z" fill="#183660"/>
<path d="M2.88166 28.0674C1.57154 28.1126 0.905189 27.322 0.57766 26.3055C0.487307 26.0345 0.645425 25.978 0.848719 25.9554C1.46989 25.8763 2.02331 26.0119 2.48636 26.4523C2.8026 26.7573 3.08495 27.0848 3.28824 27.4688C3.5593 27.9544 3.51413 28.0448 2.96072 28.0674C2.90425 28.0787 2.84777 28.0674 2.88166 28.0674Z" fill="#183660"/>
<path d="M59.5324 30.9471C58.6853 30.8567 58.019 30.292 57.4995 29.5127C57.3752 29.332 57.2736 29.1287 57.1719 28.9255C57.0138 28.5979 57.0816 28.485 57.4543 28.5076C58.1545 28.5415 58.7305 28.8464 59.1936 29.3433C59.5211 29.6935 59.7922 30.0887 59.9729 30.5405C60.131 30.9471 60.1084 30.9697 59.5324 30.9471Z" fill="#183660"/>
<path d="M3.37865 25.7634C3.35606 24.8034 3.76265 24.058 4.27088 23.3465C4.41771 23.1432 4.55324 23.1884 4.64359 23.3917C4.79041 23.7079 4.82429 24.0354 4.813 24.3856C4.76782 25.3681 4.429 26.2491 3.97724 27.1074C3.853 27.3446 3.79653 27.2317 3.70618 27.0848C3.43512 26.6557 3.35606 26.1926 3.37865 25.7634Z" fill="#183660"/>
<path d="M61.3857 28.0675C61.205 28.0449 60.8888 28.1579 60.7758 27.9094C60.6855 27.7061 60.9227 27.5028 61.0356 27.3221C61.3744 26.7574 61.7584 26.2379 62.4135 26.0233C62.7523 25.9103 63.2041 25.7748 63.4412 26.1023C63.6332 26.3734 63.3961 26.7574 63.2041 27.0285C62.7636 27.6383 62.2554 28.124 61.3857 28.0675Z" fill="#183660"/>
<path d="M4.49639 27.9768C4.32698 27.9543 4.15756 28.022 4.06721 27.8978C3.96557 27.7284 4.15756 27.6267 4.23662 27.5025C4.79003 26.6441 5.52415 26.023 6.56321 25.831C6.63097 25.8197 6.69874 25.7971 6.7665 25.7971C6.9585 25.7858 7.20697 25.7519 7.30862 25.9326C7.39897 26.0907 7.19568 26.2263 7.10532 26.3618C6.52933 27.1411 5.82909 27.751 4.84651 27.9317C4.71098 27.9543 4.58674 27.9656 4.49639 27.9768Z" fill="#183660"/>
<path d="M59.6003 24.4418C59.5778 24.1255 59.6229 23.7528 59.7698 23.4027C59.8488 23.2333 59.9392 23.1768 60.0747 23.3462C60.8201 24.2611 61.1815 25.9213 60.6168 26.9491C60.5603 27.0507 60.5152 27.1749 60.4022 27.1862C60.2667 27.1975 60.2441 27.0507 60.1989 26.9491C59.8375 26.2488 59.6003 25.2888 59.6003 24.4418Z" fill="#183660"/>
<path d="M59.8159 27.9764C58.8107 27.9538 57.5458 27.0503 57.1731 26.1129C57.094 25.9209 57.1844 25.887 57.3312 25.8644C57.7943 25.7628 58.2235 25.8983 58.63 26.1129C59.2625 26.4404 59.6917 26.9712 60.0644 27.5585C60.1322 27.6602 60.2451 27.7731 60.166 27.8973C60.0757 28.0216 59.9289 27.9651 59.8159 27.9764Z" fill="#183660"/>
<path d="M51.402 17.8688C51.402 22.6914 51.402 27.5252 51.4133 32.3478C51.4133 32.9916 51.5036 33.6353 51.5488 34.2791C51.6053 35.3633 51.5375 36.425 51.097 37.4302C50.9276 37.8029 50.6227 38.1191 50.3629 38.4579C48.3413 40.9539 45.9921 43.0885 43.3719 44.9407C41.2938 46.409 39.0801 47.64 36.7535 48.6678C35.3983 49.2664 34.0091 49.752 32.6086 50.2377C31.9874 50.4523 31.4905 50.1812 30.9936 49.9779C29.4914 49.3454 27.9893 48.6904 26.5211 47.9902C24.0929 46.8382 21.834 45.4377 19.7107 43.7887C17.5197 42.0833 15.5771 40.1408 13.8265 37.9723C13.1715 37.1591 12.8778 36.233 12.8891 35.2278C12.9569 31.8622 12.9569 28.4852 12.9569 25.1196C12.9569 17.914 12.9569 10.697 12.9569 3.49139C12.9569 2.88151 12.9569 2.89281 13.5893 2.83634C15.227 2.68951 16.8646 2.5201 18.5023 2.36198C19.8237 2.23775 21.1338 2.12481 22.4552 1.98928C24.1493 1.81987 25.8434 1.60528 27.5376 1.44716C29.2656 1.28905 30.971 0.905046 32.7103 0.995399C34.2575 1.07446 35.7935 1.28905 37.3295 1.44716C38.6622 1.58269 39.9949 1.70693 41.3277 1.84246C43.1234 2.02316 44.9079 2.21516 46.7036 2.39587C48.1267 2.54269 49.5611 2.70081 50.9841 2.82504C51.3455 2.85892 51.402 3.01704 51.402 3.33328C51.3907 8.16715 51.3907 13.0236 51.402 17.8688Z" fill="white"/>
<path d="M15.3498 21.9907C15.3498 21.2453 15.3385 20.4999 15.3385 19.7432C15.3385 15.3159 15.3385 10.8886 15.3385 6.46135C15.3385 5.85147 15.3385 5.82888 15.9145 5.78371C17.4279 5.63688 18.9413 5.52394 20.4547 5.37712C22.194 5.20771 23.9333 5.027 25.6613 4.8463C27.6039 4.643 29.5465 4.42841 31.4891 4.19124C32.6862 4.04441 33.8382 4.31547 35.0128 4.40583C36.6392 4.53006 38.2655 4.71077 39.8919 4.86888C41.4053 5.027 42.9187 5.19641 44.4208 5.34324C45.7083 5.47877 46.9959 5.603 48.2834 5.70465C49.0062 5.76112 49.0062 5.73853 49.0062 6.46135C49.0062 11.4646 49.0062 16.4792 49.0062 21.4825C49.0062 21.6519 48.9949 21.8213 48.9949 21.9907C48.8481 22.1714 48.6448 22.1376 48.4415 22.1376C47.1201 22.1376 45.7874 22.1376 44.466 22.1376C34.9789 22.1376 25.5032 22.1376 16.0161 22.1376C15.7903 22.1376 15.5305 22.2053 15.3498 21.9907Z" fill="#173664"/>
<path d="M15.3951 34.6745C15.2709 34.5728 15.3386 34.4486 15.3273 34.3357C15.4742 34.2679 15.6323 34.3018 15.7904 34.3018C20.116 34.3018 24.4417 34.3018 28.7673 34.3018C28.9141 34.3018 29.0723 34.3357 29.1965 34.2792C29.0948 34.3357 28.9706 34.3018 28.8464 34.3018C24.4643 34.3018 20.0821 34.3018 15.7 34.3018C15.5758 34.3018 15.4403 34.3357 15.3273 34.2679C15.3273 34.1888 15.316 34.0985 15.316 34.0194C15.4967 33.8274 15.7339 33.8839 15.9598 33.8839C19.9918 33.8839 24.0238 33.8839 28.0671 33.8839C28.3607 33.8839 28.6544 33.8613 28.948 33.7936C29.5805 33.5225 29.8967 33.7597 29.8854 34.4712C29.8741 34.8552 29.8854 35.194 30.2694 35.4877C30.5744 35.7248 30.8115 36.0298 31.2068 36.1879C31.6134 36.3573 31.7151 36.8204 31.8845 37.2044C31.9297 37.2383 31.9748 37.2834 32.0087 37.3173C32.212 37.4303 32.3701 37.3851 32.5057 37.1931C32.6299 37.0124 32.788 36.8543 33.0026 36.7752C33.0365 36.7639 33.0817 36.7639 33.1155 36.7639C33.5786 36.843 33.8384 36.4928 34.0642 36.2105C34.2788 35.9394 34.4144 35.5893 34.3918 35.194C34.3692 34.8552 34.5725 34.7084 35.1485 34.5616C39.5871 34.5503 44.0256 34.5616 48.4642 34.5616C48.6562 34.5616 48.8595 34.5277 49.0176 34.6971C49.0176 35.5667 48.532 36.1992 48.0238 36.8317C46.4087 38.8872 44.4887 40.6265 42.3993 42.1738C40.9424 43.258 39.3612 44.1728 37.7348 44.986C36.1649 45.7653 34.5499 46.4204 32.8897 46.9738C32.3588 47.1545 31.8506 47.1884 31.3311 46.9625C28.9367 45.9121 26.4972 44.9521 24.261 43.563C21.9683 42.1399 19.845 40.491 17.9814 38.5258C17.3038 37.803 16.6487 37.0688 16.0502 36.2895C15.7 35.8039 15.429 35.2844 15.3951 34.6745C15.508 34.6067 15.621 34.6293 15.7339 34.6293C20.1047 34.6293 24.4756 34.6293 28.8464 34.6293C28.9254 34.6293 29.0045 34.618 29.0384 34.6293C25.8647 34.6293 22.6346 34.6293 19.4158 34.6293C18.2186 34.6293 17.0214 34.6293 15.8243 34.6293C15.6775 34.6293 15.5306 34.5954 15.3951 34.6745Z" fill="#173662"/>
<path d="M48.9957 28.2366C48.9957 28.3269 48.9957 28.4173 48.9957 28.5076C48.8602 28.5754 48.7134 28.5415 48.5778 28.5415C43.8795 28.5415 39.1811 28.5415 34.4828 28.5415C34.3586 28.5415 34.2117 28.6093 34.1214 28.5076C34.223 28.5867 34.3811 28.5415 34.5167 28.5415C39.1924 28.5415 43.8569 28.5415 48.5327 28.5415C48.6908 28.5415 48.8376 28.5189 48.9957 28.5641C49.0409 28.7674 49.0296 28.9707 49.007 29.174C48.8828 29.2304 48.7585 29.2079 48.6343 29.2079C43.8569 29.2079 39.0795 29.2079 34.3021 29.2079C34.1891 29.2079 34.0649 29.2417 33.8955 29.1288C33.9068 29.1288 33.9858 29.1062 33.952 29.1514C33.9407 29.174 33.9407 29.1853 33.9633 29.1966C34.0988 29.2304 34.2343 29.2079 34.3811 29.2079C39.0908 29.2079 43.8004 29.2079 48.4988 29.2079C48.6682 29.2079 48.8376 29.1853 49.007 29.2304C49.0522 29.6596 49.0522 30.0888 49.007 30.5293C48.8941 30.5744 48.7811 30.5631 48.6682 30.5631C43.744 30.5631 38.831 30.5631 33.9068 30.5631C33.8164 30.5631 33.7148 30.5857 33.6131 30.5293C33.5567 30.518 33.647 30.4841 33.6131 30.5293C33.6019 30.5406 33.6131 30.5519 33.647 30.5519C33.7826 30.5744 33.9294 30.5631 34.0649 30.5631C38.8762 30.5631 43.6762 30.5631 48.4875 30.5631C48.6569 30.5631 48.8263 30.5406 48.9957 30.5857C48.9957 30.6761 48.9957 30.7777 48.9957 30.8681C48.8263 30.9133 48.6569 30.8907 48.4875 30.8907C43.5971 30.8907 38.6955 30.8907 33.8051 30.8907C38.7294 30.8907 43.6536 30.8907 48.5778 30.8907C48.7134 30.8907 48.8602 30.8681 48.9957 30.9133C48.9957 31.0036 48.9957 31.1053 49.007 31.1956C48.8602 31.2521 48.7021 31.2182 48.5439 31.2182C43.8795 31.2182 39.215 31.2182 34.5506 31.2182C34.4037 31.2182 34.2456 31.1843 34.1101 31.2408C34.2004 31.1956 34.3134 31.2182 34.4263 31.2182C39.1811 31.2182 43.9247 31.2182 48.6795 31.2182C48.7924 31.2182 48.9054 31.1956 49.0183 31.2521C49.0183 31.3424 49.0183 31.4441 49.0183 31.5344C48.8715 31.5909 48.7134 31.557 48.5552 31.557C43.9811 31.557 39.4183 31.557 34.8442 31.557C34.6974 31.557 34.5393 31.5231 34.4037 31.5796C34.4715 31.5344 34.5844 31.557 34.6748 31.557C39.3393 31.557 44.015 31.557 48.6795 31.557C48.7924 31.557 48.9054 31.5344 49.0183 31.5909C49.0974 31.7942 49.0974 31.9862 49.0296 32.1895C48.8828 32.2799 48.7247 32.2347 48.5778 32.2347C44.1167 32.2347 39.6555 32.2347 35.2056 32.2347C35.0588 32.2347 34.9007 32.1895 34.7313 32.2911C34.7087 32.3024 34.799 32.325 34.7651 32.2799C34.7538 32.2573 34.7651 32.2573 34.7877 32.246C34.9007 32.2234 35.0136 32.2347 35.1266 32.2347C39.6329 32.2347 44.128 32.2347 48.6343 32.2347C48.7698 32.2347 48.9167 32.1895 49.0409 32.2799C49.0635 32.3702 49.0748 32.4493 49.0974 32.5396C48.9505 32.5961 48.7924 32.5735 48.6343 32.5735C44.1618 32.5735 39.7007 32.5735 35.2282 32.5735C35.0701 32.5735 34.9233 32.5396 34.7877 32.5961C34.8894 32.5509 35.0136 32.5735 35.1378 32.5735C39.6668 32.5735 44.1844 32.5735 48.7134 32.5735C48.8376 32.5735 48.9731 32.5509 49.0861 32.6074C49.0861 32.6977 49.0861 32.7881 49.0974 32.8784C48.9618 32.9462 48.815 32.9123 48.6795 32.9123C44.0715 32.9123 39.4522 32.9123 34.8442 32.9123C39.4409 32.9123 44.0376 32.9123 48.6343 32.9123C48.7924 32.9123 48.9392 32.8784 49.0974 32.9462C49.0974 33.0366 49.0974 33.1269 49.0974 33.2173C48.9392 33.285 48.7585 33.2511 48.6004 33.2511C44.015 33.2511 39.4296 33.2511 34.8555 33.2511C39.5425 33.2511 44.2183 33.2511 48.9054 33.2511C48.9731 33.2511 49.0409 33.2511 49.1087 33.285C49.1087 33.3754 49.1087 33.4657 49.1087 33.5448C49.007 33.6126 48.8941 33.5787 48.7811 33.5787C44.2183 33.5787 39.6442 33.5787 35.0814 33.5787C35.0136 33.5787 34.9458 33.59 34.8894 33.5674C35.0249 33.59 35.183 33.5787 35.3298 33.5787C39.7684 33.5787 44.207 33.5787 48.6569 33.5787C48.815 33.5787 48.9618 33.5448 49.1199 33.6126C49.1199 33.7029 49.1199 33.7933 49.1199 33.8723C48.9731 33.9401 48.815 33.9062 48.6569 33.9062C44.0602 33.9062 39.4635 33.9062 34.8668 33.9062C39.4974 33.9062 44.1167 33.9062 48.7472 33.9062C48.8715 33.9062 49.007 33.8836 49.1199 33.9401C49.1199 34.0304 49.1087 34.1208 49.1087 34.2111C49.007 34.2676 48.8828 34.245 48.7811 34.245C44.2296 34.245 39.6781 34.245 35.1266 34.245C35.0136 34.245 34.9007 34.2676 34.8103 34.2224C34.9459 34.2789 35.0927 34.245 35.2508 34.245C39.7233 34.245 44.1844 34.245 48.6569 34.245C48.815 34.245 48.9618 34.2111 49.1199 34.2789C49.0974 34.3693 49.0748 34.4483 49.0522 34.5387C48.9054 34.629 48.7472 34.5838 48.6004 34.5838C44.2974 34.5838 39.983 34.5838 35.68 34.5838C35.3411 34.5838 35.0023 34.5726 34.6748 34.6742C34.223 34.629 34.3134 34.1773 34.1327 33.9401C34.0649 33.861 34.031 33.7142 34.0084 33.59C34.1101 32.7429 33.6131 32.1895 33.0484 31.6813C32.5854 31.2634 32.0207 30.9923 31.5237 30.6309C31.3995 30.5406 31.264 30.4502 31.151 30.3486C30.4734 29.7613 30.3943 29.1514 30.8913 28.3834C31.0381 28.1688 31.0494 28.0784 30.7331 27.9542C30.2475 27.7622 29.8861 27.9542 29.4908 28.1462C24.9167 28.1575 20.3539 28.1462 15.7911 28.1462C15.6555 28.1462 15.5087 28.1688 15.3732 28.101C15.3732 27.4799 15.3732 26.8587 15.3732 26.2375C15.5313 26.0568 15.7459 26.1246 15.9266 26.1246C20.0715 26.1246 24.2277 26.1246 28.3727 26.1246C35.0588 26.1246 41.7449 26.1246 48.4423 26.1246C48.6456 26.1246 48.8715 26.0568 49.0409 26.2375C49.0409 26.8587 49.0409 27.4799 49.0409 28.101C44.1505 28.1123 39.2602 28.101 34.4376 28.1123C34.5054 28.0897 34.6522 28.1123 34.7877 28.1123C39.3393 28.1123 43.9021 28.1123 48.4536 28.1123C48.6117 28.1575 48.815 28.1123 48.9957 28.2366Z" fill="#173662"/>
<path d="M49.0071 22.2954C49.0071 23.549 49.0071 24.8027 49.0071 26.045C48.8377 26.2258 48.6118 26.158 48.4085 26.158C43.2923 26.158 38.1648 26.158 33.0486 26.158C27.345 26.158 21.6528 26.158 15.9493 26.158C15.746 26.158 15.5201 26.2258 15.3507 26.045C15.3507 24.7914 15.3507 23.5378 15.3507 22.2954C15.4524 22.1825 15.5766 22.1373 15.7234 22.1486C15.8251 22.1486 15.9154 22.1486 16.0171 22.1486C26.7916 22.1486 37.5662 22.1486 48.3295 22.1486C48.5667 22.1486 48.8151 22.0808 49.0071 22.2954Z" fill="#1A365F"/>
<path d="M29.6264 28.0673C29.8523 27.7398 30.0895 27.5365 30.4848 27.8414C30.5751 27.9092 30.7219 27.8979 30.8462 27.9092C31.0495 27.9205 31.0834 28.0899 31.1398 28.2254C31.2189 28.3835 31.0608 28.3948 30.9704 28.4513C30.6994 28.7336 30.3492 28.9369 30.1346 29.2645C29.7394 29.8856 29.841 30.5294 30.4283 30.9699C30.8349 31.2748 31.3092 31.4668 31.7836 31.6475C32.2353 31.8169 32.6645 32.0089 33.0824 32.2574C33.6019 32.5623 33.9972 32.9576 34.0989 33.5788C34.1779 33.9741 34.3473 34.3242 34.5619 34.6517C34.6975 34.6292 34.8217 34.584 34.9459 34.6856C34.3361 34.9002 34.4942 35.4988 34.3699 35.928C34.2231 36.4475 33.7713 36.6056 33.4551 36.9106C33.3535 37.0122 33.1953 36.8654 33.0485 36.8541C33.1163 36.6734 33.2179 36.5266 33.3648 36.4136C34.5506 35.4762 34.1215 34.0645 33.2066 33.4433C32.4951 32.9576 31.761 32.5059 30.9365 32.2348C30.5525 32.0993 30.1798 31.9186 29.8523 31.6814C29.5699 31.4781 29.3441 31.2296 29.265 30.9247C29.2763 31.399 29.1295 31.9073 29.2537 32.4268C29.4796 33.3642 29.9765 34.0306 30.9026 34.3468C31.4786 34.5388 32.0434 34.7647 32.5516 35.1035C32.6984 35.1939 32.8339 35.2955 32.9469 35.4197C33.3648 35.8602 33.3873 36.2668 33.0259 36.8654C32.8565 36.9783 32.6984 37.1026 32.5855 37.2833C32.4273 37.5317 32.1676 37.6447 31.8965 37.3962C31.9304 37.2155 32.0772 37.1252 32.2128 37.0122C32.7775 36.5379 32.7436 36.0861 32.0772 35.736C31.4674 35.4084 30.8123 35.1939 30.1685 34.8663C30.2815 35.3407 30.5977 35.5327 30.9365 35.7021C31.3657 35.928 31.7836 36.1877 31.9643 36.6621C32.0546 36.8993 32.145 37.159 31.7949 37.2946C31.5577 37.351 31.6368 37.1364 31.6142 37.0461C31.4899 36.5717 31.2528 36.2442 30.7332 36.1764C30.4735 36.1426 29.7506 35.16 29.7394 34.8889C29.7281 34.6405 29.7168 34.3807 29.6942 34.1322C29.649 33.8047 29.3892 33.703 29.1069 33.9063C28.9714 33.9854 28.8358 33.9515 28.689 33.9515C24.3634 33.9515 20.0377 33.9515 15.7121 33.9515C15.5766 33.9515 15.4297 33.9967 15.3055 33.9063C15.2603 33.8273 15.2603 33.7482 15.3055 33.6579C15.4184 33.5788 15.554 33.6127 15.6782 33.6127C19.9361 33.6127 24.1939 33.6127 28.4518 33.6127C28.5422 33.6127 28.6551 33.5788 28.7003 33.6127C28.6325 33.6127 28.5196 33.6127 28.4066 33.6127C24.1601 33.6127 19.9248 33.6127 15.6782 33.6127C15.5427 33.6127 15.3958 33.6353 15.2603 33.5901C15.2603 33.4885 15.2603 33.3981 15.249 33.2965C15.3394 33.2513 15.441 33.2626 15.5427 33.2626C19.9135 33.2626 24.2843 33.2626 28.6664 33.2626C28.7455 33.2626 28.8358 33.2513 28.8923 33.2739C28.7681 33.24 28.6099 33.2626 28.4518 33.2626C24.2052 33.2626 19.9587 33.2626 15.7121 33.2626C15.554 33.2626 15.4071 33.2852 15.249 33.24C15.2716 33.1496 15.2942 33.0706 15.3055 32.9802C15.4071 32.9012 15.5201 32.935 15.633 32.935C19.9474 32.935 24.2617 32.935 28.5761 32.935C28.6551 32.935 28.7455 32.9237 28.8019 32.9463C28.6777 32.9125 28.5196 32.935 28.3615 32.935C24.1601 32.935 19.9587 32.935 15.7573 32.935C15.6104 32.935 15.4523 32.9802 15.3055 32.8899C15.2603 32.8108 15.2603 32.7317 15.3055 32.6527C15.4071 32.5736 15.5201 32.6075 15.633 32.6075C19.8909 32.6075 24.1601 32.6075 28.4179 32.6075C28.497 32.6075 28.5874 32.5736 28.6551 32.6527C28.6212 32.6979 28.7116 32.664 28.6551 32.6527C28.6664 32.6414 28.6551 32.6301 28.6212 32.6188C28.4857 32.5849 28.3389 32.6075 28.2034 32.6075C24.0584 32.6075 19.9022 32.6075 15.7573 32.6075C15.6104 32.6075 15.441 32.6527 15.3055 32.5623C15.2603 32.4833 15.2716 32.3929 15.3055 32.3139C15.4523 32.2348 15.6104 32.28 15.7686 32.28C19.9022 32.28 24.0358 32.28 28.1695 32.28C28.3163 32.28 28.4744 32.3139 28.6099 32.2574C28.5083 32.3139 28.3841 32.28 28.2598 32.28C24.0697 32.28 19.8796 32.28 15.6895 32.28C15.5653 32.28 15.4297 32.3139 15.3168 32.2348C15.3281 32.1219 15.2038 32.0089 15.3281 31.9073C15.4749 31.975 15.633 31.9412 15.7911 31.9412C19.8231 31.9412 23.8551 31.9412 27.8871 31.9412C28.0339 31.9412 28.1695 31.9412 28.2259 31.9412C26.8707 31.9412 25.4363 31.9412 23.9907 31.9412C21.2575 31.9412 18.5243 31.9412 15.7911 31.9412C15.633 31.9412 15.4862 31.975 15.3281 31.9073C15.3281 31.8169 15.3281 31.7266 15.3281 31.6362C15.4297 31.5798 15.554 31.6023 15.6669 31.6023C19.9022 31.6023 24.1262 31.6023 28.3615 31.6023C28.4631 31.6023 28.5648 31.591 28.6325 31.6249C28.497 31.5797 28.3389 31.6023 28.1921 31.6023C24.0584 31.6023 19.9248 31.6023 15.7911 31.6023C15.633 31.6023 15.4862 31.6362 15.3281 31.5685C15.3281 31.4781 15.3281 31.3765 15.3281 31.2861C15.4749 31.2409 15.633 31.2635 15.7911 31.2635C19.9248 31.2635 24.0584 31.2635 28.1921 31.2635C28.3502 31.2635 28.497 31.2861 28.6325 31.2409C28.5422 31.2748 28.4292 31.2635 28.3163 31.2635C24.1036 31.2635 19.8796 31.2635 15.6669 31.2635C15.554 31.2635 15.441 31.2861 15.3281 31.2409C15.3281 31.1506 15.3281 31.0489 15.3281 30.9586C15.4975 30.9134 15.6669 30.936 15.8363 30.936C20.1394 30.936 24.4311 30.936 28.7342 30.936C24.3521 30.936 19.97 30.936 15.5878 30.936C15.5088 30.936 15.4184 30.9473 15.3394 30.9134C15.3394 30.8118 15.3394 30.7214 15.3507 30.631C15.4975 30.5859 15.6556 30.6085 15.8137 30.6085C19.9925 30.6085 24.1601 30.6085 28.3389 30.6085C28.497 30.6085 28.6438 30.631 28.7794 30.5859C28.7003 30.631 28.5986 30.6085 28.5083 30.6085C24.2391 30.6085 19.9587 30.6085 15.6895 30.6085C15.5766 30.6085 15.4636 30.631 15.3507 30.5859C15.3055 30.0438 15.3055 29.4903 15.3507 28.9482C15.4975 28.903 15.6556 28.9256 15.8137 28.9256C20.2975 28.9256 24.7812 28.9256 29.265 28.9256C29.4118 28.9256 29.5699 28.9595 29.7394 28.8918C29.7732 28.8805 29.6829 28.8466 29.7168 28.8918C29.7281 28.903 29.7168 28.9143 29.6829 28.9143C29.5699 28.9369 29.457 28.9256 29.3441 28.9256C24.8038 28.9256 20.2636 28.9256 15.7234 28.9256C15.5991 28.9256 15.4636 28.9482 15.3507 28.8918C15.3507 28.8014 15.3507 28.6998 15.3507 28.6094C15.4975 28.5642 15.6556 28.5868 15.8137 28.5868C20.4217 28.5868 25.041 28.5868 29.649 28.5868C29.7958 28.5868 29.9426 28.6094 30.0895 28.5529C30.1459 28.519 30.0556 28.4965 30.0895 28.5416C30.1008 28.5642 30.1008 28.5755 30.0669 28.5755C29.9539 28.6094 29.841 28.5868 29.7394 28.5868C25.0749 28.5868 20.3991 28.5868 15.7347 28.5868C15.6104 28.5868 15.4749 28.6094 15.362 28.5529C15.362 28.4626 15.362 28.3722 15.362 28.2819C15.5427 28.1689 15.746 28.2028 15.938 28.2028C20.6702 28.2028 25.4024 28.2028 30.1121 28.2028C29.9539 28.135 29.7732 28.2028 29.6264 28.0673Z" fill="#1C355C"/>
<path d="M49.0062 22.2962C48.7916 22.3074 48.5883 22.3187 48.3738 22.3187C37.5766 22.3187 26.7794 22.3187 15.971 22.3187C15.7564 22.3187 15.5531 22.3074 15.3385 22.2962C15.3385 22.1945 15.3385 22.0929 15.3498 21.9912C26.5648 21.9912 37.7799 21.9912 48.9949 21.9912C48.9949 22.0929 48.9949 22.1945 49.0062 22.2962Z" fill="#F2F5F6"/>
<path d="M15.3385 26.0455C15.5079 26.0342 15.6773 26.0116 15.8467 26.0116C26.723 26.0116 37.5992 26.0116 48.4641 26.0116C48.6448 26.0116 48.8255 26.0342 49.0062 26.0455C49.0062 26.1246 49.0062 26.2036 49.0062 26.2827C48.7916 26.2827 48.5883 26.294 48.3737 26.294C37.4862 26.294 26.5987 26.294 15.7225 26.294C15.5983 26.294 15.474 26.2827 15.3385 26.2827C15.3385 26.2036 15.3385 26.1246 15.3385 26.0455Z" fill="#FAFDFE"/>
<path d="M29.6257 28.0669C30.0435 28.1121 30.484 27.9991 30.8793 28.2363C30.6195 28.2363 30.3485 28.2363 30.0887 28.2363C25.3 28.2363 20.5113 28.2363 15.7113 28.2363C15.5871 28.2363 15.4629 28.225 15.3273 28.225C15.316 28.2024 15.316 28.1685 15.316 28.146C15.5193 28.033 15.7339 28.0782 15.9372 28.0782C20.5113 28.0782 25.0741 28.0669 29.6257 28.0669Z" fill="#5D638F"/>
<path d="M48.9948 28.2367C45.9228 28.2367 42.8508 28.248 39.7788 28.248C38.0056 28.248 36.2212 28.248 34.448 28.248C34.3012 28.248 34.1431 28.3045 33.9285 28.1238C34.1995 28.1125 34.3915 28.0899 34.5948 28.0899C39.2367 28.0899 43.8673 28.0899 48.5091 28.0899C48.6786 28.0899 48.848 28.0673 49.0061 28.1576C49.0061 28.1802 49.0061 28.2028 48.9948 28.2367Z" fill="#5E638F"/>
<path d="M48.9961 30.5967C47.4488 30.5967 45.8902 30.608 44.3429 30.608C40.9208 30.608 37.4987 30.608 34.0653 30.608C33.9072 30.608 33.7604 30.608 33.5684 30.608C33.67 30.4838 33.7717 30.529 33.8507 30.529C38.8201 30.529 43.8008 30.529 48.7702 30.529C48.838 30.529 48.9057 30.5403 48.9848 30.5403C49.0074 30.5516 49.0074 30.5742 48.9961 30.5967Z" fill="#879FBD"/>
<path d="M48.9945 29.2419C48.1474 29.2419 47.3003 29.2532 46.4533 29.2532C42.3987 29.2532 38.3554 29.2532 34.3008 29.2532C34.154 29.2532 33.9959 29.2532 33.8152 29.2532C33.9055 29.1064 34.0072 29.1516 34.0975 29.1516C38.9314 29.1516 43.7766 29.1516 48.6105 29.1516C48.7347 29.1516 48.8589 29.1629 48.9945 29.1742C49.0058 29.1968 49.0058 29.2193 48.9945 29.2419Z" fill="#A1ACC9"/>
<path d="M48.9954 30.9362C48.7469 30.9475 48.4871 30.9475 48.2387 30.9475C43.6533 30.9475 39.0792 30.9475 34.4938 30.9475C34.2792 30.9475 34.0759 30.9475 33.8048 30.9475C33.9629 30.8232 34.0872 30.8684 34.1888 30.8684C39.034 30.8684 43.8904 30.8684 48.7356 30.8684C48.8147 30.8684 48.905 30.8797 48.9841 30.8797C49.0067 30.9023 49.0067 30.9136 48.9954 30.9362Z" fill="#909ABD"/>
<path d="M48.9951 28.5635C44.7824 28.5635 40.5584 28.5748 36.3457 28.5748C35.589 28.5748 34.8323 28.5748 34.0417 28.5748C34.1321 28.428 34.2337 28.4731 34.3241 28.4731C39.1015 28.4731 43.8902 28.4731 48.6676 28.4731C48.7805 28.4731 48.8935 28.4844 49.0064 28.4957C49.0064 28.5183 49.0064 28.5409 48.9951 28.5635Z" fill="#8C9CC0"/>
<path d="M49.0072 31.275C47.6519 31.275 46.2966 31.2863 44.9413 31.2863C41.474 31.2863 37.9954 31.2863 34.5281 31.2863C34.3926 31.2863 34.2458 31.2863 34.0876 31.2863C34.1554 31.162 34.2458 31.2072 34.3135 31.2072C39.1361 31.2072 43.9587 31.2072 48.7926 31.2072C48.8603 31.2072 48.9281 31.2185 49.0072 31.2185C49.0184 31.2411 49.0184 31.2524 49.0072 31.275Z" fill="#A6B6D8"/>
<path d="M15.3382 28.5075C15.6318 28.4962 15.9255 28.4849 16.2191 28.4849C20.7029 28.4849 25.1867 28.4849 29.6704 28.4849C29.8172 28.4849 29.9754 28.4397 30.1222 28.53C30.0205 28.6204 29.9076 28.5865 29.7946 28.5865C25.0963 28.5865 20.4093 28.5865 15.7109 28.5865C15.5867 28.5865 15.4624 28.5752 15.3269 28.5752C15.3382 28.5413 15.3382 28.5187 15.3382 28.5075Z" fill="#8C9CC0"/>
<path d="M49.006 31.6135C44.7481 31.6135 40.4903 31.6248 36.2437 31.6248C35.6112 31.6248 34.9787 31.6248 34.3124 31.6248C34.4479 31.5006 34.5496 31.5457 34.6399 31.5457C39.3608 31.5457 44.0818 31.5457 48.8027 31.5457C48.8705 31.5457 48.9382 31.557 49.0173 31.557C49.0173 31.5796 49.0173 31.5909 49.006 31.6135Z" fill="#A3B6DE"/>
<path d="M34.9688 34.6857C34.8446 34.6744 34.7091 34.6632 34.5848 34.6519C34.7317 34.5276 34.9124 34.5841 35.0705 34.5841C39.7237 34.5841 44.3655 34.5728 49.0187 34.5728C49.0752 34.6067 49.0752 34.6406 49.0187 34.6744C44.3316 34.6857 39.6446 34.6857 34.9688 34.6857Z" fill="#849DC6"/>
<path d="M49.0294 32.3142C44.3876 32.3142 39.757 32.3029 35.1151 32.3029C34.9796 32.3029 34.8328 32.3481 34.6182 32.2126C39.4859 32.2126 44.252 32.2126 49.0294 32.2126C49.0859 32.2464 49.0859 32.2803 49.0294 32.3142Z" fill="#8A9AB7"/>
<path d="M15.3385 28.8464C15.587 28.8351 15.8467 28.8239 16.0952 28.8239C20.4773 28.8239 24.8594 28.8239 29.2528 28.8239C29.4222 28.8239 29.5917 28.7787 29.7498 28.869C29.6594 28.9594 29.5578 28.9142 29.4674 28.9142C24.8481 28.9142 20.2176 28.9142 15.5983 28.9142C15.5192 28.9142 15.4289 28.9029 15.3498 28.9029C15.3385 28.8803 15.3385 28.8577 15.3385 28.8464Z" fill="#9EAED0"/>
<path d="M49.0856 32.6301C44.342 32.6301 39.5985 32.6301 34.8663 32.6414C34.8437 32.6414 34.8098 32.6188 34.7646 32.6075C34.8098 32.5849 34.8324 32.5623 34.8663 32.5623C39.6098 32.5623 44.3533 32.5623 49.0856 32.5736C49.0969 32.5849 49.0969 32.6075 49.0856 32.6301Z" fill="#B0C5E4"/>
<path d="M49.0859 34.3239C44.3649 34.3239 39.6327 34.3352 34.9118 34.3352C34.8666 34.3352 34.8327 34.3239 34.7988 34.2561C39.5649 34.2561 44.331 34.2561 49.0972 34.2561C49.0972 34.2787 49.0972 34.3013 49.0859 34.3239Z" fill="#B6C6E8"/>
<path d="M49.0973 33.3186C44.3538 33.3186 39.6103 33.3186 34.8555 33.3186C34.8555 33.296 34.8555 33.2734 34.8555 33.2509C39.599 33.2509 44.3425 33.2509 49.0973 33.2509C49.1086 33.2621 49.1086 33.2847 49.0973 33.3186Z" fill="#B7C7E2"/>
<path d="M49.0973 33.9964C44.3538 33.9964 39.599 33.9964 34.8555 33.9964C34.8555 33.9738 34.8555 33.9512 34.8555 33.9174C39.599 33.9174 44.3538 33.9174 49.0973 33.9174C49.1086 33.9399 49.1086 33.9625 49.0973 33.9964Z" fill="#B3C8E7"/>
<path d="M49.0973 33.6577C44.3538 33.6577 39.599 33.6577 34.8555 33.6577C34.8555 33.6351 34.8555 33.6012 34.8555 33.5786C39.599 33.5786 44.3538 33.5786 49.0973 33.5786C49.1199 33.6012 49.1199 33.6238 49.0973 33.6577Z" fill="#B7C7E2"/>
<path d="M49.0973 32.9799C44.3538 32.9799 39.599 32.9799 34.8555 32.9799C34.8555 32.9573 34.8555 32.9347 34.8555 32.9008C39.599 32.9008 44.3538 32.9008 49.0973 32.9008C49.1086 32.9234 49.1086 32.946 49.0973 32.9799Z" fill="#B3C7E8"/>
<path d="M15.3166 33.9061C19.9133 33.9061 24.5213 33.9061 29.118 33.9061C29.0164 34.0755 28.847 33.9852 28.7114 33.9852C24.2503 33.9965 19.7778 33.9965 15.3166 33.9965C15.2602 33.9739 15.2602 33.94 15.3166 33.9061Z" fill="#B3C8E7"/>
<path d="M15.3394 34.2561C19.9587 34.2561 24.5893 34.2561 29.2086 34.2561C29.2086 34.2787 29.2086 34.3013 29.2086 34.3352C24.5893 34.3352 19.9587 34.3352 15.3394 34.3352C15.3281 34.3013 15.3281 34.2787 15.3394 34.2561Z" fill="#B6C6E8"/>
<path d="M15.2599 33.5897C15.4858 33.5784 15.7117 33.5671 15.9375 33.5671C20.1389 33.5671 24.3403 33.5671 28.553 33.5671C28.6886 33.5671 28.8241 33.5671 28.9709 33.5671C28.9709 33.601 28.9709 33.6236 28.9709 33.6575C24.4194 33.6575 19.8792 33.6575 15.3277 33.6575C15.2938 33.6462 15.2825 33.6236 15.2599 33.5897Z" fill="#B6C7E2"/>
<path d="M15.2487 33.2509C17.4737 33.2509 19.6986 33.2396 21.9235 33.2396C24.1033 33.2396 26.2944 33.2396 28.4741 33.2396C28.5983 33.2396 28.7226 33.2396 28.8581 33.2396C28.8129 33.3526 28.7339 33.3187 28.6774 33.3187C24.284 33.3187 19.8793 33.3187 15.4859 33.3187C15.4068 33.3187 15.3165 33.3074 15.2374 33.3074C15.2487 33.2848 15.2487 33.2622 15.2487 33.2509Z" fill="#B6C7E2"/>
<path d="M15.3166 32.8894C19.8004 32.8894 24.2842 32.8894 28.7679 32.8894C28.7679 32.9233 28.7679 32.9572 28.7679 32.9911C24.2842 32.9911 19.8004 32.9911 15.3166 32.9911C15.2602 32.9572 15.2602 32.9233 15.3166 32.8894Z" fill="#B3C7E8"/>
<path d="M15.3385 30.5403C18.5121 30.5403 21.6858 30.5291 24.8594 30.5291C26.1582 30.5291 27.4458 30.5291 28.7785 30.5291C28.6994 30.6533 28.6204 30.6081 28.5526 30.6081C24.2495 30.6081 19.9465 30.6081 15.6434 30.6081C15.5418 30.6081 15.4514 30.5968 15.3498 30.5968C15.3385 30.5742 15.3385 30.5629 15.3385 30.5403Z" fill="#879EC2"/>
<path d="M15.3166 32.5506C19.7778 32.5506 24.239 32.5506 28.7114 32.5506C28.7114 32.5845 28.7114 32.6184 28.7114 32.6523C24.2503 32.6523 19.7891 32.6523 15.3166 32.6523C15.2602 32.6184 15.2602 32.5845 15.3166 32.5506Z" fill="#B0C5E4"/>
<path d="M15.3392 30.8794C16.3105 30.8794 17.2818 30.8681 18.2644 30.8681C21.6074 30.8681 24.9505 30.8681 28.2935 30.8681C28.4291 30.8681 28.5759 30.8342 28.7114 30.9133C28.6098 30.981 28.4855 30.9584 28.3839 30.9584C24.1486 30.9584 19.9133 30.9584 15.6893 30.9584C15.5764 30.9584 15.4634 30.9471 15.3505 30.9359C15.3279 30.9133 15.3279 30.902 15.3392 30.8794Z" fill="#A2AEC8"/>
<path d="M15.3394 31.2181C16.8867 31.2181 18.4453 31.2068 19.9926 31.2068C22.7257 31.2068 25.4589 31.2068 28.2034 31.2068C28.3389 31.2068 28.4857 31.2068 28.6551 31.2068C28.5535 31.3423 28.4519 31.2972 28.3728 31.2972C24.081 31.2972 19.8006 31.2972 15.5088 31.2972C15.4523 31.2972 15.3959 31.2859 15.3394 31.2859C15.3281 31.252 15.3281 31.2407 15.3394 31.2181Z" fill="#A4B4D8"/>
<path d="M15.3269 31.5571C19.7203 31.5571 24.125 31.5571 28.5184 31.5458C28.541 31.5458 28.5749 31.5571 28.5975 31.6136C24.1702 31.6136 19.7542 31.6136 15.3269 31.6136C15.3269 31.591 15.3269 31.5797 15.3269 31.5571Z" fill="#A3B6DE"/>
<path d="M15.3269 32.2236C19.7542 32.2236 24.1815 32.2236 28.6088 32.2236C28.6088 32.2462 28.6088 32.28 28.6088 32.3026C24.1815 32.3026 19.7542 32.3026 15.3269 32.3026C15.3269 32.28 15.3269 32.2462 15.3269 32.2236Z" fill="#8A9AB7"/>
<path d="M24.4647 10.7083C24.4873 10.5502 24.4873 10.5502 24.6115 10.4938C25.9781 9.8387 27.3447 9.17235 28.7113 8.51729C29.6826 8.04294 30.6652 7.59117 31.6365 7.10553C31.9188 6.9587 32.1447 6.98129 32.4158 7.11682C34.7762 8.25753 37.1367 9.37564 39.4972 10.5051C39.5311 10.5276 39.5762 10.5276 39.6214 10.5389C39.6327 10.6406 39.5649 10.6971 39.4746 10.7196C39.3955 10.7535 39.3052 10.7422 39.2261 10.7422C34.46 10.8552 29.7052 10.8326 24.9391 10.8213C24.781 10.8326 24.6003 10.8665 24.4647 10.7083Z" fill="#FDFEFD"/>
<path d="M39.7906 11.8943C34.7647 11.8943 29.7388 11.8943 24.7016 11.9056C24.3176 11.9056 24.1595 11.8039 24.2273 11.4199C24.2612 11.2392 24.1821 11.0472 24.295 10.8891C24.487 10.7762 24.7016 10.7988 24.9162 10.7988C27.5026 10.7988 30.1002 10.7875 32.6866 10.7988C34.8211 10.8101 36.967 10.731 39.1016 10.7536C39.847 10.7536 40.0955 11.1828 39.7906 11.8943Z" fill="#FAFDFC"/>
<path d="M32.0096 19.3256C29.5587 19.3256 27.0966 19.3143 24.6458 19.3368C24.1376 19.3481 24.2505 19.0545 24.2279 18.7721C24.194 18.4559 24.2505 18.3091 24.6458 18.3091C29.5587 18.3204 34.4717 18.3204 39.3733 18.3091C39.7912 18.3091 39.8138 18.4672 39.8025 18.7947C39.7912 19.0997 39.859 19.3481 39.3733 19.3368C36.9225 19.3143 34.4717 19.3256 32.0096 19.3256Z" fill="#FBFCFC"/>
<path d="M32.0092 20.7935C29.3777 20.7935 26.7348 20.7822 24.1033 20.8048C23.7645 20.8048 23.6628 20.7031 23.6967 20.3869C23.7306 20.1271 23.5725 19.8222 24.092 19.8222C29.4115 19.8448 34.7198 19.8335 40.0393 19.8335C40.299 19.8335 40.3781 19.9125 40.3781 20.1723C40.3555 20.9516 40.4459 20.8048 39.7569 20.8048C37.1706 20.7935 34.5842 20.7935 32.0092 20.7935Z" fill="#FCFDFC"/>
<path d="M37.0234 15.1129C37.0234 14.6498 37.0347 14.1868 37.0234 13.7124C37.0234 13.4865 37.0685 13.3849 37.317 13.3849C38.1302 13.3623 38.1302 13.351 38.1302 14.1642C38.1302 14.9548 38.1189 15.7454 38.1302 16.536C38.1302 16.7731 38.0624 16.8409 37.8252 16.8522C37.0234 16.8635 37.0234 16.8748 37.0234 16.0503C37.0121 15.7341 37.0121 15.4178 37.0234 15.1129Z" fill="#FAFBFC"/>
<path d="M32.5956 15.1356C32.5956 15.61 32.5843 16.0956 32.5956 16.57C32.5956 16.762 32.5504 16.8297 32.3358 16.841C31.4662 16.8749 31.4662 16.8862 31.4662 15.994C31.4662 15.2485 31.4775 14.5031 31.4549 13.7577C31.4436 13.4641 31.534 13.3737 31.8276 13.385C32.5843 13.3963 32.5843 13.385 32.5843 14.1191C32.5956 14.458 32.5956 14.7968 32.5956 15.1356Z" fill="#FBFEFD"/>
<path d="M27.0162 15.1126C27.0162 15.5869 27.005 16.0726 27.0162 16.5469C27.0275 16.7728 26.9485 16.8293 26.7339 16.8293C25.9094 16.8406 25.9094 16.8519 25.9094 16.0274C25.9094 15.2481 25.9207 14.4801 25.8981 13.7008C25.8868 13.4411 25.9659 13.3733 26.2257 13.3733C27.005 13.3733 27.005 13.362 27.005 14.13C27.0162 14.4688 27.0162 14.7964 27.0162 15.1126Z" fill="#FDFDFD"/>
<path d="M39.7907 11.8944C39.8246 10.9005 39.8246 10.9005 38.8307 10.9005C34.1097 10.9005 29.4001 10.9005 24.6792 10.9005C24.5549 10.9005 24.4307 10.8892 24.2952 10.8892C24.3516 10.8327 24.4081 10.7762 24.4646 10.7198C24.6905 10.7085 24.9163 10.6972 25.1422 10.6972C28.5982 10.6972 32.0429 10.6972 35.4989 10.6972C36.7639 10.6972 38.0288 10.6746 39.305 10.652C39.4067 10.652 39.5648 10.7424 39.6213 10.5504C39.7794 10.5504 39.8246 10.652 39.8471 10.7875C39.8923 11.036 39.8697 11.3071 40.0053 11.5442C40.0956 11.7024 39.9262 11.8153 39.7907 11.8944Z" fill="#293256"/>
<path d="M26.4185 12.8879C26.1474 12.8879 25.8876 12.8766 25.6166 12.8879C25.4133 12.8992 25.3342 12.7975 25.3342 12.6168C25.3342 12.4361 25.4472 12.391 25.6166 12.391C26.1813 12.4023 26.746 12.391 27.3107 12.391C27.4688 12.391 27.5818 12.4135 27.5818 12.6168C27.5818 12.8088 27.5027 12.8992 27.3107 12.8992C27.0058 12.8879 26.7121 12.8879 26.4185 12.8879Z" fill="#F2F6F9"/>
<path d="M26.4641 17.8347C26.1704 17.8347 25.8768 17.8234 25.5718 17.8347C25.3798 17.8347 25.3234 17.7331 25.3234 17.5749C25.3234 17.4281 25.3798 17.3378 25.5492 17.3378C26.1365 17.3378 26.7351 17.3378 27.3224 17.3378C27.5031 17.3378 27.5709 17.4281 27.5709 17.5975C27.5709 17.7895 27.4692 17.8347 27.2998 17.8347C27.0288 17.8347 26.7464 17.8347 26.4641 17.8347Z" fill="#F2F6F9"/>
<path d="M37.5882 12.391C37.8705 12.391 38.1529 12.391 38.4352 12.391C38.5933 12.391 38.7063 12.4249 38.695 12.6169C38.695 12.7976 38.6385 12.8767 38.4578 12.8767C37.8705 12.8767 37.2719 12.8767 36.6846 12.8767C36.5265 12.8767 36.47 12.7976 36.4587 12.6395C36.4587 12.4701 36.5152 12.3797 36.6959 12.3797C37.0009 12.4023 37.2945 12.391 37.5882 12.391Z" fill="#F2F7F9"/>
<path d="M32.0095 17.3378C32.3031 17.3378 32.5968 17.3378 32.9017 17.3378C33.0598 17.3378 33.1389 17.3942 33.1389 17.5637C33.1389 17.7218 33.1276 17.846 32.9243 17.846C32.337 17.846 31.7384 17.846 31.1511 17.846C30.9591 17.846 30.9139 17.7444 30.9139 17.5749C30.9139 17.3717 31.0156 17.3378 31.1737 17.3378C31.4448 17.3378 31.7271 17.3378 32.0095 17.3378Z" fill="#F1F7F9"/>
<path d="M32.0101 12.391C32.3037 12.391 32.5974 12.391 32.9023 12.391C33.0604 12.391 33.1395 12.4361 33.1282 12.6055C33.1282 12.7637 33.0943 12.8879 32.9023 12.8879C32.315 12.8879 31.7164 12.8879 31.1291 12.8879C30.9371 12.8879 30.892 12.7863 30.892 12.6168C30.892 12.4587 30.9597 12.391 31.1178 12.391C31.4228 12.4023 31.7164 12.391 32.0101 12.391Z" fill="#F1F7F9"/>
<path d="M37.5882 17.8347C37.2945 17.8347 37.0009 17.8347 36.6959 17.8347C36.5378 17.8347 36.4587 17.7782 36.4587 17.6201C36.4587 17.4507 36.4926 17.3378 36.6846 17.3378C37.2719 17.3378 37.8705 17.3378 38.4578 17.3378C38.6498 17.3378 38.6837 17.4394 38.695 17.6088C38.695 17.8121 38.5933 17.846 38.4352 17.8347C38.1529 17.8347 37.8705 17.8347 37.5882 17.8347Z" fill="#F1F6F9"/>
<path d="M42.0036 15.7566C41.6987 15.5985 41.3938 15.4969 41.0888 15.8018C41.1792 15.4517 41.1114 15.1693 40.75 14.9773C41.1114 14.8983 41.4389 14.8757 41.5067 14.39C41.7213 14.774 41.9246 14.9999 42.3425 14.9322C41.9924 15.3049 41.9924 15.3049 42.0036 15.7566Z" fill="#F3F7F8"/>
<path d="M46.4432 14.989C46.1269 15.181 46.0931 15.4408 46.1947 15.8022C45.8333 15.5763 45.5284 15.5537 45.2008 15.8248C45.2912 15.4521 45.3025 15.1584 44.8507 14.989C45.2573 14.8987 45.5735 14.8648 45.6639 14.4017C45.8446 14.7631 46.0931 14.9438 46.4432 14.989Z" fill="#F4F7F8"/>
<path d="M22.0925 15.7452C22.1941 15.3612 22.0247 15.1579 21.7537 14.9659C22.0812 14.8868 22.4313 14.8981 22.4652 14.3334C22.6911 14.7626 22.8944 14.9885 23.2897 14.9546C23.0186 15.1805 22.8718 15.4176 23.0751 15.8129C22.7137 15.6435 22.42 15.4628 22.0925 15.7452Z" fill="#F5F9FB"/>
<path d="M18.3099 14.3563C18.6374 14.842 18.6374 14.842 19.1344 14.9662C18.9311 15.1808 18.6713 15.3728 18.9311 15.7681C18.5697 15.6664 18.2647 15.4519 17.9824 15.7794C17.9146 15.2486 17.9146 15.2486 17.6436 14.9662C17.9146 14.8533 18.2986 14.921 18.3099 14.3563Z" fill="#F5F7F9"/>
<path d="M31.918 39.2599C31.8729 39.5197 32.1213 39.6778 32.1552 40.0166C28.3265 38.8307 24.4188 38.3112 20.4207 38.266C21.0644 37.8481 21.6969 37.4303 22.3407 37.0124C22.4423 36.9446 22.5552 36.9333 22.6682 36.9672C23.8428 37.3625 25.0625 37.2383 26.271 37.2044C26.6776 37.1931 27.0842 37.1592 27.4908 37.1479C27.8861 37.2721 28.2701 37.0576 28.6879 37.1366C29.8173 37.3512 30.7661 37.8481 31.534 38.6952C31.5792 38.7517 31.647 38.7743 31.7035 38.8081C31.8503 38.9211 32.0084 39.0227 31.918 39.2599Z" fill="#FDFDFD"/>
<path d="M38.4361 37.2038C39.6219 37.2942 40.7965 37.3619 41.9485 36.9779C42.1066 36.9215 42.2422 36.9554 42.389 37.057C42.9989 37.4636 43.6088 37.8589 44.2186 38.2542C44.1622 38.4123 44.0492 38.3332 43.9702 38.3332C40.3561 38.3671 36.7871 38.7624 33.3085 39.8015C33.1391 39.8579 32.9584 39.8918 32.7777 39.937C32.4163 40.0387 32.4615 39.8692 32.597 39.6547C32.6309 39.2142 32.9358 38.9205 33.1956 38.6269C34.0991 37.6669 35.2398 37.1135 36.5612 37.1248C37.1711 37.1135 37.8149 37.1361 38.4361 37.2038Z" fill="#FDFDFD"/>
<path d="M33.0487 36.8655C33.2294 35.8265 33.1277 35.6006 32.1903 35.0697C31.8063 34.8552 31.3997 34.7083 30.9818 34.5728C29.6152 34.0985 28.9263 33.0368 29.0618 31.5799C29.0957 31.2185 29.1635 30.8683 29.2538 30.4843C29.491 31.5573 30.3607 31.8396 31.219 32.1559C31.9079 32.4156 32.5291 32.7883 33.1503 33.1836C34.6072 34.0985 34.7541 35.9281 33.0599 36.8768C33.0712 36.8542 33.0487 36.8655 33.0487 36.8655Z" fill="#FEFEFE"/>
<path d="M23.4485 39.4062C23.1435 39.2142 22.816 39.1351 22.4546 39.1577C21.7205 39.1916 20.9751 39.1125 20.2297 39.2029C20.1619 39.2142 20.0941 39.169 20.0264 39.1464C20.0941 38.9205 20.2748 38.9092 20.4668 38.9092C21.5172 38.898 22.5675 38.9318 23.6179 38.9996C24.7699 39.0674 25.9106 39.1803 27.04 39.3384C27.9435 39.4627 28.8358 39.6095 29.728 39.8015C30.304 39.9257 30.88 40.0274 31.4447 40.1855C31.8174 40.2307 32.1562 40.5243 32.5515 40.3549C32.9355 40.2758 33.3195 40.1742 33.6922 40.0612C34.2456 39.9709 34.799 39.8128 35.3525 39.7111C36.8433 39.4401 38.3341 39.2255 39.8475 39.1012C40.2767 39.0674 40.7172 39.0787 41.1463 39.0109C41.327 38.977 41.519 38.977 41.632 39.169C41.5981 39.3045 41.7223 39.3836 41.7675 39.4965C41.4852 39.5304 41.2028 39.553 40.9317 39.5869C40.2654 39.4627 39.6103 39.6434 38.9666 39.7111C37.8485 39.8241 36.7416 39.9822 35.6348 40.1968C34.8329 40.3436 34.031 40.4565 33.2405 40.6824C32.5741 40.8744 31.9529 40.8405 31.2979 40.6824C29.5473 40.2532 27.7854 39.9596 25.9897 39.7676C25.2894 39.6885 24.6005 39.5982 23.9002 39.5643C23.7647 39.5191 23.5953 39.5191 23.4485 39.4062Z" fill="#243559"/>
<path d="M23.877 39.4967C25.5033 39.5306 27.1071 39.7226 28.7109 39.9598C29.8854 40.1292 31.0374 40.3551 32.1781 40.66C32.517 40.7504 32.8445 40.5697 33.1607 40.4906C35.5777 39.9259 38.0398 39.6548 40.5132 39.508C40.66 39.4967 40.8294 39.4628 40.9537 39.5871C38.9772 39.7452 37.0233 40.084 35.0694 40.4793C34.1998 40.66 33.3414 40.8746 32.517 41.1795C32.3701 41.236 32.2459 41.2134 32.1104 41.1682C30.1565 40.4906 28.1349 40.1631 26.1019 39.8581C25.3678 39.7452 24.6224 39.6774 23.877 39.5871C23.8431 39.5758 23.8318 39.5532 23.8431 39.5419C23.8544 39.508 23.8657 39.4967 23.877 39.4967Z" fill="#F5FBFC"/>
<path d="M31.8172 37.2942C31.9866 37.0909 31.9414 36.8763 31.8285 36.673C31.6365 36.3342 31.3654 36.0744 31.004 35.9163C30.4393 35.6565 29.9876 35.3177 29.9424 34.6062C29.9989 34.5497 30.0892 34.5836 30.1683 34.6401C30.733 35.0015 31.3767 35.2273 31.9866 35.4871C32.0092 35.4984 32.0431 35.5097 32.0657 35.521C32.4158 35.7017 32.8224 35.8711 32.8224 36.3342C32.8224 36.8085 32.4948 37.1135 32.077 37.3168C32.0318 37.3393 31.9753 37.3732 31.9301 37.3958C31.885 37.3619 31.8511 37.328 31.8172 37.2942Z" fill="#F9FBFA"/>
<path d="M29.7848 39.8584C26.9161 39.3389 24.0361 39.0791 21.1222 39.0904C20.7608 39.0904 20.3881 39.0565 20.038 39.1469C19.8234 39.1469 19.5975 39.1469 19.2926 39.1469C19.6653 38.8758 19.959 38.6951 20.3655 38.7064C23.5731 38.7516 26.7467 39.0904 29.8752 39.7681C29.8978 39.8471 29.8752 39.881 29.7848 39.8584Z" fill="#F8FAFD"/>
<path d="M41.6546 39.1578C40.48 39.1239 39.3167 39.2594 38.1647 39.3837C37.216 39.4853 36.2673 39.6434 35.3186 39.7677C35.2282 39.8015 35.2057 39.7564 35.2282 39.6773C38.2212 39.0674 41.2593 38.7399 44.32 38.7286C44.8282 38.7286 44.8395 38.7399 45.3026 39.1578C44.0602 39.1352 42.8518 39.0335 41.6546 39.1578Z" fill="#F8FBFD"/>
<path d="M31.9185 39.2596C31.8281 39.1467 31.7491 39.0338 31.6587 38.9208C30.9811 38.006 30.0324 37.5429 28.9594 37.2719C28.5077 37.1589 28.0446 37.0912 27.5815 36.9782C27.4799 36.9669 27.3783 36.9669 27.2653 36.9556C26.983 36.8653 26.6893 36.9782 26.407 36.8992C25.7067 36.8653 24.9952 36.8879 24.3063 36.7185C24.0578 36.662 23.8206 36.5829 23.5947 36.4022C24.0352 36.2893 24.3966 36.1764 24.871 36.3909C25.7406 36.7749 26.7232 36.662 27.6606 36.7185C29.1966 36.8088 30.5293 37.3509 31.6022 38.4916C31.7491 38.6498 31.8733 38.8192 31.9975 38.9886C32.0992 39.0902 32.1782 39.2371 31.9185 39.2596Z" fill="#F3F9FC"/>
<path d="M32.5852 39.0673C33.6356 37.4975 35.1716 36.8424 36.9786 36.7069C37.7466 36.6504 38.5259 36.6617 39.2939 36.5262C39.4407 36.5036 39.6327 36.5036 39.7457 36.4132C40.1749 36.0857 40.604 36.2438 41.0784 36.4019C40.4459 36.7972 39.757 36.8311 39.068 36.8537C38.4694 36.8763 37.8596 36.8424 37.261 36.9554C36.5946 37.1586 35.8718 37.1699 35.2055 37.3958C34.3019 37.7121 33.5339 38.1977 32.9466 38.9544C32.8789 39.0448 32.8111 39.1351 32.6982 39.169C32.6191 39.1803 32.5626 39.1577 32.5852 39.0673Z" fill="#F3F9FC"/>
<path d="M15.3956 34.6743C15.4973 34.5275 15.6554 34.5952 15.7909 34.5952C20.2408 34.5952 24.6794 34.5952 29.1293 34.5952C29.2083 34.5952 29.2874 34.6065 29.3664 34.6856C24.7133 34.6743 20.0601 34.6743 15.3956 34.6743Z" fill="#849DC6"/>
<path d="M32.6637 39.1464C33.8044 37.6104 35.4308 37.0909 37.2491 36.9667C37.2152 36.9893 37.1701 37.0119 37.1475 37.0344C37.0797 37.17 37.2152 37.1022 37.2378 37.1022C37.6331 37.1361 38.0397 37.0344 38.4237 37.1813C37.6896 37.2039 36.9555 37.1248 36.2326 37.2264C34.6289 37.441 33.4091 38.2429 32.5734 39.6321C32.5395 39.5756 32.5056 39.5304 32.4717 39.474C32.4265 39.3158 32.5621 39.2368 32.6637 39.1464Z" fill="#3B4557"/>
<path d="M27.5934 36.9779C28.9374 37.0683 30.1685 37.4523 31.2301 38.3106C31.4221 38.4688 31.6932 38.593 31.6593 38.9205C31.4221 38.8753 31.3431 38.6608 31.1849 38.5139C30.2588 37.6782 29.1746 37.249 27.9322 37.2038C27.7854 37.2038 27.616 37.2264 27.4805 37.1473C27.5821 37.1361 27.6951 37.1248 27.8306 37.1135C27.7402 37.057 27.6725 37.0118 27.5934 36.9779Z" fill="#414859"/>
<path d="M37.4296 36.3004C37.1359 36.4246 36.8197 36.3681 36.5147 36.402C35.7354 36.4811 35.0013 36.6844 34.3124 37.0232C35.182 36.3568 36.2098 36.2552 37.2601 36.21C37.3053 36.2665 37.407 36.21 37.4296 36.3004Z" fill="#ABBDD5"/>
<path d="M27.2436 36.3005C26.6789 36.2893 26.1368 36.2102 25.6511 35.8262C26.0125 35.702 26.2949 35.6794 26.5885 35.9391C26.8483 36.1763 27.2323 36.1876 27.5824 36.2102C27.5146 36.4248 27.3678 36.3118 27.2436 36.3005Z" fill="#EAF0F8"/>
<path d="M37.4307 36.3002C37.3742 36.2663 37.3178 36.2437 37.25 36.2099C37.634 36.176 38.0067 36.0743 38.2891 35.792C38.5262 35.5548 38.7408 35.8936 38.9667 35.7807C38.5375 36.2324 37.9954 36.2776 37.4307 36.3002Z" fill="#ECF4F9"/>
<path d="M27.2432 36.3001C27.3561 36.2775 27.469 36.2437 27.582 36.2211C28.2032 36.2437 28.8243 36.2775 29.4003 36.526C29.389 36.5938 29.3326 36.5938 29.2874 36.6051C28.6323 36.3792 27.9208 36.4357 27.2432 36.3001Z" fill="#A8BCD0"/>
<path d="M29.7842 39.8584C29.8181 39.8245 29.8406 39.8019 29.8745 39.7681C30.4054 39.8697 30.9588 39.9262 31.4444 40.1859C30.8797 40.1408 30.3376 40.0165 29.7842 39.8584Z" fill="#879EC1"/>
<path d="M35.2277 39.6777C35.2615 39.7116 35.2954 39.7342 35.318 39.7681C34.7872 39.9375 34.2338 40.0165 33.6917 40.1069C33.6691 40.0843 33.6691 40.0617 33.6691 40.0391C33.6804 40.0165 33.6804 40.0052 33.6917 40.0052C34.1999 39.9036 34.7194 39.7906 35.2277 39.6777Z" fill="#ABC0D8"/>
<path d="M29.2991 36.6054C29.333 36.5828 29.3781 36.5489 29.412 36.5263C29.7734 36.6054 30.0897 36.7748 30.3607 37.0345C30.0106 36.8877 29.6492 36.7409 29.2991 36.6054Z" fill="#AAC0DD"/>
<path d="M33.692 40.0048C33.692 40.0386 33.692 40.0725 33.692 40.1064C33.3306 40.2306 32.9579 40.3662 32.5626 40.3436C32.924 40.1855 33.308 40.0951 33.692 40.0048Z" fill="#6C81AE"/>
<path d="M23.8772 39.4965C23.8772 39.5191 23.8772 39.553 23.8885 39.5756C23.6062 39.5417 23.3238 39.5191 23.0076 39.4852C23.177 39.3723 23.3238 39.4287 23.4593 39.4062C23.5949 39.44 23.7417 39.4062 23.8772 39.4965Z" fill="#818FB8"/>
<path d="M32.664 39.1469C32.6075 39.2598 32.5398 39.3728 32.4833 39.4857C32.4155 39.5196 32.4042 39.6777 32.3026 39.61C32.2348 39.5648 32.28 39.4857 32.3365 39.4405C32.4607 39.3389 32.4268 39.1469 32.5849 39.0678C32.6188 39.1017 32.6414 39.1243 32.664 39.1469Z" fill="#9BACC9"/>
<path d="M26.4181 36.8876C26.7117 36.8763 26.9941 36.8537 27.2764 36.9441C26.9941 36.9666 26.7004 37.0231 26.4181 36.8876Z" fill="#414859"/>
<path d="M34.1211 33.5899C33.6468 32.709 32.8449 32.2459 31.9527 31.8958C31.5122 31.7264 31.0604 31.557 30.6425 31.3198C30.0891 31.0148 29.7051 30.5857 29.739 29.9193C29.7729 29.2078 30.2134 28.7786 30.8345 28.5076C30.8797 28.485 30.9362 28.4624 30.9927 28.4511C30.4957 29.3885 30.6312 29.8854 31.5461 30.5179C32.2124 30.981 32.9578 31.3311 33.5225 31.9523C33.9291 32.4153 34.2228 32.9235 34.1211 33.5899Z" fill="#FBFCFA"/>
<path d="M32.8795 27.3784C33.6814 27.9092 33.7491 28.6433 33.0828 29.2532C32.5519 29.7388 32.5406 30.0212 33.0263 30.552C33.2183 30.7553 33.4103 30.9586 33.6023 31.1732C33.6475 31.2184 33.6701 31.2974 33.6926 31.3539C33.6588 31.3765 33.6249 31.3991 33.6136 31.3991C32.8908 31.0038 32.1679 30.5859 31.5581 30.0099C30.9821 29.4678 31.0385 28.5868 31.9534 28.3497C32.4277 28.2367 32.8795 28.0108 32.8795 27.3784Z" fill="#FBFCFB"/>
<path d="M41.1689 29.9193C47.1819 29.9193 52.0564 29.9041 52.0564 29.8854C52.0564 29.8667 47.1819 29.8515 41.1689 29.8515C35.1559 29.8515 30.2814 29.8667 30.2814 29.8854C30.2814 29.9041 35.1559 29.9193 41.1689 29.9193Z" fill="#8B9BBC"/>
<path d="M41.1458 30.2581C47.1775 30.2581 52.0672 30.2429 52.0672 30.2242C52.0672 30.2055 47.1775 30.1903 41.1458 30.1903C35.114 30.1903 30.2244 30.2055 30.2244 30.2242C30.2244 30.2429 35.114 30.2581 41.1458 30.2581Z" fill="#8E97BA"/>
<path d="M41.2475 29.5808C47.2044 29.5808 52.0334 29.5656 52.0334 29.5469C52.0334 29.5282 47.2044 29.513 41.2475 29.513C35.2907 29.513 30.4617 29.5282 30.4617 29.5469C30.4617 29.5656 35.2907 29.5808 41.2475 29.5808Z" fill="#8F9AB7"/>
<path d="M41.4624 28.903C47.2508 28.903 51.9433 28.8879 51.9433 28.8691C51.9433 28.8504 47.2508 28.8353 41.4624 28.8353C35.6739 28.8353 30.9814 28.8504 30.9814 28.8691C30.9814 28.8879 35.6739 28.903 41.4624 28.903Z" fill="#8999BB"/>
<path d="M34.5507 31.8958C39.3394 31.8958 44.1281 31.8958 48.9168 31.8958C48.9168 31.9071 48.9168 31.9184 48.9168 31.9297C44.1281 31.9297 39.3394 31.9297 34.562 31.9297C34.5507 31.9184 34.5507 31.9071 34.5507 31.8958Z" fill="#8E9EBD"/>
<path d="M43.2479 24.6904C43.1349 24.6904 43.022 24.6904 42.9204 24.6791C42.2992 24.3629 42.2766 23.8546 42.8526 23.4029L42.8413 23.4142C43.3044 23.3238 43.6432 23.4706 43.7335 23.7869C43.8352 24.2047 43.6771 24.4871 43.2479 24.6904Z" fill="#1B3760"/>
<path d="M36.6962 23.3352C37.3851 23.3239 37.4529 24.0128 37.9385 24.2274C37.9272 23.9337 38.0176 23.6514 37.8369 23.369C37.9159 23.3013 38.0289 23.3352 38.1644 23.3352C37.8708 23.7417 38.074 24.2048 37.995 24.713C37.5432 24.25 37.1366 23.8208 36.6962 23.3352Z" fill="#D9E5F1"/>
<path d="M44.1624 23.3685C44.5915 23.3459 45.416 24.2155 45.3708 24.7012C45.1901 24.4979 45.032 24.3285 44.8739 24.1591C44.7271 24.0009 44.5802 23.8315 44.3656 23.5944C44.3656 23.9558 44.3656 24.2155 44.3656 24.464C44.3656 24.5318 44.4899 24.5995 44.3656 24.6673C44.3431 24.6786 44.3092 24.6786 44.2866 24.6673C44.1398 24.6108 44.2866 24.5431 44.2866 24.4753C44.2753 24.1252 44.3882 23.7299 44.1624 23.3685Z" fill="#DCE8F0"/>
<path d="M28.4863 24.6563C28.0684 24.7693 27.9329 24.7128 28.0232 24.2949C28.091 24.0013 28.091 23.6624 27.9103 23.3123C28.3056 23.4478 28.7122 23.1768 29.0736 23.5382C28.9155 23.6286 28.8703 23.5269 28.8251 23.4817C28.667 23.3688 28.4976 23.3688 28.3507 23.4366C28.2152 23.5043 28.283 23.6737 28.3056 23.7867C28.3507 24.069 28.1587 24.4078 28.4863 24.6563Z" fill="#DBE4EF"/>
<path d="M47.4034 23.3573C47.5616 23.3573 47.7197 23.3573 47.8778 23.3573C47.7536 23.7864 47.7084 24.2269 47.9117 24.6448C47.4938 24.7351 47.5164 24.7351 47.5051 24.3286C47.5051 24.0123 47.5954 23.6735 47.4034 23.3573Z" fill="#DFE8F0"/>
<path d="M17.6091 23.7417C17.6317 23.6061 17.643 23.4593 17.8124 23.369C18.027 23.8094 18.2303 24.2386 18.4562 24.6904C18.2529 24.6904 18.0044 24.8372 18.027 24.4193C18.0383 24.2273 17.8689 24.137 17.6769 24.1595C17.5752 24.1708 17.3945 24.2499 17.451 24.0127C17.5301 23.9337 17.7221 23.9337 17.6091 23.7417Z" fill="#DAE3EF"/>
<path d="M46.252 23.7079C46.3085 23.5949 46.3649 23.482 46.4553 23.3013C46.6925 23.7869 46.907 24.2161 47.1329 24.6679C46.9183 24.6905 46.7263 24.7921 46.7038 24.4081C46.6812 24.0354 46.3423 24.1597 46.0939 24.1709C46.1052 24.058 46.1278 23.9677 46.2407 23.9112C46.3085 23.9451 46.3536 23.9225 46.3649 23.8547C46.3649 23.7869 46.331 23.7305 46.252 23.7079Z" fill="#D9E4F0"/>
<path d="M21.1447 24.0807C21.0656 24.2727 21.0995 24.4647 21.1899 24.6567C20.9188 24.7245 20.772 24.7358 20.8172 24.3631C20.8623 24.0355 20.9075 23.6854 20.7268 23.324C20.9527 23.324 21.1786 23.324 21.3932 23.324C21.3367 23.5838 21.2802 23.8435 21.1447 24.0807Z" fill="#E9EBF1"/>
<path d="M30.8135 23.5832C30.7683 23.5154 30.7232 23.4477 30.678 23.3799C31.0959 23.3347 31.9316 24.1931 31.909 24.6335C31.5815 24.3173 31.2427 23.9898 30.9039 23.6622C30.8474 23.6622 30.8474 23.6171 30.8135 23.5832Z" fill="#E2EDF6"/>
<path d="M23.7197 23.3573C23.8665 23.3573 24.036 23.3573 24.1941 23.3573C23.9795 23.7187 24.1037 24.114 24.0924 24.498C24.0924 24.5657 24.2393 24.6448 24.0924 24.69C24.0134 24.7126 23.923 24.7126 23.844 24.69C23.7084 24.6561 23.7988 24.5657 23.7988 24.498C23.7988 24.1253 23.8553 23.7413 23.7197 23.3573Z" fill="#E2E7F0"/>
<path d="M38.8536 23.7527C38.8987 23.6285 38.9552 23.5042 39.0456 23.2784C39.294 23.7866 39.4973 24.2158 39.7345 24.6788C39.5199 24.6901 39.3053 24.7918 39.3053 24.4191C39.294 24.148 39.0794 24.148 38.8649 24.1593C38.6954 24.1706 38.6164 24.148 38.7971 24.0125C38.9552 23.9673 38.9439 23.8769 38.8536 23.7527Z" fill="#DEE8F2"/>
<path d="M29.8517 23.3463C30.0437 23.3463 30.1905 23.3463 30.3712 23.3463C30.1453 23.6964 30.247 24.0804 30.247 24.4531C30.247 24.5321 30.3825 24.5999 30.2809 24.6677C30.2131 24.7128 30.0889 24.7128 29.9985 24.679C29.8404 24.6338 29.9872 24.5208 29.9759 24.4418C29.9533 24.0804 30.0776 23.7077 29.8517 23.3463Z" fill="#E5E7F0"/>
<path d="M19.4838 24.7238C19.2353 24.2269 19.0321 23.7751 18.7158 23.3685C19.1789 23.3347 19.721 24.2382 19.4838 24.7238Z" fill="#E6EFF6"/>
<path d="M24.9392 24.6903C24.815 24.679 24.6908 24.679 24.5891 24.6677C24.6343 24.2159 24.7134 23.7754 24.5214 23.3463C24.6682 23.3463 24.8376 23.3463 25.007 23.3463C24.7924 23.7754 24.9054 24.2159 24.9392 24.6903Z" fill="#E5EBF4"/>
<path d="M16.1865 23.4255C15.7461 24.058 15.8364 24.4307 16.5028 24.7243C15.9832 24.7356 15.7122 24.5775 15.6444 24.2048C15.5766 23.7869 15.7461 23.5271 16.1526 23.4029L16.1865 23.4255Z" fill="#DAE5EF"/>
<path d="M22.6011 24.0914C22.6237 24.2834 22.5785 24.4754 22.7027 24.6674C22.4543 24.7013 22.2736 24.769 22.3413 24.385C22.3978 24.0575 22.443 23.6961 22.251 23.3573C22.4091 23.3573 22.5785 23.3573 22.7592 23.3573C22.4882 23.5267 22.6802 23.7864 22.6124 24.001C22.6576 24.0349 22.6576 24.0688 22.6011 24.0914Z" fill="#E9F0F6"/>
<path d="M26.7569 24.6902C26.3503 24.6337 26.1357 24.374 26.1809 23.9787C26.226 23.5269 26.5536 23.3236 27.1522 23.3575C26.418 23.4704 26.2599 24.0013 26.7569 24.6902Z" fill="#DCE4F0"/>
<path d="M20.4214 23.369C20.2294 23.7304 20.3537 24.1257 20.3311 24.5097C20.3311 24.5662 20.444 24.634 20.3311 24.6791C20.2407 24.713 20.1278 24.713 20.0374 24.6791C19.9245 24.6453 20.0261 24.5775 20.0374 24.521C20.0374 24.2726 20.0713 24.0128 20.0374 23.7643C19.9922 23.3577 20.0035 23.3464 20.4214 23.369Z" fill="#EBEFF7"/>
<path d="M40.4794 24.4308C40.4794 24.2049 40.4794 23.9791 40.4681 23.7532C40.4568 23.6402 40.5471 23.4821 40.3777 23.4257C40.2422 23.3805 40.1292 23.4595 40.0276 23.5273C39.9824 23.5612 39.9485 23.5951 39.8921 23.6289C39.8356 23.4595 39.813 23.324 40.0276 23.324C40.7052 23.324 41.3942 23.324 42.1509 23.324C42.038 23.4257 41.9815 23.4708 41.9363 23.516C41.8347 23.5386 41.7443 23.5386 41.6427 23.5047C41.3716 23.2675 41.4281 23.5612 41.3716 23.6854C41.2022 23.4934 40.9989 23.3692 40.7391 23.4031C40.5471 23.5951 40.6714 23.8322 40.6375 24.0468C40.6149 24.1937 40.7165 24.3857 40.4794 24.4308Z" fill="#A9B7D2"/>
<path d="M22.6016 24.0913C22.6016 24.0574 22.6016 24.0235 22.6016 24.0009C23.0646 23.9783 23.1211 23.8654 22.9404 23.3798C23.2227 23.4023 23.4373 23.6056 23.2905 23.7976C23.0307 24.1252 23.2566 24.2946 23.3696 24.5318C23.3921 24.5656 23.4147 24.5995 23.4373 24.6447C23.234 24.7463 23.1437 24.6447 23.0533 24.4753C22.963 24.2946 22.9178 24.0348 22.6016 24.0913Z" fill="#E8F0F7"/>
<path d="M43.2472 24.6901C43.4731 24.532 43.6312 24.3513 43.6199 24.0463C43.6086 23.5494 43.3941 23.38 42.8293 23.4252C43.3489 23.2558 43.778 23.4478 43.891 23.8995C43.9926 24.2609 43.699 24.6223 43.2472 24.6901Z" fill="#DCE7F1"/>
<path d="M36.2331 23.4138C36.4025 23.5945 36.5154 23.7865 36.2444 23.9672C36.1314 24.0463 36.1879 24.0915 36.2218 24.1592C36.3121 24.3173 36.4025 24.4755 36.5041 24.6336C36.2783 24.7465 36.2105 24.6223 36.1088 24.4642C36.0072 24.2948 35.9733 24.0011 35.6458 24.1028C35.6119 24.0689 35.6006 24.035 35.6119 24.0011C35.7248 23.8543 35.9168 23.7639 35.9281 23.5268C35.9394 23.346 36.0863 23.3348 36.2331 23.4138Z" fill="#E8F1F9"/>
<path d="M25.346 23.4247C25.7412 23.4699 26.0236 23.7409 25.9897 24.1024C25.9558 24.4412 25.7751 24.6671 25.3234 24.6897C25.5831 24.4864 25.7187 24.2831 25.7074 24.0233C25.6848 23.7748 25.5154 23.6054 25.346 23.4247Z" fill="#E5EBF4"/>
<path d="M21.6743 23.3917C21.9793 23.674 21.776 24.1032 21.968 24.442C22.0358 24.5662 21.7873 24.7131 21.5727 24.6792C21.8099 24.2952 21.7873 24.2274 21.4259 24.0354C21.4033 24.058 21.3581 24.0693 21.3581 24.058C21.2339 23.8095 21.4033 23.4707 21.6743 23.3917Z" fill="#E5F1F6"/>
<path d="M34.2906 23.4142C34.2906 23.5836 34.2906 23.753 34.2906 23.9224C34.3132 23.945 34.3245 23.9563 34.3132 23.9789C34.3019 24.0015 34.3019 24.0128 34.2906 24.0128C34.2793 24.2386 34.2341 24.4645 34.4487 24.6678C34.268 24.6678 34.1325 24.6678 33.9744 24.6678C34.076 24.2838 34.0421 23.8998 34.0082 23.5158C34.0421 23.3012 34.1664 23.369 34.2906 23.4142Z" fill="#EEFCFD"/>
<path d="M35.6458 23.9901C35.6458 24.024 35.6458 24.0691 35.6458 24.103C35.6684 24.295 35.6571 24.4757 35.7474 24.6564C35.5893 24.6903 35.4651 24.7016 35.3521 24.6564C35.4651 24.216 35.4989 23.7868 35.2957 23.335C35.4877 23.335 35.6797 23.335 35.8717 23.335C35.8829 23.5835 35.8265 23.8094 35.6458 23.9901Z" fill="#F6F7FC"/>
<path d="M33.1039 23.4138C33.1039 23.8204 33.0474 24.227 33.149 24.6335C32.8102 24.7239 32.8215 24.7239 32.8328 24.3851C32.8441 24.0575 32.8328 23.7413 32.8328 23.4138C32.9344 23.3573 33.0248 23.3573 33.1039 23.4138Z" fill="#F0FCFD"/>
<path d="M41.6431 23.5042C41.7448 23.38 41.8464 23.4025 41.9368 23.5155C41.9255 23.8882 41.869 24.2722 41.9819 24.6562C41.7109 24.7465 41.5754 24.7239 41.6431 24.3399C41.6996 24.0802 41.6431 23.7865 41.6431 23.5042Z" fill="#F5FAFE"/>
<path d="M42.8505 23.4029C42.4552 23.9337 42.4778 24.25 42.9182 24.6791C42.5342 24.6678 42.3422 24.442 42.3083 24.0692C42.2745 23.6965 42.4778 23.4707 42.8505 23.4029Z" fill="#DCE7F1"/>
<path d="M21.6753 23.3917C21.6076 23.403 21.4833 23.4143 21.5059 23.4369C21.7092 23.674 21.4946 23.8435 21.4269 24.0355C21.3365 24.058 21.2462 24.0693 21.1558 24.0919C21.1445 23.9903 21.1332 23.8999 21.1106 23.7983C21.0655 23.5498 21.1445 23.3804 21.4043 23.3352C21.5059 23.3239 21.5963 23.3239 21.6753 23.3917Z" fill="#27375E"/>
<path d="M35.6455 23.9898C35.7246 23.7752 35.51 23.4477 35.8827 23.3347C36.0069 23.3235 36.1312 23.3122 36.2215 23.4138C36.1424 23.4364 35.9504 23.2783 36.0408 23.538C36.1763 23.8995 36.0747 24.0011 35.6455 23.9898Z" fill="#283C5A"/>
<path d="M40.4792 24.4304C40.6148 24.2158 40.5244 23.9786 40.547 23.7527C40.5583 23.6172 40.5018 23.4365 40.739 23.4139C40.739 23.764 40.739 24.1141 40.7277 24.453C40.7277 24.532 40.9084 24.6224 40.7277 24.6788C40.6486 24.7014 40.547 24.7014 40.4792 24.6676C40.3437 24.6111 40.5018 24.5094 40.4792 24.4304Z" fill="#FAF8FE"/>
<path d="M33.1041 23.4142C33.0138 23.4142 32.9234 23.4142 32.8331 23.4142C32.6072 23.4029 32.4039 23.4593 32.2345 23.7643C32.2232 23.5045 32.1667 23.3238 32.37 23.3351C32.8331 23.3464 33.3074 23.2335 33.7705 23.4142V23.4029C33.7705 23.4932 33.7705 23.5949 33.7705 23.7191C33.5785 23.5045 33.3752 23.3916 33.1041 23.4142Z" fill="#A1B2CD"/>
<path d="M26.7468 24.6899C27.0179 24.6786 27.3228 24.7238 27.2325 24.2834C27.2099 24.1817 27.2438 24.1817 27.6278 24.2043C27.4245 24.7125 27.2325 24.8255 26.7468 24.6899Z" fill="#BFCFE2"/>
<path d="M30.8117 23.5834C30.8456 23.606 30.8681 23.6399 30.902 23.6625C30.9246 23.9674 30.8343 24.2723 30.9698 24.5773C31.0263 24.7128 30.9133 24.7128 30.8343 24.7128C30.7665 24.7128 30.6536 24.7015 30.6987 24.6112C30.902 24.2836 30.6423 23.9109 30.8117 23.5834Z" fill="#6E7E9C"/>
<path d="M34.2911 23.4141C34.1895 23.4141 34.0765 23.4028 34.0088 23.5157C33.9297 23.4593 33.8733 23.3915 33.7716 23.4028C33.7716 23.4028 33.7829 23.4141 33.7716 23.4141C34.133 23.256 34.5057 23.3463 34.8784 23.3463C35.014 23.3463 35.0365 23.4818 34.9688 23.64C34.7994 23.3915 34.5396 23.4028 34.2911 23.4141Z" fill="#A1B2CD"/>
<path d="M17.6095 23.7417C17.8128 23.7643 17.8806 23.9676 17.8241 24.0579C17.7225 24.216 17.5643 24.0692 17.4401 24.0014C17.3498 23.8094 17.5869 23.8433 17.6095 23.7417Z" fill="#364157"/>
<path d="M34.3016 24.013C34.3016 23.9791 34.3016 23.9565 34.3016 23.9226C34.4598 23.9791 34.5614 23.8436 34.7082 23.7758C34.7082 23.9226 34.7082 24.0469 34.7082 24.205C34.5501 24.1372 34.4259 24.0695 34.3016 24.013Z" fill="#8396B9"/>
<path d="M16.1523 23.4025C16.6719 23.2557 16.9203 23.3573 16.8978 23.7639C16.7283 23.4138 16.4799 23.346 16.1862 23.4364C16.1862 23.4251 16.1523 23.4025 16.1523 23.4025Z" fill="#DAE5EF"/>
<path d="M38.8527 23.7531C39.0786 23.7305 39.135 23.9338 39.1011 24.0354C39.0447 24.1597 38.8866 24.1597 38.7849 24.0128C38.7962 23.9225 38.8301 23.8434 38.8527 23.7531Z" fill="#2C3C52"/>
<path d="M46.2517 23.7079C46.4888 23.7079 46.4662 23.9225 46.5679 24.1145C46.4211 24.0468 46.1952 24.2388 46.2404 23.9112C46.3194 23.8548 46.2855 23.787 46.2517 23.7079Z" fill="#31354C"/>
<path d="M22.4546 29.2416C27.9125 29.2416 32.3369 29.2264 32.3369 29.2077C32.3369 29.189 27.9125 29.1738 22.4546 29.1738C16.9967 29.1738 12.5723 29.189 12.5723 29.2077C12.5723 29.2264 16.9967 29.2416 22.4546 29.2416Z" fill="#8E99B6"/>
<path d="M22.33 29.5808C27.6818 29.5808 32.0203 29.5656 32.0203 29.5469C32.0203 29.5282 27.6818 29.513 22.33 29.513C16.9782 29.513 12.6396 29.5282 12.6396 29.5469C12.6396 29.5656 16.9782 29.5808 22.33 29.5808Z" fill="#8F9AB7"/>
<path d="M28.9383 29.9084C24.4545 29.9084 19.9595 29.9084 15.4757 29.9084C15.4757 29.8971 15.4757 29.8745 15.4757 29.8632C19.9595 29.8632 24.4545 29.8632 28.9383 29.8632C28.9383 29.8745 28.9383 29.8858 28.9383 29.9084Z" fill="#8B9BBC"/>
<path d="M28.8574 30.2468C24.3963 30.2468 19.9351 30.2468 15.4626 30.2468C15.4626 30.2242 15.4626 30.2129 15.4626 30.1903C19.9238 30.1903 24.385 30.1903 28.8574 30.1903C28.8574 30.2129 28.8574 30.2242 28.8574 30.2468Z" fill="#8E98B8"/>
<path d="M15.3269 31.8841C19.7542 31.8841 24.1702 31.8841 28.6427 31.8841C28.4845 31.9971 28.3603 31.9632 28.2361 31.9632C24.0798 31.9632 19.9236 31.9632 15.7561 31.9632C15.6206 31.9632 15.4511 32.0197 15.3269 31.8841Z" fill="#8E9EBD"/>
<path d="M83.4091 14.2743H80.9205C80.8751 13.9523 80.7823 13.6663 80.6421 13.4163C80.5019 13.1625 80.322 12.9466 80.1023 12.7686C79.8826 12.5906 79.6288 12.4542 79.341 12.3595C79.0569 12.2648 78.7482 12.2175 78.4148 12.2175C77.8126 12.2175 77.2879 12.3671 76.841 12.6663C76.394 12.9618 76.0474 13.3936 75.8012 13.9618C75.555 14.5262 75.4319 15.2118 75.4319 16.0186C75.4319 16.8482 75.555 17.5451 75.8012 18.1095C76.0512 18.6739 76.3997 19.1 76.8466 19.3879C77.2936 19.6758 77.8107 19.8197 78.3978 19.8197C78.7273 19.8197 79.0323 19.7762 79.3126 19.6891C79.5966 19.6019 79.8485 19.475 80.0682 19.3084C80.2879 19.1379 80.4698 18.9315 80.6137 18.6891C80.7614 18.4466 80.8637 18.1701 80.9205 17.8595L83.4091 17.8709C83.3448 18.405 83.1838 18.9201 82.9262 19.4163C82.6724 19.9088 82.3296 20.35 81.8978 20.7402C81.4698 21.1266 80.9584 21.4334 80.3637 21.6607C79.7728 21.8841 79.1042 21.9959 78.358 21.9959C77.3201 21.9959 76.3921 21.761 75.5739 21.2913C74.7595 20.8216 74.1156 20.1417 73.6421 19.2516C73.1724 18.3614 72.9376 17.2838 72.9376 16.0186C72.9376 14.7497 73.1762 13.6701 73.6535 12.78C74.1307 11.8898 74.7785 11.2118 75.5966 10.7459C76.4148 10.2762 77.3353 10.0413 78.358 10.0413C79.0323 10.0413 79.6573 10.136 80.233 10.3254C80.8126 10.5148 81.3258 10.7913 81.7728 11.155C82.2198 11.5148 82.5834 11.9561 82.8637 12.4788C83.1478 13.0016 83.3296 13.6 83.4091 14.2743ZM87.6165 22.0016C87.0597 22.0016 86.5635 21.905 86.1279 21.7118C85.6923 21.5148 85.3476 21.225 85.0938 20.8425C84.8438 20.4561 84.7188 19.975 84.7188 19.3993C84.7188 18.9144 84.8078 18.5072 84.9859 18.1777C85.1639 17.8482 85.4063 17.583 85.7131 17.3822C86.0199 17.1815 86.3684 17.03 86.7586 16.9277C87.1525 16.8254 87.5654 16.7535 87.9972 16.7118C88.5048 16.6588 88.9139 16.6095 89.2245 16.5641C89.5351 16.5148 89.7605 16.4429 89.9006 16.3482C90.0408 16.2535 90.1109 16.1133 90.1109 15.9277V15.8936C90.1109 15.5338 89.9972 15.2554 89.7699 15.0584C89.5465 14.8614 89.2283 14.7629 88.8154 14.7629C88.3798 14.7629 88.0332 14.8595 87.7756 15.0527C87.518 15.2421 87.3476 15.4807 87.2643 15.7686L85.0256 15.5868C85.1393 15.0565 85.3627 14.5982 85.6961 14.2118C86.0294 13.8216 86.4593 13.5224 86.9859 13.3141C87.5162 13.1019 88.1298 12.9959 88.8268 12.9959C89.3116 12.9959 89.7756 13.0527 90.2188 13.1663C90.6658 13.28 91.0616 13.4561 91.4063 13.6947C91.7548 13.9334 92.0294 14.2402 92.2302 14.6152C92.4309 14.9864 92.5313 15.4315 92.5313 15.9504V21.8368H90.2359V20.6266H90.1677C90.0275 20.8993 89.84 21.1398 89.6052 21.3482C89.3703 21.5527 89.0881 21.7137 88.7586 21.8311C88.429 21.9447 88.0484 22.0016 87.6165 22.0016ZM88.3097 20.3311C88.6658 20.3311 88.9802 20.261 89.2529 20.1209C89.5256 19.9769 89.7396 19.7838 89.8949 19.5413C90.0502 19.2989 90.1279 19.0243 90.1279 18.7175V17.7913C90.0521 17.8406 89.948 17.886 89.8154 17.9277C89.6866 17.9656 89.5408 18.0016 89.3779 18.0357C89.215 18.066 89.0521 18.0944 88.8893 18.1209C88.7264 18.1436 88.5787 18.1644 88.4461 18.1834C88.162 18.225 87.9139 18.2913 87.7018 18.3822C87.4896 18.4732 87.3249 18.5963 87.2074 18.7516C87.09 18.9031 87.0313 19.0925 87.0313 19.3197C87.0313 19.6493 87.1506 19.9012 87.3893 20.0754C87.6317 20.2459 87.9385 20.3311 88.3097 20.3311ZM94.4091 21.8368V13.1095H96.716V14.6493H96.8182C97.0001 14.1379 97.3031 13.7345 97.7273 13.4391C98.1516 13.1436 98.6591 12.9959 99.2501 12.9959C99.8485 12.9959 100.358 13.1455 100.778 13.4447C101.199 13.7402 101.479 14.1417 101.619 14.6493H101.71C101.888 14.1493 102.21 13.7497 102.676 13.4504C103.146 13.1474 103.701 12.9959 104.341 12.9959C105.155 12.9959 105.816 13.2554 106.324 13.7743C106.835 14.2894 107.091 15.0205 107.091 15.9675V21.8368H104.676V16.4447C104.676 15.9599 104.547 15.5963 104.29 15.3538C104.032 15.1114 103.71 14.9902 103.324 14.9902C102.885 14.9902 102.542 15.1304 102.296 15.4107C102.049 15.6872 101.926 16.0527 101.926 16.5072V21.8368H99.5796V16.3936C99.5796 15.9656 99.4565 15.6247 99.2103 15.3709C98.9679 15.1171 98.6478 14.9902 98.2501 14.9902C97.9811 14.9902 97.7387 15.0584 97.5228 15.1947C97.3107 15.3273 97.1421 15.5148 97.0171 15.7572C96.8921 15.9959 96.8296 16.2762 96.8296 16.5982V21.8368H94.4091ZM109.048 21.8368V10.2004H111.469V14.5754H111.543C111.649 14.3406 111.802 14.1019 112.003 13.8595C112.207 13.6133 112.473 13.4088 112.798 13.2459C113.128 13.0792 113.537 12.9959 114.026 12.9959C114.662 12.9959 115.249 13.1625 115.787 13.4959C116.325 13.8254 116.755 14.3235 117.077 14.9902C117.399 15.6531 117.56 16.4845 117.56 17.4845C117.56 18.458 117.403 19.28 117.088 19.9504C116.778 20.6171 116.353 21.1228 115.815 21.4675C115.281 21.8084 114.683 21.9788 114.02 21.9788C113.55 21.9788 113.151 21.9012 112.821 21.7459C112.495 21.5906 112.228 21.3955 112.02 21.1607C111.812 20.922 111.653 20.6815 111.543 20.4391H111.435V21.8368H109.048ZM111.418 17.4732C111.418 17.9921 111.49 18.4447 111.634 18.8311C111.778 19.2175 111.986 19.5186 112.259 19.7345C112.531 19.9466 112.863 20.0527 113.253 20.0527C113.647 20.0527 113.98 19.9447 114.253 19.7288C114.526 19.5091 114.732 19.2061 114.872 18.8197C115.016 18.4296 115.088 17.9807 115.088 17.4732C115.088 16.9694 115.018 16.5262 114.878 16.1436C114.738 15.761 114.531 15.4618 114.259 15.2459C113.986 15.03 113.651 14.922 113.253 14.922C112.859 14.922 112.526 15.0262 112.253 15.2345C111.984 15.4429 111.778 15.7383 111.634 16.1209C111.49 16.5035 111.418 16.9542 111.418 17.4732ZM119.175 21.8368V13.1095H121.521V14.6322H121.612C121.771 14.0906 122.038 13.6815 122.413 13.405C122.788 13.1247 123.22 12.9845 123.709 12.9845C123.83 12.9845 123.961 12.9921 124.101 13.0072C124.241 13.0224 124.364 13.0432 124.47 13.0697V15.2175C124.357 15.1834 124.199 15.1531 123.999 15.1266C123.798 15.1 123.614 15.0868 123.447 15.0868C123.091 15.0868 122.773 15.1644 122.493 15.3197C122.216 15.4713 121.997 15.6834 121.834 15.9561C121.675 16.2288 121.595 16.5432 121.595 16.8993V21.8368H119.175ZM125.722 21.8368V13.1095H128.142V21.8368H125.722ZM126.938 11.9845C126.578 11.9845 126.269 11.8652 126.011 11.6266C125.758 11.3841 125.631 11.0944 125.631 10.7572C125.631 10.4239 125.758 10.1379 126.011 9.89929C126.269 9.65687 126.578 9.53566 126.938 9.53566C127.297 9.53566 127.604 9.65687 127.858 9.89929C128.116 10.1379 128.244 10.4239 128.244 10.7572C128.244 11.0944 128.116 11.3841 127.858 11.6266C127.604 11.8652 127.297 11.9845 126.938 11.9845ZM133.297 21.9788C132.634 21.9788 132.034 21.8084 131.496 21.4675C130.962 21.1228 130.537 20.6171 130.223 19.9504C129.912 19.28 129.757 18.458 129.757 17.4845C129.757 16.4845 129.918 15.6531 130.24 14.9902C130.562 14.3235 130.99 13.8254 131.524 13.4959C132.062 13.1625 132.651 12.9959 133.291 12.9959C133.78 12.9959 134.187 13.0792 134.513 13.2459C134.842 13.4088 135.108 13.6133 135.308 13.8595C135.513 14.1019 135.668 14.3406 135.774 14.5754H135.848V10.2004H138.263V21.8368H135.876V20.4391H135.774C135.661 20.6815 135.5 20.922 135.291 21.1607C135.087 21.3955 134.82 21.5906 134.49 21.7459C134.164 21.9012 133.767 21.9788 133.297 21.9788ZM134.064 20.0527C134.454 20.0527 134.784 19.9466 135.053 19.7345C135.325 19.5186 135.534 19.2175 135.678 18.8311C135.825 18.4447 135.899 17.9921 135.899 17.4732C135.899 16.9542 135.827 16.5035 135.683 16.1209C135.539 15.7383 135.331 15.4429 135.058 15.2345C134.786 15.0262 134.454 14.922 134.064 14.922C133.666 14.922 133.331 15.03 133.058 15.2459C132.786 15.4618 132.579 15.761 132.439 16.1436C132.299 16.5262 132.229 16.9694 132.229 17.4732C132.229 17.9807 132.299 18.4296 132.439 18.8197C132.583 19.2061 132.789 19.5091 133.058 19.7288C133.331 19.9447 133.666 20.0527 134.064 20.0527ZM144.185 25.2913C143.401 25.2913 142.728 25.1834 142.168 24.9675C141.611 24.7554 141.168 24.4656 140.838 24.0982C140.509 23.7307 140.295 23.3179 140.196 22.8595L142.435 22.5584C142.503 22.7326 142.611 22.8955 142.759 23.047C142.906 23.1985 143.101 23.3197 143.344 23.4107C143.59 23.5054 143.889 23.5527 144.242 23.5527C144.768 23.5527 145.202 23.4239 145.543 23.1663C145.887 22.9125 146.06 22.4864 146.06 21.8879V20.2913H145.957C145.851 20.5338 145.692 20.7629 145.48 20.9788C145.268 21.1947 144.995 21.3709 144.662 21.5072C144.329 21.6436 143.931 21.7118 143.469 21.7118C142.814 21.7118 142.217 21.5603 141.679 21.2572C141.145 20.9504 140.719 20.4826 140.401 19.8538C140.086 19.2213 139.929 18.422 139.929 17.4561C139.929 16.4675 140.09 15.6417 140.412 14.9788C140.734 14.316 141.162 13.8197 141.696 13.4902C142.234 13.1607 142.823 12.9959 143.463 12.9959C143.952 12.9959 144.361 13.0792 144.69 13.2459C145.02 13.4088 145.285 13.6133 145.486 13.8595C145.69 14.1019 145.848 14.3406 145.957 14.5754H146.048V13.1095H148.452V21.922C148.452 22.6644 148.27 23.2857 147.906 23.7857C147.543 24.2857 147.039 24.6607 146.395 24.9107C145.755 25.1644 145.018 25.2913 144.185 25.2913ZM144.236 19.8936C144.626 19.8936 144.956 19.797 145.224 19.6038C145.497 19.4069 145.706 19.1266 145.849 18.7629C145.997 18.3955 146.071 17.9561 146.071 17.4447C146.071 16.9334 145.999 16.4902 145.855 16.1152C145.711 15.7364 145.503 15.4429 145.23 15.2345C144.957 15.0262 144.626 14.922 144.236 14.922C143.838 14.922 143.503 15.03 143.23 15.2459C142.957 15.458 142.751 15.7535 142.611 16.1322C142.471 16.511 142.401 16.9485 142.401 17.4447C142.401 17.9485 142.471 18.3841 142.611 18.7516C142.755 19.1152 142.961 19.3974 143.23 19.5982C143.503 19.7951 143.838 19.8936 144.236 19.8936ZM154.355 22.0072C153.457 22.0072 152.685 21.8254 152.037 21.4618C151.393 21.0944 150.897 20.5754 150.548 19.905C150.2 19.2307 150.026 18.4334 150.026 17.5129C150.026 16.6152 150.2 15.8273 150.548 15.1493C150.897 14.4713 151.387 13.9429 152.02 13.5641C152.656 13.1853 153.403 12.9959 154.259 12.9959C154.834 12.9959 155.37 13.0887 155.867 13.2743C156.367 13.4561 156.802 13.7307 157.173 14.0982C157.548 14.4656 157.84 14.9277 158.048 15.4845C158.257 16.0375 158.361 16.6853 158.361 17.4277V18.0925H150.992V16.5925H156.082C156.082 16.244 156.007 15.9353 155.855 15.6663C155.704 15.3974 155.493 15.1872 155.224 15.0357C154.959 14.8804 154.651 14.8027 154.298 14.8027C153.931 14.8027 153.605 14.8879 153.321 15.0584C153.041 15.225 152.821 15.4504 152.662 15.7345C152.503 16.0148 152.421 16.3273 152.418 16.672V18.0982C152.418 18.53 152.497 18.9031 152.656 19.2175C152.819 19.5319 153.048 19.7743 153.344 19.9447C153.639 20.1152 153.99 20.2004 154.395 20.2004C154.664 20.2004 154.91 20.1625 155.134 20.0868C155.357 20.011 155.548 19.8974 155.707 19.7459C155.867 19.5944 155.988 19.4088 156.071 19.1891L158.31 19.3368C158.196 19.8747 157.963 20.3444 157.611 20.7459C157.262 21.1436 156.812 21.4542 156.259 21.6777C155.709 21.8974 155.075 22.0072 154.355 22.0072ZM75.6023 30.2004V41.8368H73.1421V30.2004H75.6023ZM80.0015 36.7913V41.8368H77.581V33.1095H79.8878V34.6493H79.9901C80.1833 34.1417 80.5072 33.7402 80.9617 33.4447C81.4162 33.1455 81.9674 32.9959 82.6151 32.9959C83.2212 32.9959 83.7496 33.1285 84.2003 33.3936C84.6511 33.6588 85.0015 34.0375 85.2515 34.53C85.5015 35.0186 85.6265 35.6019 85.6265 36.28V41.8368H83.206V36.7118C83.2098 36.1777 83.0734 35.761 82.7969 35.4618C82.5204 35.1588 82.1397 35.0072 81.6549 35.0072C81.3291 35.0072 81.0412 35.0773 80.7912 35.2175C80.545 35.3576 80.3519 35.5622 80.2117 35.8311C80.0753 36.0963 80.0053 36.4163 80.0015 36.7913ZM92.1762 33.1095V34.9277H86.9205V33.1095H92.1762ZM88.1137 31.0186H90.5341V39.155C90.5341 39.3785 90.5682 39.5527 90.6364 39.6777C90.7046 39.7989 90.7993 39.8841 90.9205 39.9334C91.0455 39.9826 91.1894 40.0072 91.3523 40.0072C91.466 40.0072 91.5796 39.9978 91.6932 39.9788C91.8069 39.9561 91.894 39.9391 91.9546 39.9277L92.3353 41.7288C92.2141 41.7667 92.0436 41.8103 91.8239 41.8595C91.6042 41.9125 91.3372 41.9447 91.0228 41.9561C90.4394 41.9788 89.9281 41.9012 89.4887 41.7232C89.0531 41.5451 88.7141 41.2686 88.4716 40.8936C88.2292 40.5186 88.1099 40.0451 88.1137 39.4732V31.0186ZM97.6364 42.0072C96.7387 42.0072 95.966 41.8254 95.3182 41.4618C94.6743 41.0944 94.1781 40.5754 93.8296 39.905C93.4811 39.2307 93.3069 38.4334 93.3069 37.5129C93.3069 36.6152 93.4811 35.8273 93.8296 35.1493C94.1781 34.4713 94.6686 33.9429 95.3012 33.5641C95.9376 33.1853 96.6838 32.9959 97.5398 32.9959C98.1156 32.9959 98.6516 33.0887 99.1478 33.2743C99.6478 33.4561 100.083 33.7307 100.455 34.0982C100.83 34.4656 101.121 34.9277 101.33 35.4845C101.538 36.0375 101.642 36.6853 101.642 37.4277V38.0925H94.2728V36.5925H99.3637C99.3637 36.244 99.2879 35.9353 99.1364 35.6663C98.9849 35.3974 98.7747 35.1872 98.5057 35.0357C98.2406 34.8804 97.9319 34.8027 97.5796 34.8027C97.2122 34.8027 96.8864 34.8879 96.6023 35.0584C96.322 35.225 96.1023 35.4504 95.9432 35.7345C95.7841 36.0148 95.7027 36.3273 95.6989 36.672V38.0982C95.6989 38.53 95.7785 38.9031 95.9376 39.2175C96.1004 39.5319 96.3296 39.7743 96.6251 39.9447C96.9205 40.1152 97.2709 40.2004 97.6762 40.2004C97.9451 40.2004 98.1913 40.1625 98.4148 40.0868C98.6383 40.011 98.8296 39.8974 98.9887 39.7459C99.1478 39.5944 99.269 39.4088 99.3523 39.1891L101.591 39.3368C101.477 39.8747 101.244 40.3444 100.892 40.7459C100.544 41.1436 100.093 41.4542 99.5398 41.6777C98.9906 41.8974 98.3561 42.0072 97.6364 42.0072ZM103.222 41.8368V33.1095H105.568V34.6322H105.659C105.818 34.0906 106.085 33.6815 106.46 33.405C106.835 33.1247 107.267 32.9845 107.756 32.9845C107.877 32.9845 108.008 32.9921 108.148 33.0072C108.288 33.0224 108.411 33.0432 108.517 33.0697V35.2175C108.403 35.1834 108.246 35.1531 108.046 35.1266C107.845 35.1 107.661 35.0868 107.494 35.0868C107.138 35.0868 106.82 35.1644 106.54 35.3197C106.263 35.4713 106.044 35.6834 105.881 35.9561C105.722 36.2288 105.642 36.5432 105.642 36.8993V41.8368H103.222ZM112.189 36.7913V41.8368H109.769V33.1095H112.075V34.6493H112.178C112.371 34.1417 112.695 33.7402 113.149 33.4447C113.604 33.1455 114.155 32.9959 114.803 32.9959C115.409 32.9959 115.937 33.1285 116.388 33.3936C116.839 33.6588 117.189 34.0375 117.439 34.53C117.689 35.0186 117.814 35.6019 117.814 36.28V41.8368H115.394V36.7118C115.397 36.1777 115.261 35.761 114.984 35.4618C114.708 35.1588 114.327 35.0072 113.842 35.0072C113.517 35.0072 113.229 35.0773 112.979 35.2175C112.733 35.3576 112.539 35.5622 112.399 35.8311C112.263 36.0963 112.193 36.4163 112.189 36.7913ZM122.21 42.0016C121.653 42.0016 121.157 41.905 120.722 41.7118C120.286 41.5148 119.941 41.225 119.688 40.8425C119.438 40.4561 119.313 39.975 119.313 39.3993C119.313 38.9144 119.402 38.5072 119.58 38.1777C119.758 37.8482 120 37.583 120.307 37.3822C120.614 37.1815 120.962 37.03 121.352 36.9277C121.746 36.8254 122.159 36.7535 122.591 36.7118C123.099 36.6588 123.508 36.6095 123.818 36.5641C124.129 36.5148 124.354 36.4429 124.494 36.3482C124.635 36.2535 124.705 36.1133 124.705 35.9277V35.8936C124.705 35.5338 124.591 35.2554 124.364 35.0584C124.14 34.8614 123.822 34.7629 123.409 34.7629C122.974 34.7629 122.627 34.8595 122.369 35.0527C122.112 35.2421 121.941 35.4807 121.858 35.7686L119.619 35.5868C119.733 35.0565 119.956 34.5982 120.29 34.2118C120.623 33.8216 121.053 33.5224 121.58 33.3141C122.11 33.1019 122.724 32.9959 123.421 32.9959C123.905 32.9959 124.369 33.0527 124.813 33.1663C125.26 33.28 125.655 33.4561 126 33.6947C126.349 33.9334 126.623 34.2402 126.824 34.6152C127.025 34.9864 127.125 35.4315 127.125 35.9504V41.8368H124.83V40.6266H124.761C124.621 40.8993 124.434 41.1398 124.199 41.3482C123.964 41.5527 123.682 41.7137 123.352 41.8311C123.023 41.9447 122.642 42.0016 122.21 42.0016ZM122.903 40.3311C123.26 40.3311 123.574 40.261 123.847 40.1209C124.119 39.9769 124.333 39.7838 124.489 39.5413C124.644 39.2989 124.722 39.0243 124.722 38.7175V37.7913C124.646 37.8406 124.542 37.886 124.409 37.9277C124.28 37.9656 124.135 38.0016 123.972 38.0357C123.809 38.066 123.646 38.0944 123.483 38.1209C123.32 38.1436 123.172 38.1644 123.04 38.1834C122.756 38.225 122.508 38.2913 122.296 38.3822C122.083 38.4732 121.919 38.5963 121.801 38.7516C121.684 38.9031 121.625 39.0925 121.625 39.3197C121.625 39.6493 121.744 39.9012 121.983 40.0754C122.225 40.2459 122.532 40.3311 122.903 40.3311ZM133.645 33.1095V34.9277H128.389V33.1095H133.645ZM129.582 31.0186H132.003V39.155C132.003 39.3785 132.037 39.5527 132.105 39.6777C132.173 39.7989 132.268 39.8841 132.389 39.9334C132.514 39.9826 132.658 40.0072 132.821 40.0072C132.935 40.0072 133.048 39.9978 133.162 39.9788C133.276 39.9561 133.363 39.9391 133.423 39.9277L133.804 41.7288C133.683 41.7667 133.512 41.8103 133.293 41.8595C133.073 41.9125 132.806 41.9447 132.492 41.9561C131.908 41.9788 131.397 41.9012 130.957 41.7232C130.522 41.5451 130.183 41.2686 129.94 40.8936C129.698 40.5186 129.579 40.0451 129.582 39.4732V31.0186ZM135.222 41.8368V33.1095H137.642V41.8368H135.222ZM136.438 31.9845C136.078 31.9845 135.769 31.8652 135.511 31.6266C135.258 31.3841 135.131 31.0944 135.131 30.7572C135.131 30.4239 135.258 30.1379 135.511 29.8993C135.769 29.6569 136.078 29.5357 136.438 29.5357C136.797 29.5357 137.104 29.6569 137.358 29.8993C137.616 30.1379 137.744 30.4239 137.744 30.7572C137.744 31.0944 137.616 31.3841 137.358 31.6266C137.104 31.8652 136.797 31.9845 136.438 31.9845ZM143.524 42.0072C142.642 42.0072 141.878 41.8197 141.234 41.4447C140.594 41.066 140.1 40.5394 139.751 39.8652C139.403 39.1872 139.229 38.4012 139.229 37.5072C139.229 36.6057 139.403 35.8179 139.751 35.1436C140.1 34.4656 140.594 33.9391 141.234 33.5641C141.878 33.1853 142.642 32.9959 143.524 32.9959C144.407 32.9959 145.168 33.1853 145.808 33.5641C146.452 33.9391 146.948 34.4656 147.297 35.1436C147.645 35.8179 147.82 36.6057 147.82 37.5072C147.82 38.4012 147.645 39.1872 147.297 39.8652C146.948 40.5394 146.452 41.066 145.808 41.4447C145.168 41.8197 144.407 42.0072 143.524 42.0072ZM143.536 40.1322C143.937 40.1322 144.272 40.0186 144.541 39.7913C144.81 39.5603 145.013 39.2459 145.149 38.8482C145.289 38.4504 145.359 37.9978 145.359 37.4902C145.359 36.9826 145.289 36.53 145.149 36.1322C145.013 35.7345 144.81 35.4201 144.541 35.1891C144.272 34.958 143.937 34.8425 143.536 34.8425C143.13 34.8425 142.789 34.958 142.513 35.1891C142.24 35.4201 142.034 35.7345 141.894 36.1322C141.757 36.53 141.689 36.9826 141.689 37.4902C141.689 37.9978 141.757 38.4504 141.894 38.8482C142.034 39.2459 142.24 39.5603 142.513 39.7913C142.789 40.0186 143.13 40.1322 143.536 40.1322ZM151.814 36.7913V41.8368H149.394V33.1095H151.7V34.6493H151.803C151.996 34.1417 152.32 33.7402 152.774 33.4447C153.229 33.1455 153.78 32.9959 154.428 32.9959C155.034 32.9959 155.562 33.1285 156.013 33.3936C156.464 33.6588 156.814 34.0375 157.064 34.53C157.314 35.0186 157.439 35.6019 157.439 36.28V41.8368H155.019V36.7118C155.022 36.1777 154.886 35.761 154.609 35.4618C154.333 35.1588 153.952 35.0072 153.467 35.0072C153.142 35.0072 152.854 35.0773 152.604 35.2175C152.358 35.3576 152.164 35.5622 152.024 35.8311C151.888 36.0963 151.818 36.4163 151.814 36.7913ZM161.835 42.0016C161.278 42.0016 160.782 41.905 160.347 41.7118C159.911 41.5148 159.566 41.225 159.313 40.8425C159.063 40.4561 158.938 39.975 158.938 39.3993C158.938 38.9144 159.027 38.5072 159.205 38.1777C159.383 37.8482 159.625 37.583 159.932 37.3822C160.239 37.1815 160.587 37.03 160.977 36.9277C161.371 36.8254 161.784 36.7535 162.216 36.7118C162.724 36.6588 163.133 36.6095 163.443 36.5641C163.754 36.5148 163.979 36.4429 164.119 36.3482C164.26 36.2535 164.33 36.1133 164.33 35.9277V35.8936C164.33 35.5338 164.216 35.2554 163.989 35.0584C163.765 34.8614 163.447 34.7629 163.034 34.7629C162.599 34.7629 162.252 34.8595 161.994 35.0527C161.737 35.2421 161.566 35.4807 161.483 35.7686L159.244 35.5868C159.358 35.0565 159.581 34.5982 159.915 34.2118C160.248 33.8216 160.678 33.5224 161.205 33.3141C161.735 33.1019 162.349 32.9959 163.046 32.9959C163.53 32.9959 163.994 33.0527 164.438 33.1663C164.885 33.28 165.28 33.4561 165.625 33.6947C165.974 33.9334 166.248 34.2402 166.449 34.6152C166.65 34.9864 166.75 35.4315 166.75 35.9504V41.8368H164.455V40.6266H164.386C164.246 40.8993 164.059 41.1398 163.824 41.3482C163.589 41.5527 163.307 41.7137 162.977 41.8311C162.648 41.9447 162.267 42.0016 161.835 42.0016ZM162.528 40.3311C162.885 40.3311 163.199 40.261 163.472 40.1209C163.744 39.9769 163.958 39.7838 164.114 39.5413C164.269 39.2989 164.347 39.0243 164.347 38.7175V37.7913C164.271 37.8406 164.167 37.886 164.034 37.9277C163.905 37.9656 163.76 38.0016 163.597 38.0357C163.434 38.066 163.271 38.0944 163.108 38.1209C162.945 38.1436 162.797 38.1644 162.665 38.1834C162.381 38.225 162.133 38.2913 161.921 38.3822C161.708 38.4732 161.544 38.5963 161.426 38.7516C161.309 38.9031 161.25 39.0925 161.25 39.3197C161.25 39.6493 161.369 39.9012 161.608 40.0754C161.85 40.2459 162.157 40.3311 162.528 40.3311ZM171.048 30.2004V41.8368H168.628V30.2004H171.048ZM174.402 41.9845C174.027 41.9845 173.705 41.8519 173.436 41.5868C173.171 41.3179 173.038 40.9959 173.038 40.6209C173.038 40.2497 173.171 39.9315 173.436 39.6663C173.705 39.4012 174.027 39.2686 174.402 39.2686C174.766 39.2686 175.084 39.4012 175.357 39.6663C175.629 39.9315 175.766 40.2497 175.766 40.6209C175.766 40.8709 175.701 41.1 175.572 41.3084C175.447 41.5129 175.283 41.6777 175.078 41.8027C174.874 41.9239 174.648 41.9845 174.402 41.9845Z" fill="#173662"/>
</svg>
