<svg width="57" height="47" viewBox="0 0 57 47" fill="none" xmlns="http://www.w3.org/2000/svg">
  <path
    d="M46.5457 15.2642C46.5457 19.3529 46.5457 23.4518 46.5457 27.5405C46.5457 28.8566 46.7466 30.1626 46.6964 31.4887C46.6562 32.4029 46.5558 33.307 46.0334 34.0806C45.6516 34.6532 45.1895 35.1756 44.7374 35.698C43.3711 37.2752 41.8341 38.6817 40.1765 39.9475C38.3883 41.3037 36.4795 42.4892 34.4602 43.4737C32.8528 44.2673 31.1852 44.9203 29.4874 45.503C28.7841 45.7441 28.1211 45.714 27.4781 45.4327C24.8662 44.3075 22.2341 43.2225 19.823 41.6955C17.0904 39.9575 14.6091 37.9182 12.5094 35.4368C12.0774 34.9345 11.6254 34.4422 11.2637 33.8796C10.8618 33.2668 10.6911 32.5837 10.6207 31.8604C10.4901 30.6146 10.6408 29.379 10.6308 28.1433C10.6207 19.5438 10.6207 10.9443 10.6207 2.34483C10.6207 2.00327 10.671 1.83248 11.0728 1.80234C12.3688 1.71193 13.6647 1.58133 14.9607 1.46077C16.3169 1.33017 17.6731 1.17948 19.0294 1.03884C20.3655 0.898191 21.6916 0.777637 23.0277 0.636991C24.4944 0.486299 25.9712 0.3557 27.4279 0.144731C28.4526 -0.0059611 29.4472 0.114592 30.4619 0.205008C31.6372 0.315515 32.8026 0.436069 33.978 0.556622C35.6457 0.727407 37.3133 0.898191 38.981 1.06897C40.6386 1.22971 42.2962 1.39045 43.9538 1.55119C44.7173 1.62151 45.4708 1.70188 46.2343 1.78225C46.4453 1.80234 46.5457 1.9028 46.5457 2.12382C46.5357 2.48548 46.5457 2.84714 46.5457 3.21885C46.5457 7.22725 46.5457 11.2457 46.5457 15.2642Z"
    fill="#183660" />
  <path
    d="M13.9756 45.0712C14.5281 45.031 15.1309 45.1214 15.7437 45.1515C16.0451 45.1616 16.0853 45.252 15.9045 45.5232C15.4423 46.2265 14.7592 46.5982 13.9656 46.769C12.7399 47.0402 11.5243 46.9498 10.3289 46.5881C9.97724 46.4877 9.96719 46.3972 10.2183 46.1059C10.7608 45.5031 11.4842 45.2821 12.2477 45.1415C12.8002 45.0611 13.3527 45.0611 13.9756 45.0712Z"
    fill="white" />
  <path
    d="M43.4006 45.0005C44.2645 45.0105 45.1285 45.0608 45.9322 45.4425C46.2838 45.6033 46.5651 45.8444 46.756 46.1759C46.8665 46.3768 46.8263 46.5074 46.5952 46.5677C45.3294 46.8691 44.0636 47.0499 42.7878 46.6079C42.1749 46.3969 41.6927 46.0252 41.3712 45.4526C41.2607 45.2516 41.2808 45.1713 41.532 45.1411C42.1548 45.0507 42.7777 45.0005 43.4006 45.0005Z"
    fill="white" />
  <path
    d="M10.4095 43.343C11.384 43.333 12.2279 43.4636 13.0818 43.6343C13.3229 43.6846 13.3129 43.7549 13.1923 43.9156C12.7704 44.4883 12.1676 44.7997 11.5046 44.9604C10.2086 45.2618 8.94279 45.0508 7.71717 44.5887C7.51624 44.5084 7.51624 44.3979 7.64684 44.2472C7.98841 43.8453 8.4204 43.6243 8.9227 43.4937C9.43505 43.3731 9.9675 43.3129 10.4095 43.343Z"
    fill="white" />
  <path
    d="M15.503 42.6599C15.503 41.595 15.945 40.9621 16.7085 40.52C16.829 40.4497 16.9697 40.3492 17.0902 40.5401C17.6528 41.4242 18.135 42.7 17.4519 43.8252C17.251 44.1567 16.9697 44.3978 16.6884 44.649C16.5678 44.7494 16.4372 44.7896 16.3368 44.6289C15.9249 43.9759 15.4527 43.343 15.503 42.6599Z"
    fill="white" />
  <path
    d="M46.5553 45.061C45.631 45.0208 44.757 44.7897 44.094 44.0262C43.8227 43.7148 43.8328 43.6143 44.2346 43.544C45.4301 43.333 46.6256 43.112 47.8412 43.4033C48.3133 43.5139 48.7353 43.7047 49.0668 44.0865C49.2979 44.3477 49.2778 44.4481 48.9563 44.5787C48.2028 44.8801 47.4092 45.0208 46.5553 45.061Z"
    fill="white" />
  <path
    d="M8.3809 43.1124C7.32606 43.0722 6.43195 42.821 5.56799 42.4292C5.2867 42.2986 5.33693 42.1479 5.53785 41.9872C6.27122 41.3744 7.15528 41.294 8.05943 41.3442C8.86312 41.3945 9.63667 41.5753 10.4203 41.7762C10.5609 41.8164 10.7518 41.8164 10.802 41.9771C10.8422 42.1178 10.6714 42.2082 10.571 42.2986C9.91796 42.8813 9.12432 43.0521 8.3809 43.1124Z"
    fill="white" />
  <path
    d="M41.8836 42.4389C41.8334 43.1923 41.5018 43.8956 41.0297 44.5385C40.889 44.7294 40.7886 44.6892 40.6379 44.5586C39.794 43.8654 39.5026 42.901 39.8241 41.8261C39.9447 41.4142 40.1255 41.0324 40.3365 40.6607C40.4872 40.3995 40.6479 40.3694 40.879 40.5301C41.5018 40.9922 41.8534 41.595 41.8836 42.4389Z"
    fill="white" />
  <path
    d="M13.162 41.4647C13.152 40.3295 13.604 39.6061 14.5182 39.2143C14.689 39.134 14.8297 39.1038 14.9201 39.3148C15.5028 40.5907 15.6032 42.2181 14.0762 43.1524C13.8451 43.2931 13.7145 43.2629 13.604 43.0319C13.3529 42.4994 13.1017 41.977 13.162 41.4647Z"
    fill="white" />
  <path
    d="M48.9664 41.304C50.0112 41.304 50.7144 41.4145 51.2569 41.9871C51.3573 42.0976 51.4679 42.1981 51.2569 42.2985C50.0413 42.9113 48.7956 43.3031 47.4293 42.8209C47.0476 42.6903 46.716 42.4593 46.4247 42.188C46.264 42.0273 46.1534 41.9067 46.5051 41.7962C47.4092 41.5049 48.3234 41.314 48.9664 41.304Z"
    fill="white" />
  <path
    d="M5.50669 39.124C6.48117 39.1441 7.49583 39.4756 8.51048 39.8674C8.71141 39.9478 8.71141 40.0181 8.56072 40.1487C7.91776 40.7013 7.17435 40.9323 6.34052 40.9022C5.39618 40.862 4.54226 40.5506 3.72852 40.0583C3.46733 39.9076 3.47737 39.7871 3.68834 39.6263C4.20069 39.2546 4.77332 39.124 5.50669 39.124Z"
    fill="white" />
  <path
    d="M44.1045 41.4646C44.0643 41.9066 43.8835 42.4792 43.6022 43.0317C43.4917 43.2427 43.351 43.2025 43.2003 43.1121C42.5473 42.7002 42.1756 42.1075 42.0952 41.334C42.0249 40.6709 42.1756 40.048 42.4268 39.4352C42.5674 39.1037 42.7382 39.1037 42.9994 39.2544C43.783 39.7065 44.1145 40.3997 44.1045 41.4646Z"
    fill="white" />
  <path
    d="M10.9825 40.1386C10.9725 38.9432 11.4848 38.1093 12.4191 37.7276C12.8109 37.5668 12.8611 37.607 12.9616 38.029C13.1123 38.6116 13.1625 39.1843 13.0219 39.777C12.8411 40.5405 12.3287 41.0328 11.6958 41.4246C11.4245 41.5953 11.2538 41.515 11.1734 41.2136C11.083 40.8419 10.9423 40.4802 10.9825 40.1386Z"
    fill="white" />
  <path
    d="M20.6768 46.7388C20.0941 46.6484 19.5516 46.4374 18.9991 46.2365C16.9597 45.4831 15.0107 44.5387 13.1823 43.3633C10.9019 41.8865 8.89264 40.1184 7.23503 37.9485C5.75825 36.0196 4.65317 33.8999 3.98008 31.5591C3.59833 30.233 3.35722 28.8868 3.2869 27.5005C3.23667 26.6265 3.19648 25.7524 3.29695 24.8784C3.30699 24.7981 3.26681 24.6976 3.4175 24.6373C3.50791 24.9086 3.46773 25.1798 3.43759 25.441C3.30699 27.0082 3.48782 28.5453 3.78921 30.0723C4.40202 33.1464 5.76829 35.879 7.73734 38.29C8.93283 39.7568 10.3292 41.0427 11.8563 42.1779C12.9513 42.9916 14.1066 43.735 15.3121 44.3679C16.7487 45.1314 18.2456 45.7844 19.7827 46.3169C20.084 46.4173 20.3854 46.5379 20.6868 46.6484C20.6968 46.6785 20.6868 46.7087 20.6768 46.7388Z"
    fill="white" />
  <path
    d="M50.3932 40.8516C49.7201 40.8315 49.0571 40.6808 48.5246 40.1785C48.394 40.0479 48.2835 39.9274 48.5347 39.8269C49.5996 39.3849 50.6845 39.0131 51.87 39.1337C52.302 39.1739 52.6938 39.3045 53.0253 39.6159C53.186 39.7767 53.1659 39.8972 52.9851 39.9977C52.2015 40.4698 51.3677 40.8215 50.3932 40.8516Z"
    fill="white" />
  <path
    d="M36.8307 46.6982C36.8307 46.5877 36.9212 46.5575 37.0015 46.5274C38.8701 45.9045 40.6583 45.0807 42.3662 44.0962C43.6018 43.3829 44.7772 42.5692 45.8823 41.665C47.5701 40.2787 49.0368 38.6914 50.2624 36.8831C51.1565 35.5771 51.8698 34.1706 52.4324 32.6939C52.9849 31.2472 53.3365 29.7503 53.5274 28.2133C53.658 27.1685 53.7183 26.1136 53.6982 25.0588C53.6982 24.9282 53.648 24.7875 53.7484 24.667C53.869 24.7072 53.8489 24.8076 53.8489 24.888C53.869 25.983 53.8589 27.068 53.7082 28.153C53.5576 29.2279 53.3566 30.3029 53.0553 31.3477C52.3621 33.7186 51.2771 35.8885 49.7903 37.8676C48.1929 40.0074 46.2641 41.7956 44.0439 43.2825C41.9141 44.7191 39.6236 45.8241 37.1924 46.6479C37.0719 46.6881 36.9613 46.7685 36.8307 46.6982Z"
    fill="white" />
  <path
    d="M5.01487 38.5313C3.89974 38.5012 3.00564 38.1194 2.1919 37.5066C1.94075 37.3157 2.09144 37.1851 2.26222 37.0746C2.65402 36.8335 3.09605 36.723 3.55818 36.733C4.6733 36.7632 5.68796 37.1449 6.65238 37.6673C6.8734 37.7879 6.81312 37.8683 6.65238 37.9788C6.12999 38.3404 5.54731 38.5112 5.01487 38.5313Z"
    fill="white" />
  <path
    d="M46.1738 39.8979C46.1838 40.3701 46.0633 40.8121 45.9126 41.2542C45.8222 41.5053 45.7016 41.5455 45.4605 41.4049C44.5061 40.8021 44.044 39.8075 44.2148 38.6723C44.255 38.4111 44.3052 38.16 44.3655 37.8988C44.4157 37.6476 44.5463 37.5773 44.7975 37.6777C45.6614 38.0193 46.1738 38.8431 46.1738 39.8979Z"
    fill="white" />
  <path
    d="M11.2133 36.8931C11.2032 38.0886 10.6708 38.9325 9.66615 39.485C9.25426 39.706 9.16385 39.6658 9.09352 39.2138C8.94283 38.3096 9.04329 37.4657 9.65611 36.7424C9.96754 36.3707 10.3694 36.1497 10.8114 35.999C11.0123 35.9287 11.1429 35.9789 11.163 36.23C11.1731 36.4611 11.2434 36.6922 11.2133 36.8931Z"
    fill="white" />
  <path
    d="M51.9608 38.4611C51.3379 38.4812 50.7753 38.3204 50.273 37.9286C50.1424 37.8282 50.0821 37.7478 50.2931 37.6373C51.2776 37.125 52.2622 36.6327 53.4175 36.703C53.8093 36.7231 54.1609 36.8336 54.4823 37.0446C54.623 37.135 54.7335 37.2455 54.5426 37.3962C53.96 37.8583 52.9453 38.5314 51.9608 38.4611Z"
    fill="white" />
  <path
    d="M2.3424 34.1606C3.17623 34.2209 3.96987 34.5625 4.73338 35.0146C4.87402 35.0949 5.00462 35.1954 5.14527 35.2657C5.40647 35.3963 5.33614 35.5269 5.13522 35.6274C4.12056 36.1598 3.11595 36.1096 2.12138 35.5671C1.74967 35.3662 1.41815 35.0949 1.09668 34.8136C0.885707 34.6228 0.95603 34.5424 1.14691 34.4319C1.49852 34.241 1.88027 34.1707 2.3424 34.1606Z"
    fill="white" />
  <path
    d="M46.0931 36.9841C46.0931 36.7732 46.083 36.5622 46.0931 36.3512C46.1232 35.9594 46.2437 35.8891 46.5954 36.0398C47.5698 36.4416 47.9717 37.2252 48.052 38.2098C48.0822 38.5714 48.0119 38.9331 47.9516 39.2847C47.9014 39.5861 47.7507 39.6263 47.5096 39.4957C46.6757 39.0235 46.1131 38.3705 46.083 37.3659C46.083 37.2353 46.083 37.1147 46.0931 36.9841C46.083 36.9841 46.083 36.9841 46.0931 36.9841Z"
    fill="white" />
  <path
    d="M7.30548 36.9438C7.31553 35.5976 8.00871 34.5729 9.16402 34.2012C9.60605 34.0606 9.63618 34.0706 9.62614 34.5327C9.60605 35.7885 9.14392 36.8032 7.94843 37.3557C7.36576 37.6269 7.30548 37.5868 7.30548 36.9438Z"
    fill="white" />
  <path
    d="M54.5015 34.1508C54.8833 34.1408 55.255 34.2011 55.5765 34.4221C55.697 34.5024 55.7573 34.5728 55.6568 34.7235C55.0038 35.6979 53.1955 36.2505 52.1106 35.7783C51.9297 35.6979 51.6685 35.6377 51.6484 35.4367C51.6283 35.2559 51.8895 35.1655 52.0402 35.0751C52.8037 34.623 53.5672 34.1709 54.5015 34.1508Z"
    fill="white" />
  <path
    d="M47.5901 34.6028C47.56 33.9096 47.6805 34.0101 48.2733 34.2713C49.2779 34.7133 49.6094 35.5873 49.6998 36.602C49.7099 36.6924 49.7099 36.7828 49.6998 36.8632C49.6797 37.054 49.8003 37.3152 49.5993 37.4157C49.3783 37.5262 49.1372 37.3655 48.9363 37.2349C48.0121 36.6622 47.5901 35.7882 47.5901 34.6028Z"
    fill="white" />
  <path
    d="M1.41865 31.5092C2.49358 31.5997 3.3475 32.1421 4.10096 32.8554C4.30189 33.0463 4.05073 33.0865 3.96032 33.1267C3.3676 33.3979 2.75478 33.4682 2.13192 33.2874C1.44878 33.0965 0.916339 32.6645 0.454217 32.1422C0.21311 31.8709 0.253294 31.7704 0.604909 31.6398C0.866108 31.5494 1.12731 31.4892 1.41865 31.5092Z"
    fill="white" />
  <path
    d="M8.4308 32.3829C8.24997 33.6789 7.63716 34.7739 6.24075 35.1858C6.09005 35.226 5.84895 35.3466 5.86904 34.9949C5.94941 33.7291 6.6225 32.4533 8.04905 32.1619C8.24997 32.1217 8.44085 32.0715 8.4308 32.3829Z"
    fill="white" />
  <path
    d="M53.9497 33.3275C53.6182 33.3476 53.2766 33.2572 52.9451 33.0965C52.7542 33.006 52.694 32.9056 52.8848 32.7549C53.568 32.1823 54.2813 31.6498 55.1955 31.4891C55.5873 31.4188 55.9389 31.5192 56.2905 31.6599C56.4914 31.7402 56.4713 31.8407 56.3708 32.0115C55.8987 32.7448 54.8539 33.3275 53.9497 33.3275Z"
    fill="white" />
  <path
    d="M51.1162 34.9748C51.1363 35.236 50.9756 35.236 50.8048 35.1757C49.8805 34.8542 49.2376 34.2414 48.9663 33.2971C48.886 33.0057 48.8056 32.7144 48.8056 32.413C48.8056 32.1819 48.8659 32.1016 49.117 32.1518C50.1116 32.3326 50.9153 33.2669 51.0559 34.4222C51.076 34.6031 51.0961 34.7839 51.1162 34.9748Z"
    fill="white" />
  <path
    d="M7.23462 30.0123C7.4054 30.0022 7.536 30.0223 7.46568 30.2534C7.1643 31.4288 6.54144 32.3229 5.34595 32.7247C5.21535 32.7649 5.0747 32.785 4.9441 32.795C4.79341 32.8051 4.73313 32.7247 4.76327 32.5841C5.01443 31.4489 5.66742 30.3237 7.01361 30.0324C7.07388 30.0123 7.15425 30.0223 7.23462 30.0123Z"
    fill="white" />
  <path
    d="M2.36257 30.6452C1.31778 30.6853 0.524131 30.0323 0.0519624 29.2186C-0.118822 28.9273 0.172516 28.877 0.333254 28.8268C0.895838 28.646 1.42828 28.7766 1.93059 29.0478C2.44294 29.3191 2.87493 29.7008 3.28682 30.1127C3.50783 30.3337 3.43751 30.4442 3.17631 30.5246C2.91511 30.5949 2.64386 30.6351 2.36257 30.6452Z"
    fill="white" />
  <path
    d="M50.1113 30.012C50.8145 30.1024 51.3469 30.5143 51.7287 31.1472C51.9698 31.549 52.1205 31.981 52.2008 32.4431C52.2611 32.7947 52.2109 32.845 51.8593 32.7445C50.9149 32.4833 50.3122 31.8705 49.9606 30.9764C49.8802 30.7755 49.83 30.5745 49.7797 30.3636C49.6893 30.0421 49.7195 30.0019 50.1113 30.012Z"
    fill="white" />
  <path
    d="M54.3707 30.6246C54.1698 30.6246 53.7277 30.6648 53.6172 30.3534C53.5268 30.0922 53.9086 29.851 54.1396 29.6501C54.6018 29.2483 55.0739 28.8565 55.7269 28.7761C55.8374 28.7661 55.9479 28.746 56.0584 28.746C56.3397 28.746 56.6612 28.7862 56.8019 29.0172C56.9124 29.2181 56.6411 29.409 56.5105 29.5798C55.9982 30.2328 55.3653 30.6547 54.3707 30.6246Z"
    fill="white" />
  <path
    d="M4.29051 30.2435C4.10968 30.2335 3.9389 30.2536 4.03936 30.0024C4.47134 28.9174 5.07411 28.0233 6.31983 27.7822C6.42029 27.7621 6.52075 27.7621 6.62121 27.7521C6.90251 27.7219 6.9226 27.8827 6.83218 28.0735C6.48057 28.817 6.06868 29.5101 5.31522 29.9321C4.9837 30.123 4.63208 30.1832 4.29051 30.2435Z"
    fill="white" />
  <path
    d="M2.34219 27.8523C1.20698 27.9527 0.443471 27.1591 0.101903 26.3654C-0.0286972 26.0641 0.222456 25.9937 0.443471 25.9636C1.00605 25.8732 1.49832 26.0741 1.96044 26.3755C2.34219 26.6266 2.61344 26.9883 2.90477 27.3299C3.14588 27.6212 3.0856 27.7518 2.7139 27.8221C2.59334 27.8422 2.46274 27.8422 2.34219 27.8523Z"
    fill="white" />
  <path
    d="M50.7249 27.7519C51.4884 27.8523 52.051 28.2642 52.4729 28.8971C52.6839 29.2085 52.8547 29.5401 52.9652 29.9017C53.0757 30.2533 52.8948 30.2734 52.6537 30.2232C51.9505 30.0826 51.3678 29.7309 50.966 29.1282C50.755 28.8167 50.5943 28.4852 50.4536 28.1236C50.3331 27.8322 50.3632 27.7016 50.7249 27.7519Z"
    fill="white" />
  <path
    d="M54.8029 27.8417C54.4714 27.8417 54.1098 27.8919 53.9792 27.6709C53.8586 27.4599 54.17 27.2389 54.3207 27.0681C54.823 26.4653 55.3856 25.9228 56.2596 25.953C56.8524 25.9731 56.9528 26.1539 56.6313 26.6562C56.1994 27.3393 55.6669 27.9019 54.8029 27.8417Z"
    fill="white" />
  <path
    d="M4.11003 27.611C3.60772 27.621 3.55749 27.5507 3.74837 27.2192C4.26072 26.3452 4.88358 25.5917 5.97861 25.4511C6.03889 25.441 6.09917 25.431 6.16949 25.431C6.56129 25.4109 6.62156 25.4913 6.43069 25.8228C5.96857 26.6265 5.3658 27.2795 4.44155 27.5507C4.30091 27.5809 4.15022 27.6009 4.11003 27.611Z"
    fill="white" />
  <path
    d="M2.56322 25.0394C1.39787 25.0796 0.805148 24.3764 0.513811 23.4722C0.433441 23.2311 0.574087 23.1809 0.754918 23.1608C1.30746 23.0905 1.79972 23.211 2.21161 23.6028C2.4929 23.8741 2.74405 24.1654 2.92488 24.507C3.16599 24.939 3.12581 25.0193 2.63354 25.0394C2.58331 25.0495 2.53308 25.0394 2.56322 25.0394Z"
    fill="white" />
  <path
    d="M52.9542 27.6009C52.2008 27.5205 51.608 27.0182 51.1459 26.325C51.0354 26.1643 50.945 25.9835 50.8546 25.8026C50.7139 25.5113 50.7742 25.4108 51.1057 25.4309C51.7286 25.4611 52.2409 25.7323 52.6528 26.1744C52.9442 26.4858 53.1853 26.8374 53.346 27.2392C53.4867 27.6009 53.4666 27.621 52.9542 27.6009Z"
    fill="white" />
  <path
    d="M3.00538 22.99C2.98529 22.136 3.34695 21.473 3.79903 20.8401C3.92963 20.6593 4.05018 20.6994 4.13055 20.8803C4.26115 21.1616 4.29129 21.4529 4.28124 21.7643C4.24106 22.6383 3.93967 23.4219 3.53783 24.1855C3.42732 24.3964 3.37709 24.296 3.29672 24.1654C3.05561 23.7836 2.98529 23.3717 3.00538 22.99Z"
    fill="white" />
  <path
    d="M54.6028 25.0395C54.442 25.0194 54.1608 25.1198 54.0603 24.8988C53.9799 24.718 54.1909 24.5372 54.2914 24.3764C54.5927 23.8741 54.9343 23.412 55.517 23.2211C55.8184 23.1207 56.2202 23.0001 56.4312 23.2914C56.602 23.5325 56.391 23.8741 56.2202 24.1152C55.8284 24.6577 55.3763 25.0897 54.6028 25.0395Z"
    fill="white" />
  <path
    d="M3.99953 24.9589C3.84884 24.9388 3.69815 24.9991 3.61778 24.8886C3.52736 24.7379 3.69815 24.6475 3.76847 24.537C4.26073 23.7735 4.91373 23.221 5.83797 23.0502C5.89825 23.0401 5.95853 23.02 6.0188 23.02C6.18959 23.01 6.4106 22.9799 6.50102 23.1406C6.58139 23.2812 6.40056 23.4018 6.32019 23.5223C5.80784 24.2155 5.18498 24.758 4.31096 24.9188C4.19041 24.9389 4.0799 24.9489 3.99953 24.9589Z"
    fill="white" />
  <path
    d="M53.0147 21.8145C52.9946 21.5332 53.0348 21.2017 53.1654 20.8902C53.2357 20.7395 53.3161 20.6893 53.4367 20.84C54.0997 21.6537 54.4212 23.1305 53.9189 24.0447C53.8686 24.1351 53.8285 24.2456 53.728 24.2557C53.6074 24.2657 53.5873 24.1351 53.5472 24.0447C53.2257 23.4219 53.0147 22.5679 53.0147 21.8145Z"
    fill="white" />
  <path
    d="M53.2064 24.9584C52.3123 24.9383 51.1871 24.1347 50.8556 23.3008C50.7853 23.13 50.8656 23.0999 50.9962 23.0798C51.4081 22.9894 51.7899 23.11 52.1515 23.3008C52.7141 23.5922 53.0959 24.0643 53.4274 24.5867C53.4877 24.6771 53.5881 24.7776 53.5178 24.8881C53.4375 24.9986 53.3068 24.9484 53.2064 24.9584Z"
    fill="white" />
  <path
    d="M45.7221 15.9677C45.7221 20.2574 45.7221 24.5571 45.7322 28.8468C45.7322 29.4194 45.8125 29.9921 45.8527 30.5647C45.903 31.5291 45.8427 32.4735 45.4509 33.3676C45.3002 33.6991 45.029 33.9804 44.7979 34.2818C42.9996 36.502 40.91 38.4007 38.5793 40.0482C36.7308 41.3542 34.7618 42.4493 32.6923 43.3635C31.4868 43.8959 30.2511 44.3279 29.0054 44.7599C28.4528 44.9508 28.0108 44.7096 27.5688 44.5288C26.2326 43.9662 24.8965 43.3836 23.5905 42.7607C21.4306 41.736 19.4214 40.4903 17.5327 39.0235C15.5837 37.5066 13.8558 35.7786 12.2986 33.8498C11.716 33.1265 11.4548 32.3027 11.4648 31.4086C11.5251 28.4148 11.5251 25.411 11.5251 22.4173C11.5251 16.0078 11.5251 9.58837 11.5251 3.17894C11.5251 2.63644 11.5251 2.64649 12.0877 2.59626C13.5444 2.46566 15.0011 2.31497 16.4577 2.17432C17.6331 2.06382 18.7985 1.96335 19.9739 1.8428C21.4808 1.69211 22.9877 1.50123 24.4947 1.36059C26.0317 1.21994 27.5487 0.878372 29.0958 0.958741C30.4721 1.02906 31.8384 1.21994 33.2047 1.36059C34.3901 1.48114 35.5755 1.59165 36.761 1.7122C38.3583 1.87294 39.9456 2.04372 41.5429 2.20446C42.8088 2.33506 44.0846 2.47571 45.3504 2.58621C45.6719 2.61635 45.7221 2.757 45.7221 3.03829C45.7121 7.33804 45.7121 11.6579 45.7221 15.9677Z"
    fill="white" />
  <path
    d="M13.6537 19.6342C13.6537 18.9711 13.6437 18.3081 13.6437 17.635C13.6437 13.6969 13.6437 9.75883 13.6437 5.82075C13.6437 5.27825 13.6437 5.25816 14.156 5.21798C15.5022 5.08738 16.8484 4.98692 18.1946 4.85632C19.7417 4.70562 21.2888 4.54489 22.8258 4.38415C24.5538 4.20332 26.2817 4.01244 28.0096 3.80147C29.0745 3.67087 30.0992 3.91198 31.144 3.99235C32.5907 4.10286 34.0373 4.26359 35.484 4.40424C36.8301 4.54489 38.1763 4.69558 39.5125 4.82618C40.6577 4.94673 41.803 5.05724 42.9482 5.14765C43.5912 5.19788 43.5912 5.17779 43.5912 5.82075C43.5912 10.2712 43.5912 14.7317 43.5912 19.1821C43.5912 19.3328 43.5811 19.4835 43.5811 19.6342C43.4505 19.7949 43.2697 19.7648 43.0889 19.7648C41.9135 19.7648 40.728 19.7648 39.5527 19.7648C31.1139 19.7648 22.6852 19.7648 14.2464 19.7648C14.0455 19.7648 13.8145 19.8251 13.6537 19.6342Z"
    fill="#173664" />
  <path
    d="M13.694 30.9164C13.5835 30.826 13.6437 30.7155 13.6337 30.615C13.7643 30.5547 13.9049 30.5849 14.0456 30.5849C17.8933 30.5849 21.7409 30.5849 25.5886 30.5849C25.7192 30.5849 25.8598 30.615 25.9704 30.5648C25.8799 30.615 25.7694 30.5849 25.6589 30.5849C21.761 30.5849 17.8631 30.5849 13.9652 30.5849C13.8547 30.5849 13.7342 30.615 13.6337 30.5547C13.6337 30.4844 13.6237 30.404 13.6237 30.3337C13.7844 30.1629 13.9954 30.2132 14.1963 30.2132C17.7828 30.2132 21.3692 30.2132 24.9657 30.2132C25.2269 30.2132 25.4881 30.1931 25.7493 30.1328C26.3119 29.8917 26.5932 30.1027 26.5832 30.7356C26.5731 31.0771 26.5832 31.3785 26.9247 31.6397C27.196 31.8507 27.4069 32.1219 27.7586 32.2626C28.1202 32.4133 28.2106 32.8252 28.3613 33.1667C28.4015 33.1969 28.4417 33.237 28.4718 33.2672C28.6527 33.3676 28.7933 33.3275 28.9139 33.1567C29.0244 32.9959 29.165 32.8553 29.3559 32.785C29.386 32.7749 29.4262 32.7749 29.4564 32.7749C29.8683 32.8452 30.0993 32.5338 30.3002 32.2827C30.4911 32.0416 30.6117 31.7301 30.5916 31.3785C30.5715 31.0771 30.7523 30.9465 31.2647 30.8159C35.2128 30.8059 39.1609 30.8159 43.1091 30.8159C43.2798 30.8159 43.4607 30.7858 43.6013 30.9365C43.6013 31.71 43.1693 32.2726 42.7173 32.8352C41.2807 34.6636 39.5728 36.2107 37.7143 37.587C36.4183 38.5514 35.0119 39.3652 33.5652 40.0885C32.1688 40.7817 30.7322 41.3644 29.2554 41.8566C28.7833 42.0174 28.3312 42.0475 27.8691 41.8466C25.7393 40.9123 23.5693 40.0584 21.5802 38.8227C19.5408 37.5569 17.6522 36.0901 15.9945 34.3421C15.3918 33.6992 14.8091 33.0462 14.2767 32.353C13.9652 31.921 13.7241 31.4589 13.694 30.9164C13.7944 30.8561 13.8949 30.8762 13.9954 30.8762C17.8832 30.8762 21.7711 30.8762 25.6589 30.8762C25.7292 30.8762 25.7996 30.8662 25.8297 30.8762C23.0067 30.8762 20.1335 30.8762 17.2704 30.8762C16.2055 30.8762 15.1406 30.8762 14.0757 30.8762C13.9451 30.8762 13.8145 30.8461 13.694 30.9164Z"
    fill="#173662" />
  <path
    d="M43.5818 25.1899C43.5818 25.2702 43.5818 25.3506 43.5818 25.431C43.4613 25.4913 43.3307 25.4611 43.2101 25.4611C39.0309 25.4611 34.8517 25.4611 30.6726 25.4611C30.5621 25.4611 30.4315 25.5214 30.3511 25.431C30.4415 25.5013 30.5821 25.4611 30.7027 25.4611C34.8618 25.4611 39.0109 25.4611 43.17 25.4611C43.3106 25.4611 43.4412 25.441 43.5818 25.4812C43.622 25.662 43.612 25.8429 43.5919 26.0237C43.4814 26.0739 43.3709 26.0538 43.2604 26.0538C39.0109 26.0538 34.7613 26.0538 30.5118 26.0538C30.4114 26.0538 30.3009 26.084 30.1502 25.9835C30.1602 25.9835 30.2305 25.9634 30.2004 26.0036C30.1903 26.0237 30.1903 26.0337 30.2104 26.0438C30.331 26.0739 30.4515 26.0538 30.5821 26.0538C34.7714 26.0538 38.9606 26.0538 43.1398 26.0538C43.2905 26.0538 43.4412 26.0337 43.5919 26.0739C43.6321 26.4557 43.6321 26.8374 43.5919 27.2292C43.4914 27.2694 43.391 27.2594 43.2905 27.2594C38.9104 27.2594 34.5403 27.2594 30.1602 27.2594C30.0798 27.2594 29.9894 27.2795 29.899 27.2292C29.9291 27.189 29.8488 27.2192 29.899 27.2292C29.889 27.2393 29.899 27.2493 29.9291 27.2493C30.0497 27.2694 30.1803 27.2594 30.3009 27.2594C34.5805 27.2594 38.8501 27.2594 43.1298 27.2594C43.2805 27.2594 43.4311 27.2393 43.5818 27.2795C43.5818 27.3598 43.5818 27.4502 43.5818 27.5306C43.4311 27.5708 43.2805 27.5507 43.1298 27.5507C38.7798 27.5507 34.4198 27.5507 30.0698 27.5507C34.4499 27.5507 38.83 27.5507 43.2101 27.5507C43.3307 27.5507 43.4613 27.5306 43.5818 27.5708C43.5818 27.6512 43.5818 27.7416 43.5919 27.822C43.4613 27.8722 43.3206 27.842 43.18 27.842C39.0309 27.842 34.8819 27.842 30.7328 27.842C30.6022 27.842 30.4616 27.8119 30.341 27.8621C30.4214 27.822 30.5219 27.842 30.6223 27.842C34.8517 27.842 39.0711 27.842 43.3006 27.842C43.401 27.842 43.5015 27.822 43.6019 27.8722C43.6019 27.9526 43.6019 28.043 43.6019 28.1233C43.4713 28.1736 43.3307 28.1434 43.19 28.1434C39.1214 28.1434 35.0627 28.1434 30.994 28.1434C30.8634 28.1434 30.7228 28.1133 30.6022 28.1635C30.6625 28.1233 30.763 28.1434 30.8433 28.1434C34.9924 28.1434 39.1515 28.1434 43.3006 28.1434C43.401 28.1434 43.5015 28.1233 43.6019 28.1736C43.6723 28.3544 43.6723 28.5252 43.612 28.706C43.4814 28.7864 43.3407 28.7462 43.2101 28.7462C39.2419 28.7462 35.2737 28.7462 31.3155 28.7462C31.1849 28.7462 31.0443 28.706 30.8936 28.7964C30.8735 28.8065 30.9538 28.8266 30.9237 28.7864C30.9137 28.7663 30.9237 28.7663 30.9438 28.7562C31.0443 28.7362 31.1447 28.7462 31.2452 28.7462C35.2536 28.7462 39.252 28.7462 43.2604 28.7462C43.3809 28.7462 43.5115 28.706 43.622 28.7864C43.6421 28.8668 43.6522 28.9371 43.6723 29.0174C43.5417 29.0677 43.401 29.0476 43.2604 29.0476C39.2821 29.0476 35.3139 29.0476 31.3356 29.0476C31.195 29.0476 31.0644 29.0174 30.9438 29.0677C31.0342 29.0275 31.1447 29.0476 31.2552 29.0476C35.2837 29.0476 39.3022 29.0476 43.3307 29.0476C43.4412 29.0476 43.5618 29.0275 43.6622 29.0777C43.6622 29.1581 43.6622 29.2385 43.6723 29.3188C43.5517 29.3791 43.4211 29.349 43.3006 29.349C39.2017 29.349 35.0929 29.349 30.994 29.349C35.0828 29.349 39.1716 29.349 43.2604 29.349C43.401 29.349 43.5316 29.3188 43.6723 29.3791C43.6723 29.4595 43.6723 29.5398 43.6723 29.6202C43.5316 29.6805 43.3709 29.6504 43.2302 29.6504C39.1515 29.6504 35.0728 29.6504 31.0041 29.6504C35.1732 29.6504 39.3323 29.6504 43.5015 29.6504C43.5618 29.6504 43.622 29.6504 43.6823 29.6805C43.6823 29.7609 43.6823 29.8412 43.6823 29.9116C43.5919 29.9718 43.4914 29.9417 43.391 29.9417C39.3323 29.9417 35.2636 29.9417 31.205 29.9417C31.1447 29.9417 31.0845 29.9517 31.0342 29.9316C31.1548 29.9517 31.2954 29.9417 31.426 29.9417C35.3741 29.9417 39.3223 29.9417 43.2805 29.9417C43.4211 29.9417 43.5517 29.9116 43.6923 29.9718C43.6923 30.0522 43.6923 30.1326 43.6923 30.2029C43.5617 30.2632 43.4211 30.233 43.2805 30.233C39.1917 30.233 35.1029 30.233 31.0141 30.233C35.133 30.233 39.2419 30.233 43.3608 30.233C43.4713 30.233 43.5919 30.2129 43.6923 30.2632C43.6923 30.3435 43.6823 30.4239 43.6823 30.5043C43.5919 30.5545 43.4814 30.5344 43.391 30.5344C39.3424 30.5344 35.2938 30.5344 31.2452 30.5344C31.1447 30.5344 31.0443 30.5545 30.9639 30.5143C31.0845 30.5645 31.2151 30.5344 31.3557 30.5344C35.334 30.5344 39.3022 30.5344 43.2805 30.5344C43.4211 30.5344 43.5517 30.5043 43.6923 30.5645C43.6723 30.6449 43.6522 30.7152 43.6321 30.7956C43.5015 30.876 43.3608 30.8358 43.2302 30.8358C39.4026 30.8358 35.565 30.8358 31.7374 30.8358C31.4361 30.8358 31.1347 30.8257 30.8433 30.9162C30.4415 30.876 30.5219 30.4741 30.3611 30.2632C30.3009 30.1928 30.2707 30.0622 30.2506 29.9517C30.341 29.1983 29.899 28.706 29.3967 28.2539C28.9848 27.8822 28.4825 27.6411 28.0405 27.3196C27.93 27.2393 27.8094 27.1589 27.7089 27.0685C27.1062 26.5461 27.0359 26.0036 27.4779 25.3205C27.6085 25.1296 27.6185 25.0492 27.3372 24.9387C26.9053 24.7679 26.5838 24.9387 26.2322 25.1095C22.1635 25.1195 18.1048 25.1095 14.0462 25.1095C13.9257 25.1095 13.7951 25.1296 13.6745 25.0693C13.6745 24.5168 13.6745 23.9642 13.6745 23.4117C13.8151 23.251 14.006 23.3112 14.1668 23.3112C17.8537 23.3112 21.5507 23.3112 25.2376 23.3112C31.1849 23.3112 37.1322 23.3112 43.0896 23.3112C43.2704 23.3112 43.4713 23.251 43.622 23.4117C43.622 23.9642 43.622 24.5168 43.622 25.0693C39.2721 25.0794 34.9221 25.0693 30.6324 25.0794C30.6927 25.0593 30.8233 25.0794 30.9438 25.0794C34.9924 25.0794 39.051 25.0794 43.0996 25.0794C43.2403 25.1195 43.4211 25.0794 43.5818 25.1899Z"
    fill="#173662" />
  <path
    d="M43.5919 19.9051C43.5919 21.0203 43.5919 22.1354 43.5919 23.2405C43.4412 23.4012 43.2403 23.3409 43.0595 23.3409C38.5086 23.3409 33.9476 23.3409 29.3967 23.3409C24.3234 23.3409 19.2602 23.3409 14.1869 23.3409C14.006 23.3409 13.8051 23.4012 13.6544 23.2405C13.6544 22.1253 13.6544 21.0102 13.6544 19.9051C13.7448 19.8047 13.8553 19.7645 13.9859 19.7745C14.0764 19.7745 14.1567 19.7745 14.2471 19.7745C23.8312 19.7745 33.4152 19.7745 42.9891 19.7745C43.2001 19.7745 43.4211 19.7143 43.5919 19.9051Z"
    fill="#1A365F" />
  <path
    d="M26.3528 25.0393C26.5537 24.748 26.7647 24.5672 27.1163 24.8384C27.1967 24.8987 27.3273 24.8886 27.4378 24.8987C27.6186 24.9087 27.6488 25.0594 27.699 25.18C27.7693 25.3206 27.6287 25.3307 27.5483 25.3809C27.3072 25.6321 26.9958 25.8129 26.8049 26.1042C26.4533 26.6568 26.5437 27.2294 27.0661 27.6212C27.4277 27.8924 27.8497 28.0632 28.2716 28.224C28.6735 28.3747 29.0552 28.5454 29.4269 28.7665C29.8891 29.0377 30.2407 29.3893 30.3311 29.9419C30.4014 30.2935 30.5521 30.6049 30.743 30.8962C30.8635 30.8761 30.974 30.836 31.0845 30.9264C30.5421 31.1173 30.6827 31.6497 30.5722 32.0315C30.4416 32.4936 30.0397 32.6342 29.7585 32.9055C29.668 32.9959 29.5274 32.8653 29.3968 32.8552C29.4571 32.6945 29.5475 32.5639 29.6781 32.4634C30.7329 31.6296 30.3512 30.3738 29.5374 29.8213C28.9045 29.3893 28.2515 28.9875 27.5182 28.7464C27.1766 28.6258 26.8451 28.4651 26.5537 28.2541C26.3026 28.0733 26.1017 27.8523 26.0313 27.581C26.0414 28.0029 25.9108 28.455 26.0213 28.9171C26.2222 29.751 26.6642 30.3437 27.488 30.625C28.0004 30.7958 28.5027 30.9967 28.9548 31.2981C29.0854 31.3785 29.2059 31.4689 29.3064 31.5794C29.6781 31.9712 29.6982 32.3328 29.3767 32.8653C29.226 32.9657 29.0854 33.0762 28.9849 33.237C28.8443 33.458 28.6132 33.5585 28.3721 33.3374C28.4022 33.1767 28.5328 33.0963 28.6534 32.9959C29.1557 32.5739 29.1255 32.1721 28.5328 31.8607C27.9903 31.5693 27.4077 31.3785 26.835 31.0871C26.9355 31.5091 27.2168 31.6798 27.5182 31.8305C27.8999 32.0315 28.2716 32.2625 28.4324 32.6844C28.5127 32.8954 28.5931 33.1265 28.2817 33.247C28.0707 33.2973 28.141 33.1064 28.1209 33.026C28.0104 32.6041 27.7995 32.3127 27.3373 32.2525C27.1063 32.2223 26.4633 31.3483 26.4533 31.1072C26.4432 30.8862 26.4332 30.6551 26.4131 30.4341C26.3729 30.1428 26.1418 30.0524 25.8907 30.2332C25.7701 30.3035 25.6496 30.2734 25.519 30.2734C21.6713 30.2734 17.8236 30.2734 13.976 30.2734C13.8554 30.2734 13.7248 30.3136 13.6143 30.2332C13.5741 30.1629 13.5741 30.0925 13.6143 30.0122C13.7148 29.9419 13.8353 29.972 13.9458 29.972C17.7332 29.972 21.5206 29.972 25.308 29.972C25.3884 29.972 25.4888 29.9419 25.529 29.972C25.4688 29.972 25.3683 29.972 25.2678 29.972C21.4905 29.972 17.7232 29.972 13.9458 29.972C13.8253 29.972 13.6947 29.9921 13.5741 29.9519C13.5741 29.8615 13.5741 29.7811 13.5641 29.6907C13.6445 29.6505 13.7349 29.6606 13.8253 29.6606C17.7131 29.6606 21.601 29.6606 25.4989 29.6606C25.5692 29.6606 25.6496 29.6505 25.6998 29.6706C25.5893 29.6405 25.4487 29.6606 25.308 29.6606C21.5307 29.6606 17.7533 29.6606 13.976 29.6606C13.8353 29.6606 13.7047 29.6807 13.5641 29.6405C13.5842 29.5601 13.6043 29.4898 13.6143 29.4094C13.7047 29.3391 13.8052 29.3692 13.9057 29.3692C17.7433 29.3692 21.5809 29.3692 25.4185 29.3692C25.4888 29.3692 25.5692 29.3592 25.6194 29.3793C25.5089 29.3491 25.3683 29.3692 25.2276 29.3692C21.4905 29.3692 17.7533 29.3692 14.0162 29.3692C13.8856 29.3692 13.7449 29.4094 13.6143 29.329C13.5741 29.2587 13.5741 29.1884 13.6143 29.1181C13.7047 29.0477 13.8052 29.0779 13.9057 29.0779C17.693 29.0779 21.4905 29.0779 25.2779 29.0779C25.3482 29.0779 25.4286 29.0477 25.4888 29.1181C25.5391 29.1281 25.4587 29.1583 25.4888 29.1181C25.4989 29.108 25.4888 29.098 25.4587 29.0879C25.3382 29.0578 25.2076 29.0779 25.087 29.0779C21.4001 29.0779 17.7031 29.0779 14.0162 29.0779C13.8856 29.0779 13.7349 29.1181 13.6143 29.0377C13.5741 28.9674 13.5842 28.887 13.6143 28.8167C13.7449 28.7464 13.8856 28.7865 14.0262 28.7865C17.7031 28.7865 21.38 28.7865 25.0569 28.7865C25.1875 28.7865 25.3281 28.8167 25.4487 28.7665C25.3582 28.8167 25.2477 28.7865 25.1372 28.7865C21.4101 28.7865 17.683 28.7865 13.9559 28.7865C13.8454 28.7865 13.7248 28.8167 13.6244 28.7464C13.6344 28.6459 13.5239 28.5454 13.6344 28.455C13.765 28.5153 13.9057 28.4852 14.0463 28.4852C17.6328 28.4852 21.2192 28.4852 24.8057 28.4852C24.9363 28.4852 25.0569 28.4852 25.1071 28.4852C23.9016 28.4852 22.6257 28.4852 21.3398 28.4852C18.9086 28.4852 16.4775 28.4852 14.0463 28.4852C13.9057 28.4852 13.7751 28.5153 13.6344 28.455C13.6344 28.3747 13.6344 28.2943 13.6344 28.2139C13.7248 28.1637 13.8353 28.1838 13.9358 28.1838C17.7031 28.1838 21.4603 28.1838 25.2276 28.1838C25.3181 28.1838 25.4085 28.1737 25.4688 28.2039C25.3482 28.1637 25.2076 28.1838 25.077 28.1838C21.4001 28.1838 17.7232 28.1838 14.0463 28.1838C13.9057 28.1838 13.7751 28.2139 13.6344 28.1536C13.6344 28.0733 13.6344 27.9829 13.6344 27.9025C13.765 27.8623 13.9057 27.8824 14.0463 27.8824C17.7232 27.8824 21.4001 27.8824 25.077 27.8824C25.2176 27.8824 25.3482 27.9025 25.4688 27.8623C25.3884 27.8924 25.2879 27.8824 25.1875 27.8824C21.4403 27.8824 17.683 27.8824 13.9358 27.8824C13.8353 27.8824 13.7349 27.9025 13.6344 27.8623C13.6344 27.7819 13.6344 27.6915 13.6344 27.6112C13.7851 27.571 13.9358 27.5911 14.0865 27.5911C17.9141 27.5911 21.7316 27.5911 25.5592 27.5911C21.6613 27.5911 17.7634 27.5911 13.8655 27.5911C13.7951 27.5911 13.7148 27.6011 13.6445 27.571C13.6445 27.4806 13.6445 27.4002 13.6545 27.3198C13.7851 27.2796 13.9257 27.2997 14.0664 27.2997C17.7835 27.2997 21.4905 27.2997 25.2076 27.2997C25.3482 27.2997 25.4788 27.3198 25.5994 27.2796C25.529 27.3198 25.4386 27.2997 25.3582 27.2997C21.5608 27.2997 17.7533 27.2997 13.9559 27.2997C13.8554 27.2997 13.755 27.3198 13.6545 27.2796C13.6143 26.7974 13.6143 26.3052 13.6545 25.8229C13.7851 25.7828 13.9257 25.8028 14.0664 25.8028C18.0547 25.8028 22.043 25.8028 26.0313 25.8028C26.1619 25.8028 26.3026 25.833 26.4533 25.7727C26.4834 25.7627 26.403 25.7325 26.4332 25.7727C26.4432 25.7828 26.4332 25.7928 26.403 25.7928C26.3026 25.8129 26.2021 25.8028 26.1017 25.8028C22.0631 25.8028 18.0246 25.8028 13.986 25.8028C13.8755 25.8028 13.755 25.8229 13.6545 25.7727C13.6545 25.6923 13.6545 25.6019 13.6545 25.5216C13.7851 25.4814 13.9257 25.5015 14.0664 25.5015C18.1652 25.5015 22.2741 25.5015 26.3729 25.5015C26.5035 25.5015 26.6341 25.5216 26.7647 25.4713C26.8149 25.4412 26.7346 25.4211 26.7647 25.4613C26.7748 25.4814 26.7748 25.4914 26.7446 25.4914C26.6442 25.5216 26.5437 25.5015 26.4533 25.5015C22.3042 25.5015 18.1451 25.5015 13.9961 25.5015C13.8856 25.5015 13.765 25.5216 13.6645 25.4713C13.6645 25.391 13.6645 25.3106 13.6645 25.2302C13.8253 25.1298 14.0061 25.1599 14.1769 25.1599C18.3862 25.1599 22.5956 25.1599 26.7848 25.1599C26.6442 25.0996 26.4834 25.1599 26.3528 25.0393Z"
    fill="#1C355C" />
  <path
    d="M43.5912 19.9059C43.4003 19.9159 43.2195 19.926 43.0286 19.926C33.4245 19.926 23.8204 19.926 14.2063 19.926C14.0154 19.926 13.8346 19.9159 13.6437 19.9059C13.6437 19.8155 13.6437 19.7251 13.6537 19.6346C23.6295 19.6346 33.6053 19.6346 43.5812 19.6346C43.5812 19.7251 43.5812 19.8155 43.5912 19.9059Z"
    fill="#F2F5F6" />
  <path
    d="M13.6437 23.2408C13.7944 23.2308 13.9451 23.2107 14.0958 23.2107C23.7702 23.2107 33.4446 23.2107 43.109 23.2107C43.2697 23.2107 43.4305 23.2308 43.5912 23.2408C43.5912 23.3112 43.5912 23.3815 43.5912 23.4518C43.4003 23.4518 43.2195 23.4618 43.0286 23.4618C33.3441 23.4618 23.6597 23.4618 13.9852 23.4618C13.8747 23.4618 13.7642 23.4518 13.6437 23.4518C13.6437 23.3815 13.6437 23.3112 13.6437 23.2408Z"
    fill="#FAFDFE" />
  <path
    d="M26.3521 25.0389C26.7238 25.0791 27.1156 24.9787 27.4672 25.1896C27.2362 25.1896 26.9951 25.1896 26.764 25.1896C22.5044 25.1896 18.2449 25.1896 13.9753 25.1896C13.8648 25.1896 13.7543 25.1796 13.6337 25.1796C13.6237 25.1595 13.6237 25.1294 13.6237 25.1093C13.8045 25.0088 13.9954 25.049 14.1762 25.049C18.2449 25.049 22.3035 25.0389 26.3521 25.0389Z"
    fill="#5D638F" />
  <path
    d="M43.581 25.19C40.8484 25.19 38.1159 25.2 35.3833 25.2C33.8061 25.2 32.2188 25.2 30.6416 25.2C30.511 25.2 30.3703 25.2502 30.1794 25.0895C30.4206 25.0795 30.5913 25.0594 30.7722 25.0594C34.9011 25.0594 39.02 25.0594 43.149 25.0594C43.2997 25.0594 43.4504 25.0393 43.591 25.1196C43.591 25.1397 43.591 25.1598 43.581 25.19Z"
    fill="#5E638F" />
  <path
    d="M43.5821 27.2893C42.2058 27.2893 40.8195 27.2994 39.4431 27.2994C36.3992 27.2994 33.3552 27.2994 30.3012 27.2994C30.1605 27.2994 30.0299 27.2994 29.8591 27.2994C29.9495 27.1889 30.04 27.229 30.1103 27.229C34.5306 27.229 38.9609 27.229 43.3812 27.229C43.4415 27.229 43.5018 27.2391 43.5721 27.2391C43.5922 27.2491 43.5922 27.2692 43.5821 27.2893Z"
    fill="#879FBD" />
  <path
    d="M43.5807 26.0841C42.8272 26.0841 42.0738 26.0942 41.3203 26.0942C37.7137 26.0942 34.1172 26.0942 30.5107 26.0942C30.3801 26.0942 30.2394 26.0942 30.0787 26.0942C30.159 25.9636 30.2495 26.0038 30.3298 26.0038C34.6296 26.0038 38.9394 26.0038 43.2391 26.0038C43.3496 26.0038 43.4601 26.0138 43.5807 26.0238C43.5907 26.0439 43.5907 26.064 43.5807 26.0841Z"
    fill="#A1ACC9" />
  <path
    d="M43.5815 27.5911C43.3605 27.6011 43.1294 27.6011 42.9084 27.6011C38.8297 27.6011 34.761 27.6011 30.6823 27.6011C30.4914 27.6011 30.3106 27.6011 30.0695 27.6011C30.2101 27.4906 30.3206 27.5308 30.411 27.5308C34.7208 27.5308 39.0407 27.5308 43.3504 27.5308C43.4208 27.5308 43.5011 27.5409 43.5715 27.5409C43.5916 27.5609 43.5916 27.571 43.5815 27.5911Z"
    fill="#909ABD" />
  <path
    d="M43.5813 25.4806C39.8341 25.4806 36.0768 25.4907 32.3296 25.4907C31.6565 25.4907 30.9834 25.4907 30.2802 25.4907C30.3606 25.3601 30.451 25.4002 30.5314 25.4002C34.7809 25.4002 39.0404 25.4002 43.29 25.4002C43.3904 25.4002 43.4909 25.4103 43.5913 25.4203C43.5913 25.4404 43.5913 25.4605 43.5813 25.4806Z"
    fill="#8C9CC0" />
  <path
    d="M43.592 27.8926C42.3865 27.8926 41.1809 27.9026 39.9754 27.9026C36.8912 27.9026 33.797 27.9026 30.7128 27.9026C30.5923 27.9026 30.4617 27.9026 30.321 27.9026C30.3813 27.7921 30.4617 27.8323 30.522 27.8323C34.8117 27.8323 39.1014 27.8323 43.4011 27.8323C43.4614 27.8323 43.5217 27.8424 43.592 27.8424C43.602 27.8625 43.602 27.8725 43.592 27.8926Z"
    fill="#A6B6D8" />
  <path
    d="M13.6433 25.4308C13.9045 25.4207 14.1657 25.4107 14.4269 25.4107C18.4152 25.4107 22.4035 25.4107 26.3918 25.4107C26.5224 25.4107 26.6631 25.3705 26.7937 25.4509C26.7033 25.5312 26.6028 25.5011 26.5023 25.5011C22.3231 25.5011 18.154 25.5011 13.9748 25.5011C13.8643 25.5011 13.7538 25.491 13.6332 25.491C13.6433 25.4609 13.6433 25.4408 13.6433 25.4308Z"
    fill="#8C9CC0" />
  <path
    d="M43.591 28.1936C39.8036 28.1936 36.0162 28.2037 32.2389 28.2037C31.6763 28.2037 31.1137 28.2037 30.521 28.2037C30.6415 28.0932 30.732 28.1333 30.8123 28.1333C35.0116 28.1333 39.2109 28.1333 43.4102 28.1333C43.4705 28.1333 43.5307 28.1434 43.6011 28.1434C43.6011 28.1635 43.6011 28.1735 43.591 28.1936Z"
    fill="#A3B6DE" />
  <path
    d="M31.1049 30.9264C30.9944 30.9163 30.8739 30.9063 30.7634 30.8963C30.894 30.7857 31.0547 30.836 31.1953 30.836C35.3344 30.836 39.4633 30.8259 43.6023 30.8259C43.6526 30.8561 43.6526 30.8862 43.6023 30.9163C39.4332 30.9264 35.264 30.9264 31.1049 30.9264Z"
    fill="#849DC6" />
  <path
    d="M43.6118 28.8169C39.4829 28.8169 35.364 28.8068 31.235 28.8068C31.1144 28.8068 30.9838 28.847 30.793 28.7264C35.1229 28.7264 39.3623 28.7264 43.6118 28.7264C43.6621 28.7566 43.6621 28.7867 43.6118 28.8169Z"
    fill="#8A9AB7" />
  <path
    d="M13.6437 25.7323C13.8647 25.7222 14.0958 25.7122 14.3168 25.7122C18.2147 25.7122 22.1126 25.7122 26.0205 25.7122C26.1712 25.7122 26.3219 25.672 26.4625 25.7524C26.3822 25.8327 26.2918 25.7926 26.2114 25.7926C22.1025 25.7926 17.9836 25.7926 13.8747 25.7926C13.8044 25.7926 13.724 25.7825 13.6537 25.7825C13.6437 25.7624 13.6437 25.7423 13.6437 25.7323Z"
    fill="#9EAED0" />
  <path
    d="M43.6618 29.098C39.4424 29.098 35.223 29.098 31.0137 29.108C30.9936 29.108 30.9635 29.088 30.9233 29.0779C30.9635 29.0578 30.9836 29.0377 31.0137 29.0377C35.2331 29.0377 39.4524 29.0377 43.6618 29.0478C43.6718 29.0578 43.6718 29.0779 43.6618 29.098Z"
    fill="#B0C5E4" />
  <path
    d="M43.6621 30.6046C39.4628 30.6046 35.2535 30.6146 31.0542 30.6146C31.014 30.6146 30.9839 30.6046 30.9537 30.5443C35.1932 30.5443 39.4327 30.5443 43.6721 30.5443C43.6721 30.5644 43.6721 30.5845 43.6621 30.6046Z"
    fill="#B6C6E8" />
  <path
    d="M43.6723 29.7104C39.4529 29.7104 35.2335 29.7104 31.0041 29.7104C31.0041 29.6903 31.0041 29.6702 31.0041 29.6501C35.2235 29.6501 39.4428 29.6501 43.6723 29.6501C43.6823 29.6602 43.6823 29.6803 43.6723 29.7104Z"
    fill="#B7C7E2" />
  <path
    d="M43.6723 30.3132C39.4529 30.3132 35.2235 30.3132 31.0041 30.3132C31.0041 30.2932 31.0041 30.2731 31.0041 30.2429C35.2235 30.2429 39.4529 30.2429 43.6723 30.2429C43.6823 30.263 43.6823 30.2831 43.6723 30.3132Z"
    fill="#B3C8E7" />
  <path
    d="M43.6723 30.012C39.4529 30.012 35.2235 30.012 31.0041 30.012C31.0041 29.9919 31.0041 29.9617 31.0041 29.9417C35.2235 29.9417 39.4529 29.9417 43.6723 29.9417C43.6924 29.9617 43.6924 29.9818 43.6723 30.012Z"
    fill="#B7C7E2" />
  <path
    d="M43.6723 29.4091C39.4529 29.4091 35.2235 29.4091 31.0041 29.4091C31.0041 29.389 31.0041 29.3689 31.0041 29.3387C35.2235 29.3387 39.4529 29.3387 43.6723 29.3387C43.6823 29.3588 43.6823 29.3789 43.6723 29.4091Z"
    fill="#B3C7E8" />
  <path
    d="M13.6242 30.2329C17.7129 30.2329 21.8118 30.2329 25.9005 30.2329C25.8101 30.3836 25.6594 30.3032 25.5389 30.3032C21.5707 30.3133 17.5924 30.3133 13.6242 30.3133C13.5739 30.2932 13.5739 30.263 13.6242 30.2329Z"
    fill="#B3C8E7" />
  <path
    d="M13.6444 30.5443C17.7532 30.5443 21.8722 30.5443 25.981 30.5443C25.981 30.5644 25.981 30.5845 25.981 30.6146C21.8722 30.6146 17.7532 30.6146 13.6444 30.6146C13.6343 30.5845 13.6343 30.5644 13.6444 30.5443Z"
    fill="#B6C6E8" />
  <path
    d="M13.5737 29.9515C13.7746 29.9414 13.9755 29.9314 14.1764 29.9314C17.9136 29.9314 21.6508 29.9314 25.398 29.9314C25.5185 29.9314 25.6391 29.9314 25.7697 29.9314C25.7697 29.9615 25.7697 29.9816 25.7697 30.0118C21.7211 30.0118 17.6825 30.0118 13.6339 30.0118C13.6038 30.0017 13.5938 29.9816 13.5737 29.9515Z"
    fill="#B6C7E2" />
  <path
    d="M13.5637 29.6502C15.5428 29.6502 17.5219 29.6401 19.501 29.6401C21.4399 29.6401 23.3888 29.6401 25.3277 29.6401C25.4382 29.6401 25.5487 29.6401 25.6693 29.6401C25.6291 29.7406 25.5588 29.7105 25.5085 29.7105C21.6006 29.7105 17.6826 29.7105 13.7747 29.7105C13.7043 29.7105 13.624 29.7004 13.5536 29.7004C13.5637 29.6803 13.5637 29.6602 13.5637 29.6502Z"
    fill="#B6C7E2" />
  <path
    d="M13.6242 29.3286C17.6125 29.3286 21.6008 29.3286 25.5891 29.3286C25.5891 29.3588 25.5891 29.3889 25.5891 29.419C21.6008 29.419 17.6125 29.419 13.6242 29.419C13.5739 29.3889 13.5739 29.3588 13.6242 29.3286Z"
    fill="#B3C7E8" />
  <path
    d="M13.6437 27.2391C16.4666 27.2391 19.2896 27.229 22.1126 27.229C23.2679 27.229 24.4131 27.229 25.5986 27.229C25.5283 27.3395 25.4579 27.2993 25.3977 27.2993C21.5701 27.2993 17.7425 27.2993 13.9149 27.2993C13.8245 27.2993 13.7441 27.2893 13.6537 27.2893C13.6437 27.2692 13.6437 27.2591 13.6437 27.2391Z"
    fill="#879EC2" />
  <path
    d="M13.6242 29.0272C17.5924 29.0272 21.5606 29.0272 25.5389 29.0272C25.5389 29.0574 25.5389 29.0875 25.5389 29.1176C21.5707 29.1176 17.6024 29.1176 13.6242 29.1176C13.5739 29.0875 13.5739 29.0574 13.6242 29.0272Z"
    fill="#B0C5E4" />
  <path
    d="M13.6443 27.5406C14.5083 27.5406 15.3722 27.5306 16.2462 27.5306C19.2199 27.5306 22.1936 27.5306 25.1672 27.5306C25.2878 27.5306 25.4184 27.5005 25.5389 27.5708C25.4485 27.6311 25.338 27.611 25.2476 27.611C21.4803 27.611 17.713 27.611 13.9557 27.611C13.8553 27.611 13.7548 27.6009 13.6543 27.5909C13.6342 27.5708 13.6342 27.5607 13.6443 27.5406Z"
    fill="#A2AEC8" />
  <path
    d="M13.6444 27.842C15.0207 27.842 16.4071 27.8319 17.7834 27.8319C20.2145 27.8319 22.6457 27.8319 25.0869 27.8319C25.2075 27.8319 25.3381 27.8319 25.4888 27.8319C25.3984 27.9525 25.3079 27.9123 25.2376 27.9123C21.4201 27.9123 17.6126 27.9123 13.7951 27.9123C13.7448 27.9123 13.6946 27.9022 13.6444 27.9022C13.6343 27.8721 13.6343 27.862 13.6444 27.842Z"
    fill="#A4B4D8" />
  <path
    d="M13.6332 28.1435C17.5412 28.1435 21.4592 28.1435 25.3671 28.1334C25.3872 28.1334 25.4174 28.1435 25.4374 28.1937C21.4994 28.1937 17.5713 28.1937 13.6332 28.1937C13.6332 28.1736 13.6332 28.1636 13.6332 28.1435Z"
    fill="#A3B6DE" />
  <path
    d="M13.6332 28.7362C17.5713 28.7362 21.5094 28.7362 25.4475 28.7362C25.4475 28.7563 25.4475 28.7864 25.4475 28.8065C21.5094 28.8065 17.5713 28.8065 13.6332 28.8065C13.6332 28.7864 13.6332 28.7563 13.6332 28.7362Z"
    fill="#8A9AB7" />
  <path
    d="M21.7614 9.59841C21.7814 9.45777 21.7814 9.45777 21.892 9.40754C23.1075 8.82486 24.3231 8.23214 25.5387 7.64946C26.4027 7.22753 27.2767 6.82568 28.1406 6.3937C28.3918 6.2631 28.5927 6.28319 28.8338 6.40374C30.9335 7.4184 33.0331 8.41297 35.1328 9.41758C35.1629 9.43767 35.2031 9.43767 35.2433 9.44772C35.2533 9.53814 35.193 9.58837 35.1127 9.60846C35.0423 9.6386 34.962 9.62855 34.8916 9.62855C30.6522 9.72901 26.4228 9.70892 22.1833 9.69887C22.0426 9.70892 21.8819 9.73906 21.7614 9.59841Z"
    fill="#FDFEFD" />
  <path
    d="M35.3938 10.6534C30.9233 10.6534 26.4528 10.6534 21.9722 10.6635C21.6306 10.6635 21.49 10.5731 21.5502 10.2315C21.5804 10.0707 21.5101 9.89996 21.6105 9.75932C21.7813 9.65885 21.9722 9.67895 22.1631 9.67895C24.4636 9.67895 26.7742 9.6689 29.0748 9.67895C30.9735 9.68899 32.8823 9.61867 34.781 9.63876C35.444 9.63876 35.6651 10.0205 35.3938 10.6534Z"
    fill="#FAFDFC" />
  <path
    d="M28.4726 17.2635C26.2926 17.2635 24.1026 17.2535 21.9226 17.2736C21.4705 17.2836 21.5709 17.0224 21.5509 16.7713C21.5207 16.49 21.5709 16.3594 21.9226 16.3594C26.2926 16.3694 30.6627 16.3694 35.0227 16.3594C35.3944 16.3594 35.4145 16.5 35.4045 16.7914C35.3944 17.0626 35.4547 17.2836 35.0227 17.2736C32.8427 17.2535 30.6627 17.2635 28.4726 17.2635Z"
    fill="#FBFCFC" />
  <path
    d="M28.4722 18.5692C26.1314 18.5692 23.7806 18.5591 21.4399 18.5792C21.1385 18.5792 21.0481 18.4888 21.0782 18.2075C21.1084 17.9764 20.9677 17.7052 21.4299 17.7052C26.1616 17.7253 30.8833 17.7152 35.615 17.7152C35.8461 17.7152 35.9164 17.7856 35.9164 18.0166C35.8963 18.7098 35.9767 18.5792 35.3638 18.5792C33.0633 18.5692 30.7627 18.5692 28.4722 18.5692Z"
    fill="#FCFDFC" />
  <path
    d="M32.9324 13.5164C32.9324 13.1045 32.9424 12.6926 32.9324 12.2707C32.9324 12.0697 32.9726 11.9793 33.1936 11.9793C33.9169 11.9592 33.9169 11.9492 33.9169 12.6725C33.9169 13.3757 33.9069 14.079 33.9169 14.7822C33.9169 14.9932 33.8566 15.0534 33.6457 15.0635C32.9324 15.0735 32.9324 15.0836 32.9324 14.3502C32.9224 14.0689 32.9224 13.7876 32.9324 13.5164Z"
    fill="#FAFBFC" />
  <path
    d="M28.9939 13.5366C28.9939 13.9585 28.9838 14.3905 28.9939 14.8125C28.9939 14.9833 28.9537 15.0435 28.7628 15.0536C27.9893 15.0837 27.9893 15.0938 27.9893 14.3001C27.9893 13.6371 27.9993 12.974 27.9792 12.311C27.9692 12.0498 28.0495 11.9694 28.3107 11.9795C28.9838 11.9895 28.9838 11.9795 28.9838 12.6325C28.9939 12.9338 28.9939 13.2352 28.9939 13.5366Z"
    fill="#FBFEFD" />
  <path
    d="M24.031 13.5161C24.031 13.938 24.021 14.37 24.031 14.792C24.0411 14.9929 23.9707 15.0431 23.7799 15.0431C23.0465 15.0532 23.0465 15.0632 23.0465 14.3298C23.0465 13.6367 23.0565 12.9535 23.0364 12.2603C23.0264 12.0293 23.0967 11.969 23.3278 11.969C24.021 11.969 24.021 11.959 24.021 12.6421C24.031 12.9435 24.031 13.2348 24.031 13.5161Z"
    fill="#FDFDFD" />
  <path
    d="M35.3939 10.6534C35.424 9.76932 35.424 9.76932 34.54 9.76932C30.3407 9.76932 26.1514 9.76932 21.9522 9.76932C21.8417 9.76932 21.7311 9.75927 21.6106 9.75927C21.6608 9.70904 21.7111 9.65881 21.7613 9.60858C21.9622 9.59853 22.1631 9.58848 22.3641 9.58848C25.4382 9.58848 28.5022 9.58848 31.5764 9.58848C32.7015 9.58848 33.8267 9.56839 34.9619 9.5483C35.0523 9.5483 35.193 9.62867 35.2432 9.45789C35.3838 9.45789 35.424 9.5483 35.4441 9.66885C35.4843 9.88987 35.4642 10.131 35.5848 10.3419C35.6651 10.4826 35.5144 10.5831 35.3939 10.6534Z"
    fill="#293256" />
  <path
    d="M23.4992 11.5372C23.2581 11.5372 23.0271 11.5272 22.7859 11.5372C22.6051 11.5473 22.5348 11.4569 22.5348 11.2961C22.5348 11.1354 22.6353 11.0952 22.7859 11.0952C23.2883 11.1053 23.7906 11.0952 24.2929 11.0952C24.4335 11.0952 24.534 11.1153 24.534 11.2961C24.534 11.4669 24.4636 11.5473 24.2929 11.5473C24.0216 11.5372 23.7604 11.5372 23.4992 11.5372Z"
    fill="#F2F6F9" />
  <path
    d="M23.5399 15.9374C23.2787 15.9374 23.0175 15.9273 22.7462 15.9374C22.5754 15.9374 22.5252 15.847 22.5252 15.7063C22.5252 15.5757 22.5754 15.4954 22.7261 15.4954C23.2485 15.4954 23.781 15.4954 24.3034 15.4954C24.4641 15.4954 24.5244 15.5757 24.5244 15.7264C24.5244 15.8972 24.434 15.9374 24.2833 15.9374C24.0422 15.9374 23.791 15.9374 23.5399 15.9374Z"
    fill="#F2F6F9" />
  <path
    d="M33.4348 11.0953C33.6859 11.0953 33.9371 11.0953 34.1882 11.0953C34.3289 11.0953 34.4294 11.1254 34.4193 11.2962C34.4193 11.4569 34.3691 11.5272 34.2083 11.5272C33.6859 11.5272 33.1535 11.5272 32.6311 11.5272C32.4905 11.5272 32.4402 11.4569 32.4302 11.3163C32.4302 11.1656 32.4804 11.0852 32.6411 11.0852C32.9124 11.1053 33.1736 11.0953 33.4348 11.0953Z"
    fill="#F2F7F9" />
  <path
    d="M28.4726 15.4954C28.7338 15.4954 28.995 15.4954 29.2662 15.4954C29.4069 15.4954 29.4772 15.5456 29.4772 15.6963C29.4772 15.8369 29.4671 15.9474 29.2863 15.9474C28.7639 15.9474 28.2315 15.9474 27.7091 15.9474C27.5383 15.9474 27.4981 15.857 27.4981 15.7063C27.4981 15.5255 27.5885 15.4954 27.7292 15.4954C27.9703 15.4954 28.2214 15.4954 28.4726 15.4954Z"
    fill="#F1F7F9" />
  <path
    d="M28.4731 11.0952C28.7343 11.0952 28.9955 11.0952 29.2667 11.0952C29.4074 11.0952 29.4777 11.1354 29.4676 11.2861C29.4676 11.4267 29.4375 11.5372 29.2667 11.5372C28.7443 11.5372 28.2119 11.5372 27.6895 11.5372C27.5187 11.5372 27.4785 11.4468 27.4785 11.2961C27.4785 11.1555 27.5388 11.0952 27.6794 11.0952C27.9507 11.1053 28.2119 11.0952 28.4731 11.0952Z"
    fill="#F1F7F9" />
  <path
    d="M33.4348 15.9374C33.1736 15.9374 32.9124 15.9374 32.6411 15.9374C32.5005 15.9374 32.4302 15.8872 32.4302 15.7465C32.4302 15.5958 32.4603 15.4954 32.6311 15.4954C33.1535 15.4954 33.6859 15.4954 34.2083 15.4954C34.3791 15.4954 34.4093 15.5858 34.4193 15.7365C34.4193 15.9173 34.3289 15.9474 34.1882 15.9374C33.9371 15.9374 33.6859 15.9374 33.4348 15.9374Z"
    fill="#F1F6F9" />
  <path
    d="M37.3624 14.0889C37.0912 13.9482 36.8199 13.8578 36.5487 14.1291C36.6291 13.8176 36.5688 13.5665 36.2473 13.3957C36.5688 13.3254 36.8601 13.3053 36.9204 12.8733C37.1113 13.2149 37.2921 13.4158 37.6638 13.3555C37.3524 13.687 37.3524 13.687 37.3624 14.0889Z"
    fill="#F3F7F8" />
  <path
    d="M41.3113 13.4062C41.0301 13.577 40.9999 13.808 41.0903 14.1295C40.7688 13.9286 40.4976 13.9085 40.2063 14.1496C40.2866 13.8181 40.2967 13.5569 39.8948 13.4062C40.2565 13.3258 40.5378 13.2957 40.6182 12.8838C40.7789 13.2053 40.9999 13.366 41.3113 13.4062Z"
    fill="#F4F7F8" />
  <path
    d="M19.6513 14.0788C19.7417 13.7372 19.591 13.5564 19.3499 13.3856C19.6413 13.3153 19.9527 13.3253 19.9828 12.823C20.1837 13.2048 20.3646 13.4057 20.7162 13.3755C20.4751 13.5765 20.3445 13.7874 20.5253 14.139C20.2038 13.9883 19.9426 13.8276 19.6513 14.0788Z"
    fill="#F5F9FB" />
  <path
    d="M16.2867 12.8434C16.578 13.2754 16.578 13.2754 17.0201 13.3859C16.8392 13.5768 16.6082 13.7475 16.8392 14.0992C16.5178 14.0087 16.2465 13.8179 15.9954 14.1092C15.9351 13.637 15.9351 13.637 15.694 13.3859C15.9351 13.2854 16.2766 13.3457 16.2867 12.8434Z"
    fill="#F5F7F9" />
  <path
    d="M28.3912 34.9952C28.351 35.2262 28.572 35.3669 28.6022 35.6682C25.1965 34.6134 21.7206 34.1513 18.1642 34.1111C18.7369 33.7394 19.2995 33.3677 19.8721 32.996C19.9625 32.9357 20.063 32.9256 20.1634 32.9558C21.2082 33.3074 22.2932 33.1969 23.3681 33.1668C23.7298 33.1567 24.0915 33.1266 24.4531 33.1165C24.8047 33.227 25.1463 33.0362 25.518 33.1065C26.5226 33.2974 27.3665 33.7394 28.0496 34.4928C28.0898 34.5431 28.1501 34.5632 28.2003 34.5933C28.3309 34.6938 28.4716 34.7842 28.3912 34.9952Z"
    fill="#FDFDFD" />
  <path
    d="M34.189 33.1662C35.2438 33.2465 36.2886 33.3068 37.3133 32.9652C37.454 32.915 37.5745 32.9451 37.7051 33.0356C38.2476 33.3972 38.7901 33.7488 39.3326 34.1005C39.2824 34.2411 39.1819 34.1708 39.1116 34.1708C35.8968 34.2009 32.7222 34.5525 29.628 35.4768C29.4773 35.527 29.3166 35.5571 29.1559 35.5973C28.8344 35.6877 28.8746 35.537 28.9951 35.3462C29.0253 34.9544 29.2965 34.6932 29.5276 34.432C30.3313 33.5781 31.3459 33.0858 32.5213 33.0958C33.0638 33.0858 33.6364 33.1059 34.189 33.1662Z"
    fill="#FDFDFD" />
  <path
    d="M29.3969 32.8654C29.5576 31.9412 29.4672 31.7402 28.6333 31.2681C28.2918 31.0772 27.9301 30.9466 27.5584 30.826C26.3428 30.4041 25.73 29.4598 25.8506 28.1638C25.8807 27.8423 25.941 27.5309 26.0214 27.1893C26.2323 28.1437 27.0059 28.3949 27.7694 28.6762C28.3822 28.9072 28.9347 29.2387 29.4873 29.5904C30.7832 30.4041 30.9138 32.0316 29.4069 32.8754C29.4169 32.8554 29.3969 32.8654 29.3969 32.8654Z"
    fill="#FEFEFE" />
  <path
    d="M20.8575 35.1253C20.5862 34.9545 20.2949 34.8842 19.9734 34.9043C19.3204 34.9345 18.6574 34.8641 17.9943 34.9445C17.934 34.9545 17.8738 34.9144 17.8135 34.8943C17.8738 34.6933 18.0345 34.6833 18.2053 34.6833C19.1396 34.6733 20.0739 34.7034 21.0081 34.7637C22.0329 34.8239 23.0475 34.9244 24.0521 35.0651C24.8558 35.1756 25.6495 35.3062 26.4431 35.4769C26.9555 35.5875 27.4678 35.6779 27.9701 35.8185C28.3016 35.8587 28.603 36.1199 28.9546 35.9692C29.2962 35.8989 29.6378 35.8085 29.9693 35.708C30.4616 35.6276 30.9538 35.487 31.4461 35.3966C32.7722 35.1555 34.0983 34.9646 35.4444 34.8541C35.8262 34.8239 36.218 34.834 36.5997 34.7737C36.7605 34.7436 36.9313 34.7436 37.0317 34.9144C37.0016 35.0349 37.1121 35.1052 37.1523 35.2057C36.9011 35.2358 36.65 35.2559 36.4089 35.2861C35.8161 35.1756 35.2335 35.3363 34.6608 35.3966C33.6663 35.497 32.6818 35.6377 31.6972 35.8286C30.984 35.9592 30.2707 36.0596 29.5674 36.2605C28.9747 36.4313 28.4222 36.4012 27.8395 36.2605C26.2824 35.8788 24.7152 35.6176 23.1178 35.4468C22.495 35.3765 21.8822 35.2961 21.2593 35.266C21.1387 35.2258 20.9881 35.2258 20.8575 35.1253Z"
    fill="#243559" />
  <path
    d="M21.2386 35.2057C22.6853 35.2359 24.1118 35.4066 25.5384 35.6176C26.5832 35.7683 27.6079 35.9692 28.6225 36.2405C28.9239 36.3208 29.2152 36.1601 29.4965 36.0898C31.6464 35.5875 33.8365 35.3464 36.0366 35.2158C36.1672 35.2057 36.3179 35.1756 36.4284 35.2861C34.6703 35.4267 32.9323 35.7281 31.1943 36.0797C30.4208 36.2405 29.6573 36.4313 28.9239 36.7026C28.7933 36.7528 28.6828 36.7327 28.5622 36.6925C26.8243 36.0898 25.026 35.7984 23.2177 35.5272C22.5647 35.4267 21.9017 35.3665 21.2386 35.2861C21.2085 35.276 21.1984 35.2559 21.2085 35.2459C21.2185 35.2158 21.2286 35.2057 21.2386 35.2057Z"
    fill="#F5FBFC" />
  <path
    d="M28.3016 33.2466C28.4523 33.0658 28.4121 32.8749 28.3116 32.6941C28.1408 32.3927 27.8997 32.1616 27.5782 32.021C27.0759 31.7899 26.6741 31.4886 26.6339 30.8556C26.6841 30.8054 26.7645 30.8356 26.8348 30.8858C27.3371 31.2073 27.9098 31.4082 28.4523 31.6392C28.4724 31.6493 28.5025 31.6593 28.5226 31.6694C28.834 31.8301 29.1957 31.9808 29.1957 32.3927C29.1957 32.8146 28.9043 33.0859 28.5326 33.2667C28.4924 33.2868 28.4422 33.317 28.402 33.337C28.3618 33.3069 28.3317 33.2768 28.3016 33.2466Z"
    fill="#F9FBFA" />
  <path
    d="M26.4937 35.5276C23.942 35.0655 21.3803 34.8344 18.7884 34.8445C18.4669 34.8445 18.1354 34.8143 17.8239 34.8947C17.6331 34.8947 17.4321 34.8947 17.1609 34.8947C17.4924 34.6536 17.7536 34.4928 18.1153 34.5029C20.9684 34.5431 23.7913 34.8445 26.5741 35.4472C26.5942 35.5175 26.5741 35.5477 26.4937 35.5276Z"
    fill="#F8FAFD" />
  <path
    d="M37.0519 34.9043C36.0071 34.8742 34.9724 34.9948 33.9477 35.1053C33.1038 35.1957 32.2599 35.3363 31.416 35.4468C31.3357 35.477 31.3156 35.4368 31.3357 35.3665C33.9979 34.824 36.7003 34.5326 39.4228 34.5226C39.8749 34.5226 39.8849 34.5326 40.2968 34.9043C39.1918 34.8842 38.1168 34.7938 37.0519 34.9043Z"
    fill="#F8FBFD" />
  <path
    d="M28.3916 34.995C28.3112 34.8945 28.2409 34.7941 28.1605 34.6936C27.5577 33.8799 26.7138 33.468 25.7595 33.2269C25.3576 33.1264 24.9457 33.0661 24.5338 32.9657C24.4434 32.9556 24.353 32.9556 24.2525 32.9456C24.0014 32.8652 23.7402 32.9657 23.489 32.8953C22.8662 32.8652 22.2333 32.8853 21.6205 32.7346C21.3994 32.6844 21.1885 32.614 20.9875 32.4533C21.3793 32.3529 21.7008 32.2524 22.1228 32.4433C22.8963 32.7848 23.7703 32.6844 24.6042 32.7346C25.9704 32.815 27.1559 33.2972 28.1103 34.3118C28.2409 34.4525 28.3514 34.6032 28.4619 34.7539C28.5523 34.8443 28.6226 34.9749 28.3916 34.995Z"
    fill="#F3F9FC" />
  <path
    d="M28.9846 34.8239C29.9189 33.4275 31.2851 32.8448 32.8925 32.7242C33.5756 32.674 34.2688 32.684 34.952 32.5635C35.0826 32.5434 35.2534 32.5434 35.3538 32.463C35.7356 32.1717 36.1173 32.3123 36.5393 32.453C35.9767 32.8046 35.3639 32.8347 34.751 32.8548C34.2186 32.8749 33.6761 32.8448 33.1437 32.9452C32.5509 33.1261 31.908 33.1361 31.3153 33.337C30.5116 33.6183 29.8284 34.0503 29.306 34.7234C29.2458 34.8038 29.1855 34.8841 29.085 34.9143C29.0147 34.9243 28.9645 34.9042 28.9846 34.8239Z"
    fill="#F3F9FC" />
  <path
    d="M13.6945 30.9162C13.7849 30.7856 13.9255 30.8459 14.0461 30.8459C18.0042 30.8459 21.9524 30.8459 25.9106 30.8459C25.9809 30.8459 26.0512 30.856 26.1215 30.9263C21.9825 30.9162 17.8435 30.9162 13.6945 30.9162Z"
    fill="#849DC6" />
  <path
    d="M29.0545 34.8942C30.0692 33.528 31.5158 33.0658 33.1333 32.9553C33.1031 32.9754 33.0629 32.9955 33.0428 33.0156C32.9826 33.1362 33.1031 33.0759 33.1232 33.0759C33.4748 33.106 33.8365 33.0156 34.1781 33.1462C33.5251 33.1663 32.8721 33.096 32.2291 33.1864C30.8026 33.3773 29.7176 34.0905 28.9742 35.3262C28.944 35.276 28.9139 35.2358 28.8837 35.1856C28.8436 35.0449 28.9641 34.9746 29.0545 34.8942Z"
    fill="#3B4557" />
  <path
    d="M24.5445 32.9653C25.74 33.0457 26.835 33.3873 27.7793 34.1508C27.9501 34.2914 28.1912 34.4019 28.1611 34.6933C27.9501 34.6531 27.8798 34.4622 27.7392 34.3316C26.9154 33.5882 25.951 33.2064 24.8459 33.1663C24.7153 33.1663 24.5646 33.1863 24.444 33.116C24.5344 33.106 24.6349 33.0959 24.7555 33.0859C24.6751 33.0357 24.6148 32.9955 24.5445 32.9653Z"
    fill="#414859" />
  <path
    d="M33.2937 32.3627C33.0325 32.4732 32.7512 32.423 32.48 32.4531C31.7868 32.5235 31.1338 32.7043 30.521 33.0057C31.2945 32.4129 32.2087 32.3225 33.143 32.2823C33.1832 32.3326 33.2736 32.2823 33.2937 32.3627Z"
    fill="#ABBDD5" />
  <path
    d="M24.2333 32.3627C23.731 32.3526 23.2488 32.2823 22.8168 31.9407C23.1382 31.8302 23.3894 31.8101 23.6506 32.0412C23.8817 32.2522 24.2232 32.2622 24.5347 32.2823C24.4744 32.4732 24.3438 32.3727 24.2333 32.3627Z"
    fill="#EAF0F8" />
  <path
    d="M33.2947 32.3625C33.2445 32.3324 33.1942 32.3123 33.134 32.2822C33.4755 32.252 33.8071 32.1616 34.0582 31.9104C34.2692 31.6995 34.4601 32.0009 34.661 31.9004C34.2792 32.3022 33.797 32.3424 33.2947 32.3625Z"
    fill="#ECF4F9" />
  <path
    d="M24.2328 32.3624C24.3332 32.3423 24.4337 32.3122 24.5342 32.2921C25.0867 32.3122 25.6392 32.3423 26.1516 32.5634C26.1416 32.6236 26.0913 32.6236 26.0511 32.6337C25.4685 32.4328 24.8356 32.483 24.2328 32.3624Z"
    fill="#A8BCD0" />
  <path
    d="M26.4931 35.5275C26.5232 35.4974 26.5433 35.4773 26.5735 35.4471C27.0456 35.5376 27.5379 35.5878 27.9699 35.8188C27.4676 35.7787 26.9854 35.6682 26.4931 35.5275Z"
    fill="#879EC1" />
  <path
    d="M31.3351 35.3668C31.3652 35.397 31.3954 35.4171 31.4155 35.4472C30.9433 35.5979 30.451 35.6682 29.9688 35.7486C29.9487 35.7285 29.9487 35.7084 29.9487 35.6883C29.9588 35.6682 29.9588 35.6582 29.9688 35.6582C30.4209 35.5677 30.883 35.4673 31.3351 35.3668Z"
    fill="#ABC0D8" />
  <path
    d="M26.0616 32.634C26.0917 32.614 26.1319 32.5838 26.162 32.5637C26.4835 32.634 26.7648 32.7847 27.0059 33.0158C26.6945 32.8852 26.373 32.7546 26.0616 32.634Z"
    fill="#AAC0DD" />
  <path
    d="M29.9692 35.6577C29.9692 35.6879 29.9692 35.718 29.9692 35.7481C29.6477 35.8586 29.3162 35.9792 28.9645 35.9591C29.286 35.8185 29.6276 35.7381 29.9692 35.6577Z"
    fill="#6C81AE" />
  <path
    d="M21.2388 35.2056C21.2388 35.2257 21.2388 35.2558 21.2489 35.2759C20.9977 35.2458 20.7466 35.2257 20.4653 35.1956C20.616 35.0951 20.7466 35.1453 20.8671 35.1252C20.9877 35.1554 21.1183 35.1252 21.2388 35.2056Z"
    fill="#818FB8" />
  <path
    d="M29.0547 34.8947C29.0045 34.9951 28.9442 35.0956 28.894 35.196C28.8337 35.2262 28.8237 35.3668 28.7333 35.3066C28.673 35.2664 28.7132 35.196 28.7634 35.1559C28.8739 35.0654 28.8438 34.8947 28.9844 34.8243C29.0146 34.8545 29.0346 34.8746 29.0547 34.8947Z"
    fill="#9BACC9" />
  <path
    d="M23.499 32.8851C23.7602 32.875 24.0114 32.8549 24.2625 32.9353C24.0114 32.9554 23.7502 33.0056 23.499 32.8851Z"
    fill="#414859" />
  <path
    d="M30.3509 29.9516C29.929 29.168 29.2157 28.7561 28.4221 28.4447C28.0303 28.294 27.6284 28.1433 27.2567 27.9323C26.7644 27.6611 26.4229 27.2793 26.453 26.6866C26.4832 26.0537 26.875 25.672 27.4275 25.4308C27.4677 25.4108 27.5179 25.3907 27.5681 25.3806C27.1261 26.2144 27.2467 26.6565 28.0604 27.2191C28.6531 27.631 29.3162 27.9424 29.8185 28.4949C30.1801 28.9068 30.4413 29.3589 30.3509 29.9516Z"
    fill="#FBFCFA" />
  <path
    d="M29.2464 24.4265C29.9597 24.8987 30.02 25.5517 29.4272 26.0942C28.9551 26.5262 28.945 26.7773 29.377 27.2495C29.5478 27.4303 29.7186 27.6111 29.8894 27.802C29.9296 27.8422 29.9496 27.9125 29.9697 27.9628C29.9396 27.9828 29.9095 28.0029 29.8994 28.0029C29.2565 27.6513 28.6135 27.2796 28.071 26.7673C27.5587 26.2851 27.6089 25.5015 28.4226 25.2905C28.8446 25.19 29.2464 24.9891 29.2464 24.4265Z"
    fill="#FBFCFB" />
  <path
    d="M36.6199 26.6867C41.9685 26.6867 46.3044 26.6733 46.3044 26.6566C46.3044 26.64 41.9685 26.6265 36.6199 26.6265C31.2713 26.6265 26.9354 26.64 26.9354 26.6566C26.9354 26.6733 31.2713 26.6867 36.6199 26.6867Z"
    fill="#8B9BBC" />
  <path
    d="M36.5993 26.988C41.9645 26.988 46.3139 26.9745 46.3139 26.9579C46.3139 26.9412 41.9645 26.9277 36.5993 26.9277C31.234 26.9277 26.8846 26.9412 26.8846 26.9579C26.8846 26.9745 31.234 26.988 36.5993 26.988Z"
    fill="#8E97BA" />
  <path
    d="M36.6898 26.3856C41.9885 26.3856 46.2839 26.3721 46.2839 26.3555C46.2839 26.3388 41.9885 26.3253 36.6898 26.3253C31.3912 26.3253 27.0958 26.3388 27.0958 26.3555C27.0958 26.3721 31.3912 26.3856 36.6898 26.3856Z"
    fill="#8F9AB7" />
  <path
    d="M36.8809 25.7827C42.0298 25.7827 46.2037 25.7692 46.2037 25.7526C46.2037 25.7359 42.0298 25.7224 36.8809 25.7224C31.7321 25.7224 27.5581 25.7359 27.5581 25.7526C27.5581 25.7692 31.7321 25.7827 36.8809 25.7827Z"
    fill="#8999BB" />
  <path
    d="M30.733 28.4447C34.9925 28.4447 39.2521 28.4447 43.5117 28.4447C43.5117 28.4547 43.5117 28.4648 43.5117 28.4748C39.2521 28.4748 34.9925 28.4748 30.743 28.4748C30.733 28.4648 30.733 28.4547 30.733 28.4447Z"
    fill="#8E9EBD" />
  <path
    d="M38.4691 22.0354C38.3687 22.0354 38.2682 22.0354 38.1778 22.0254C37.6252 21.7441 37.6052 21.292 38.1175 20.8902L38.1075 20.9002C38.5194 20.8199 38.8207 20.9505 38.9011 21.2318C38.9915 21.6035 38.8509 21.8546 38.4691 22.0354Z"
    fill="#1B3760" />
  <path
    d="M32.6413 20.83C33.2541 20.82 33.3144 21.4328 33.7464 21.6237C33.7363 21.3625 33.8167 21.1113 33.656 20.8602C33.7263 20.7999 33.8267 20.83 33.9473 20.83C33.6861 21.1917 33.8669 21.6036 33.7966 22.0557C33.3948 21.6438 33.0331 21.262 32.6413 20.83Z"
    fill="#D9E5F1" />
  <path
    d="M39.2826 20.8596C39.6643 20.8395 40.3977 21.6131 40.3575 22.0451C40.1968 21.8643 40.0561 21.7136 39.9155 21.5629C39.7849 21.4222 39.6543 21.2715 39.4634 21.0606C39.4634 21.382 39.4634 21.6131 39.4634 21.8341C39.4634 21.8944 39.5739 21.9547 39.4634 22.0149C39.4433 22.025 39.4132 22.025 39.3931 22.0149C39.2625 21.9647 39.3931 21.9044 39.3931 21.8442C39.3831 21.5327 39.4835 21.1811 39.2826 20.8596Z"
    fill="#DCE8F0" />
  <path
    d="M25.3386 22.0052C24.9669 22.1056 24.8464 22.0554 24.9268 21.6837C24.987 21.4225 24.987 21.1211 24.8263 20.8097C25.1779 20.9302 25.5396 20.6891 25.861 21.0106C25.7204 21.091 25.6802 21.0006 25.64 20.9604C25.4994 20.8599 25.3487 20.8599 25.2181 20.9202C25.0975 20.9805 25.1578 21.1312 25.1779 21.2316C25.2181 21.4828 25.0473 21.7842 25.3386 22.0052Z"
    fill="#DBE4EF" />
  <path
    d="M42.1655 20.8497C42.3061 20.8497 42.4468 20.8497 42.5874 20.8497C42.4769 21.2315 42.4367 21.6233 42.6175 21.995C42.2458 22.0754 42.2659 22.0754 42.2559 21.7137C42.2559 21.4324 42.3363 21.131 42.1655 20.8497Z"
    fill="#DFE8F0" />
  <path
    d="M15.6634 21.1916C15.6835 21.0711 15.6935 20.9405 15.8442 20.8601C16.0351 21.2519 16.2159 21.6337 16.4169 22.0355C16.236 22.0355 16.015 22.1661 16.0351 21.7944C16.0452 21.6236 15.8945 21.5432 15.7237 21.5633C15.6333 21.5734 15.4725 21.6437 15.5228 21.4327C15.5931 21.3624 15.7639 21.3624 15.6634 21.1916Z"
    fill="#DAE3EF" />
  <path
    d="M41.1412 21.1616C41.1914 21.0611 41.2417 20.9607 41.322 20.7999C41.533 21.2319 41.7239 21.6137 41.9248 22.0155C41.7339 22.0356 41.5631 22.126 41.543 21.7844C41.5229 21.4529 41.2216 21.5634 41.0005 21.5735C41.0106 21.473 41.0307 21.3926 41.1311 21.3424C41.1914 21.3726 41.2316 21.3525 41.2417 21.2922C41.2417 21.2319 41.2115 21.1817 41.1412 21.1616Z"
    fill="#D9E4F0" />
  <path
    d="M18.8082 21.4932C18.7379 21.6639 18.768 21.8347 18.8484 22.0055C18.6073 22.0658 18.4767 22.0758 18.5169 21.7443C18.5571 21.453 18.5973 21.1415 18.4365 20.8201C18.6374 20.8201 18.8384 20.8201 19.0292 20.8201C18.979 21.0511 18.9288 21.2822 18.8082 21.4932Z"
    fill="#E9EBF1" />
  <path
    d="M27.4087 21.0506C27.3685 20.9904 27.3283 20.9301 27.2881 20.8698C27.6599 20.8296 28.4033 21.5931 28.3832 21.9849C28.0918 21.7036 27.7905 21.4123 27.4891 21.121C27.4388 21.121 27.4388 21.0808 27.4087 21.0506Z"
    fill="#E2EDF6" />
  <path
    d="M21.0988 20.8497C21.2294 20.8497 21.38 20.8497 21.5207 20.8497C21.3298 21.1712 21.4403 21.5228 21.4303 21.8644C21.4303 21.9247 21.5609 21.995 21.4303 22.0352C21.36 22.0553 21.2796 22.0553 21.2093 22.0352C21.0887 22.005 21.1691 21.9247 21.1691 21.8644C21.1691 21.5329 21.2193 21.1913 21.0988 20.8497Z"
    fill="#E2E7F0" />
  <path
    d="M34.5604 21.2015C34.6006 21.091 34.6508 20.9805 34.7312 20.7795C34.9522 21.2316 35.133 21.6134 35.344 22.0253C35.1531 22.0353 34.9622 22.1257 34.9622 21.7942C34.9522 21.5531 34.7613 21.5531 34.5704 21.5631C34.4197 21.5732 34.3494 21.5531 34.5101 21.4325C34.6508 21.3924 34.6407 21.312 34.5604 21.2015Z"
    fill="#DEE8F2" />
  <path
    d="M26.5531 20.84C26.7239 20.84 26.8545 20.84 27.0152 20.84C26.8143 21.1514 26.9047 21.493 26.9047 21.8245C26.9047 21.8948 27.0253 21.9551 26.9349 22.0154C26.8746 22.0555 26.7641 22.0555 26.6837 22.0254C26.5431 21.9852 26.6737 21.8848 26.6636 21.8144C26.6435 21.493 26.754 21.1614 26.5531 20.84Z"
    fill="#E5E7F0" />
  <path
    d="M17.3309 22.0652C17.1099 21.6232 16.9291 21.2214 16.6478 20.8597C17.0597 20.8296 17.5419 21.6333 17.3309 22.0652Z"
    fill="#E6EFF6" />
  <path
    d="M22.1835 22.0355C22.073 22.0254 21.9625 22.0254 21.8721 22.0154C21.9123 21.6135 21.9826 21.2217 21.8118 20.84C21.9424 20.84 22.0931 20.84 22.2438 20.84C22.0529 21.2217 22.1534 21.6135 22.1835 22.0355Z"
    fill="#E5EBF4" />
  <path
    d="M14.398 20.9105C14.0062 21.4731 14.0865 21.8046 14.6793 22.0658C14.2171 22.0758 13.976 21.9352 13.9157 21.6037C13.8555 21.232 14.0062 21.0009 14.3678 20.8904L14.398 20.9105Z"
    fill="#DAE5EF" />
  <path
    d="M20.1037 21.5027C20.1238 21.6735 20.0836 21.8443 20.1941 22.0151C19.9731 22.0452 19.8123 22.1055 19.8726 21.7639C19.9228 21.4726 19.963 21.1511 19.7922 20.8497C19.9329 20.8497 20.0836 20.8497 20.2443 20.8497C20.0032 21.0004 20.174 21.2315 20.1137 21.4224C20.1539 21.4525 20.1539 21.4826 20.1037 21.5027Z"
    fill="#E9F0F6" />
  <path
    d="M23.8003 22.0353C23.4386 21.9851 23.2478 21.7541 23.2879 21.4024C23.3281 21.0006 23.6195 20.8198 24.1519 20.8499C23.4989 20.9504 23.3583 21.4225 23.8003 22.0353Z"
    fill="#DCE4F0" />
  <path
    d="M18.1648 20.8602C17.9941 21.1817 18.1046 21.5333 18.0845 21.8748C18.0845 21.9251 18.1849 21.9854 18.0845 22.0255C18.0041 22.0557 17.9036 22.0557 17.8233 22.0255C17.7228 21.9954 17.8132 21.9351 17.8233 21.8849C17.8233 21.6639 17.8534 21.4328 17.8233 21.2118C17.7831 20.8501 17.7931 20.8401 18.1648 20.8602Z"
    fill="#EBEFF7" />
  <path
    d="M36.0066 21.8046C36.0066 21.6037 36.0066 21.4027 35.9965 21.2018C35.9865 21.1014 36.0669 20.9607 35.9162 20.9105C35.7956 20.8703 35.6952 20.9406 35.6047 21.0009C35.5646 21.031 35.5344 21.0612 35.4842 21.0913C35.434 20.9406 35.4139 20.8201 35.6047 20.8201C36.2075 20.8201 36.8203 20.8201 37.4934 20.8201C37.393 20.9105 37.3427 20.9507 37.3025 20.9909C37.2121 21.0109 37.1318 21.0109 37.0413 20.9808C36.8002 20.7698 36.8505 21.031 36.8002 21.1415C36.6495 20.9708 36.4687 20.8603 36.2376 20.8904C36.0669 21.0612 36.1774 21.2721 36.1472 21.463C36.1271 21.5936 36.2176 21.7644 36.0066 21.8046Z"
    fill="#A9B7D2" />
  <path
    d="M20.1042 21.5027C20.1042 21.4725 20.1042 21.4424 20.1042 21.4223C20.5161 21.4022 20.5663 21.3017 20.4056 20.8698C20.6567 20.8898 20.8476 21.0707 20.717 21.2415C20.4859 21.5328 20.6869 21.6835 20.7873 21.8945C20.8074 21.9246 20.8275 21.9547 20.8476 21.9949C20.6668 22.0853 20.5864 21.9949 20.506 21.8442C20.4257 21.6835 20.3855 21.4524 20.1042 21.5027Z"
    fill="#E8F0F7" />
  <path
    d="M38.4686 22.0353C38.6695 21.8947 38.8101 21.7339 38.8001 21.4627C38.79 21.0207 38.5992 20.87 38.0969 20.9102C38.559 20.7595 38.9407 20.9303 39.0412 21.3321C39.1316 21.6536 38.8704 21.9751 38.4686 22.0353Z"
    fill="#DCE7F1" />
  <path
    d="M32.2294 20.9C32.3801 21.0608 32.4806 21.2315 32.2394 21.3923C32.139 21.4626 32.1892 21.5028 32.2194 21.5631C32.2997 21.7037 32.3801 21.8444 32.4705 21.985C32.2696 22.0855 32.2093 21.975 32.1189 21.8343C32.0285 21.6836 31.9983 21.4224 31.707 21.5128C31.6769 21.4827 31.6668 21.4526 31.6769 21.4224C31.7773 21.2918 31.9481 21.2114 31.9582 21.0005C31.9682 20.8397 32.0988 20.8297 32.2294 20.9Z"
    fill="#E8F1F9" />
  <path
    d="M22.5453 20.9097C22.8969 20.9499 23.1481 21.191 23.1179 21.5124C23.0878 21.8138 22.9271 22.0147 22.5252 22.0348C22.7563 21.854 22.8768 21.6732 22.8668 21.4421C22.8467 21.2211 22.696 21.0704 22.5453 20.9097Z"
    fill="#E5EBF4" />
  <path
    d="M19.2795 20.8802C19.5507 21.1314 19.3699 21.5132 19.5407 21.8145C19.6009 21.925 19.3799 22.0556 19.1891 22.0255C19.4 21.6839 19.3799 21.6237 19.0585 21.4529C19.0384 21.473 18.9982 21.483 18.9982 21.473C18.8877 21.252 19.0384 20.9506 19.2795 20.8802Z"
    fill="#E5F1F6" />
  <path
    d="M30.5016 20.9003C30.5016 21.051 30.5016 21.2017 30.5016 21.3524C30.5217 21.3725 30.5317 21.3826 30.5217 21.4026C30.5116 21.4227 30.5116 21.4328 30.5016 21.4328C30.4915 21.6337 30.4513 21.8346 30.6422 22.0155C30.4815 22.0155 30.3609 22.0155 30.2203 22.0155C30.3107 21.6739 30.2806 21.3323 30.2504 20.9908C30.2806 20.7999 30.3911 20.8602 30.5016 20.9003Z"
    fill="#EEFCFD" />
  <path
    d="M31.707 21.4125C31.707 21.4426 31.707 21.4828 31.707 21.513C31.7271 21.6838 31.717 21.8445 31.7974 22.0052C31.6568 22.0354 31.5463 22.0454 31.4458 22.0052C31.5463 21.6134 31.5764 21.2317 31.3956 20.8298C31.5664 20.8298 31.7371 20.8298 31.9079 20.8298C31.918 21.0508 31.8677 21.2518 31.707 21.4125Z"
    fill="#F6F7FC" />
  <path
    d="M29.446 20.9C29.446 21.2616 29.3958 21.6233 29.4862 21.985C29.1848 22.0653 29.1949 22.0653 29.2049 21.7639C29.2149 21.4726 29.2049 21.1913 29.2049 20.9C29.2953 20.8497 29.3757 20.8497 29.446 20.9Z"
    fill="#F0FCFD" />
  <path
    d="M37.0417 20.9804C37.1321 20.8699 37.2225 20.89 37.3029 20.9904C37.2928 21.3219 37.2426 21.6635 37.3431 22.0051C37.1019 22.0855 36.9814 22.0654 37.0417 21.7238C37.0919 21.4927 37.0417 21.2315 37.0417 20.9804Z"
    fill="#F5FAFE" />
  <path
    d="M38.1156 20.8904C37.764 21.3625 37.7841 21.6438 38.1759 22.0256C37.8343 22.0155 37.6635 21.8146 37.6334 21.4831C37.6032 21.1516 37.7841 20.9507 38.1156 20.8904Z"
    fill="#DCE7F1" />
  <path
    d="M19.2803 20.8803C19.22 20.8903 19.1095 20.9004 19.1296 20.9205C19.3104 21.1314 19.1195 21.2821 19.0592 21.4529C18.9789 21.473 18.8985 21.4831 18.8181 21.5031C18.8081 21.4127 18.798 21.3324 18.7779 21.2419C18.7378 21.0209 18.8081 20.8702 19.0391 20.8301C19.1296 20.82 19.2099 20.82 19.2803 20.8803Z"
    fill="#27375E" />
  <path
    d="M31.7067 21.4124C31.777 21.2215 31.5862 20.9302 31.9177 20.8297C32.0282 20.8197 32.1387 20.8096 32.2191 20.9C32.1488 20.9201 31.978 20.7795 32.0583 21.0105C32.1789 21.332 32.0885 21.4224 31.7067 21.4124Z"
    fill="#283C5A" />
  <path
    d="M36.0063 21.8043C36.1268 21.6134 36.0465 21.4025 36.0666 21.2015C36.0766 21.081 36.0264 20.9202 36.2374 20.9001C36.2374 21.2116 36.2374 21.523 36.2273 21.8244C36.2273 21.8947 36.388 21.9751 36.2273 22.0253C36.157 22.0454 36.0666 22.0454 36.0063 22.0153C35.8857 21.965 36.0264 21.8746 36.0063 21.8043Z"
    fill="#FAF8FE" />
  <path
    d="M29.4462 20.9003C29.3658 20.9003 29.2854 20.9003 29.2051 20.9003C29.0042 20.8903 28.8233 20.9405 28.6726 21.2117C28.6626 20.9807 28.6124 20.8199 28.7932 20.83C29.2051 20.84 29.627 20.7396 30.0389 20.9003V20.8903C30.0389 20.9706 30.0389 21.061 30.0389 21.1715C29.8681 20.9807 29.6873 20.8802 29.4462 20.9003Z"
    fill="#A1B2CD" />
  <path
    d="M23.7913 22.0351C24.0324 22.025 24.3037 22.0652 24.2233 21.6734C24.2032 21.583 24.2334 21.583 24.5749 21.6031C24.3941 22.0552 24.2233 22.1556 23.7913 22.0351Z"
    fill="#BFCFE2" />
  <path
    d="M27.407 21.0508C27.4371 21.0709 27.4572 21.101 27.4874 21.1211C27.5075 21.3923 27.4271 21.6636 27.5476 21.9348C27.5979 22.0554 27.4974 22.0554 27.4271 22.0554C27.3668 22.0554 27.2663 22.0453 27.3065 21.965C27.4874 21.6736 27.2563 21.3421 27.407 21.0508Z"
    fill="#6E7E9C" />
  <path
    d="M30.502 20.9003C30.4116 20.9003 30.3111 20.8902 30.2508 20.9907C30.1805 20.9405 30.1303 20.8802 30.0399 20.8902C30.0399 20.8902 30.0499 20.9003 30.0399 20.9003C30.3613 20.7596 30.6929 20.84 31.0244 20.84C31.1449 20.84 31.165 20.9606 31.1047 21.1012C30.9541 20.8802 30.723 20.8902 30.502 20.9003Z"
    fill="#A1B2CD" />
  <path
    d="M15.6637 21.1917C15.8446 21.2117 15.9049 21.3926 15.8546 21.4729C15.7642 21.6136 15.6236 21.483 15.5131 21.4227C15.4327 21.2519 15.6437 21.2821 15.6637 21.1917Z"
    fill="#364157" />
  <path
    d="M30.5114 21.433C30.5114 21.4029 30.5114 21.3828 30.5114 21.3526C30.6521 21.4029 30.7425 21.2823 30.8731 21.222C30.8731 21.3526 30.8731 21.4632 30.8731 21.6038C30.7324 21.5435 30.6219 21.4832 30.5114 21.433Z"
    fill="#8396B9" />
  <path
    d="M14.3675 20.89C14.8296 20.7594 15.0506 20.8498 15.0305 21.2115C14.8798 20.9001 14.6588 20.8398 14.3976 20.9202C14.3976 20.9101 14.3675 20.89 14.3675 20.89Z"
    fill="#DAE5EF" />
  <path
    d="M34.5595 21.2017C34.7605 21.1816 34.8107 21.3625 34.7806 21.4529C34.7303 21.5634 34.5897 21.5634 34.4993 21.4328C34.5093 21.3524 34.5395 21.2821 34.5595 21.2017Z"
    fill="#2C3C52" />
  <path
    d="M41.141 21.1616C41.352 21.1616 41.3319 21.3525 41.4223 21.5233C41.2917 21.463 41.0908 21.6338 41.131 21.3425C41.2013 21.2922 41.1711 21.2319 41.141 21.1616Z"
    fill="#31354C" />
  <path
    d="M19.9734 26.0838C24.8281 26.0838 28.7637 26.0703 28.7637 26.0537C28.7637 26.0371 24.8281 26.0236 19.9734 26.0236C15.1186 26.0236 11.183 26.0371 11.183 26.0537C11.183 26.0703 15.1186 26.0838 19.9734 26.0838Z"
    fill="#8E99B6" />
  <path
    d="M19.8626 26.3856C24.623 26.3856 28.4821 26.3721 28.4821 26.3555C28.4821 26.3388 24.623 26.3253 19.8626 26.3253C15.1021 26.3253 11.243 26.3388 11.243 26.3555C11.243 26.3721 15.1021 26.3856 19.8626 26.3856Z"
    fill="#8F9AB7" />
  <path
    d="M25.7406 26.677C21.7523 26.677 17.7539 26.677 13.7656 26.677C13.7656 26.667 13.7656 26.6469 13.7656 26.6368C17.7539 26.6368 21.7523 26.6368 25.7406 26.6368C25.7406 26.6469 25.7406 26.6569 25.7406 26.677Z"
    fill="#8B9BBC" />
  <path
    d="M25.6688 26.978C21.7006 26.978 17.7324 26.978 13.7541 26.978C13.7541 26.9579 13.7541 26.9478 13.7541 26.9277C17.7223 26.9277 21.6905 26.9277 25.6688 26.9277C25.6688 26.9478 25.6688 26.9579 25.6688 26.978Z"
    fill="#8E98B8" />
  <path
    d="M13.6332 28.4344C17.5713 28.4344 21.4994 28.4344 25.4776 28.4344C25.337 28.5349 25.2265 28.5048 25.116 28.5048C21.419 28.5048 17.722 28.5048 14.015 28.5048C13.8944 28.5048 13.7437 28.555 13.6332 28.4344Z"
    fill="#8E9EBD" />
</svg>